SplineFontDB: 3.0
FontName: Mallanna
FullName: Mallanna
FamilyName: Mallanna
OS2FamilyName: "Mallanna"
OS2StyleName: "regular"
Weight: Regular
Copyright: Copyright (c) 2012, AP Society for Knowledge Networks, Hyderabad, INDIA.
Version: 1.0
FONDName: Mallanna
ItalicAngle: 0
UnderlinePosition: -623
UnderlineWidth: 20
Ascent: 800
Descent: 200
InvalidEm: 1
UFOAscent: 895
UFODescent: -310
LayerCount: 2
Layer: 0 0 "Back" 1
Layer: 1 0 "Fore" 0
FSType: 0
OS2Version: 0
OS2_WeightWidthSlopeOnly: 0
OS2_UseTypoMetrics: 0
CreationTime: 1416058593
ModificationTime: 1416058593
PfmFamily: 16
TTFWeight: 400
TTFWidth: 5
LineGap: 0
VLineGap: 0
Panose: 0 0 0 0 0 0 0 0 0 0
OS2TypoAscent: 895
OS2TypoAOffset: 0
OS2TypoDescent: -310
OS2TypoDOffset: 0
OS2TypoLinegap: 448
OS2WinAscent: 895
OS2WinAOffset: 0
OS2WinDescent: 653
OS2WinDOffset: 0
HheadAscent: 1119
HheadAOffset: 0
HheadDescent: -534
HheadDOffset: 0
OS2SubXSize: 700
OS2SubYSize: 650
OS2SubXOff: 0
OS2SubYOff: 140
OS2SupXSize: 700
OS2SupYSize: 650
OS2SupXOff: 0
OS2SupYOff: 477
OS2StrikeYSize: 50
OS2StrikeYPos: 250
OS2CapHeight: 546
OS2XHeight: 403
OS2Vendor: 'GPK '
DEI: 91125
LangName: 1033 "" "" "" "" "" "Version 2.00 July 29, 2013" "" "Mallanna is a trademark of Andhrapradesh Society for Knowledge Networks." "Andhrapradesh Society for Knowledge Networks" "Purushoth Kumar Guthula" "Copyright (c) 2012 by Andhrapradesh Society for Knowledge Networks. All rights reserved." "" "" "SIL Open Font License" "http://scripts.sil.org/OFL"
PickledDataWithLists: "(dp1
S'com.fontlab.v2.tth'
p2
(dp3
S'stems'
p4
(dp5
S'Y: 50'
p6
(dp7
S'width'
p8
I50
sS'horizontal'
p9
I01
sS'round'
p10
(dp11
S'30'
p12
I2
sS'50'
p13
I3
sS'0'
I1
sS'110'
p14
I6
sS'70'
p15
I4
sS'90'
p16
I5
sssS'X: 46'
p17
(dp18
g8
I46
sg9
I00
sg10
(dp19
S'120'
p20
I6
sS'98'
p21
I5
sS'33'
p22
I2
sS'55'
p23
I3
sS'77'
p24
I4
sS'0'
I1
sssS'Y: 44'
p25
(dp26
g8
I44
sg9
I01
sg10
(dp27
S'57'
p28
I3
sS'35'
p29
I2
sS'0'
I1
sS'125'
p30
I6
sS'103'
p31
I5
sS'80'
p32
I4
sssS'X: 51'
p33
(dp34
g8
I51

StartChar: exclam
Encoding: 1 33 1
GlifName: exclam
Width: 143
VWidth: 0
Flags: W
LayerCount: 2
Back
Fore
SplineSet
98 33 m 256
NamedP: "hr00"
 98 61 76 80 48 80 c 256
 19 80 0 61 0 33 c 256
 0 4 23 -13 48 -13 c 256
 75 -13 98 8 98 33 c 256
NamedP: "hr00"
75 484 m 258
 75 500 65 508 45 508 c 256
 27 508 18 500 18 483 c 258
 18 125 l 258
 18 112 27 105 46 105 c 256
 65 105 75 111 75 124 c 258
 75 484 l 258
EndSplineSet
PickledDataWithLists: "(dp1
S'com.adobe.type.autohint'
p2
(S'data'
S'<data>\\n  <hintSetList>\\n    <hintset pointTag=\"hr00\">\\n      <hstem pos=\"-13\" width=\"93\"/>\\n      <vstem pos=\"18\" width=\"57\"/>\\n    </hintset>\\n  </hintSetList>\\n  </data>'
Ntp3
s."
EndChar

StartChar: quotedbl
Encoding: 2 34 2
GlifName: quotedbl
Width: 344
VWidth: 0
Flags: W
LayerCount: 2
Back
Fore
SplineSet
269 536 m 257
NamedP: "hr00"
 294 836 l 257
 225 836 l 257
 225 536 l 257
 269 536 l 257
NamedP: "hr00"
107 536 m 257
 132 836 l 257
 62 836 l 257
 62 536 l 257
 107 536 l 257
EndSplineSet
PickledDataWithLists: "(dp1
S'com.adobe.type.autohint'
p2
(S'data'
S'<data>\\n  <hintSetList>\\n    <hintset pointTag=\"hr00\">\\n      <hstem pos=\"536\" width=\"300\"/>\\n      <vstem pos=\"62\" width=\"45\"/>\\n      <vstem pos=\"225\" width=\"44\"/>\\n    </hintset>\\n  </hintSetList>\\n  </data>'
Ntp3
s."
EndChar

StartChar: numbersign
Encoding: 3 35 3
GlifName: numbersign
Width: 467
VWidth: 0
Flags: W
LayerCount: 2
Back
Fore
SplineSet
255 202 m 257
NamedP: "hr00"
 170 202 l 257
 190 339 l 257
 275 339 l 257
 255 202 l 257
NamedP: "hr00"
142 -2 m 257
 163 148 l 257
 248 148 l 257
 228 -2 l 257
 283 -2 l 257
 305 148 l 257
 377 148 l 257
 377 202 l 257
 311 202 l 257
 330 339 l 257
 398 339 l 257
 398 393 l 257
 338 393 l 257
 359 544 l 257
 304 544 l 257
 283 393 l 257
 197 393 l 257
 217 544 l 257
 163 544 l 257
 142 393 l 257
 55 393 l 257
 55 339 l 257
 134 339 l 257
 115 202 l 257
 37 202 l 257
 37 148 l 257
 107 148 l 257
 86 -2 l 257
 142 -2 l 257
EndSplineSet
PickledDataWithLists: "(dp1
S'com.adobe.type.autohint'
p2
(S'data'
S'<data>\\n  <hintSetList>\\n    <hintset pointTag=\"hr00\">\\n      <hstem pos=\"-2\" width=\"204\"/>\\n      <hstem pos=\"148\" width=\"54\"/>\\n      <hstem pos=\"339\" width=\"54\"/>\\n      <vstem pos=\"37\" width=\"361\"/>\\n    </hintset>\\n  </hintSetList>\\n  </data>'
Ntp3
s."
EndChar

StartChar: dollar
Encoding: 4 36 4
GlifName: dollar
Width: 508
VWidth: 0
Flags: W
LayerCount: 2
Back
Fore
SplineSet
276 -84 m 257
NamedP: "hr00"
 276 -8 l 257
 317 -3 349 15 375 48 c 256
 397 76 410 109 410 146 c 256
 410 229 362 280 259 308 c 256
 227 317 204 325 191 334 c 256
 170 349 160 370 160 399 c 256
 160 428 169 451 186 468 c 256
 201 482 222 489 247 489 c 256
 276 489 300 480 319 461 c 256
 334 445 342 424 342 399 c 258
 342 394 l 257
 404 394 l 257
 404 425 396 454 380 480 c 256
 357 516 322 537 276 544 c 257
 276 607 l 257
 214 607 l 257
 214 541 l 257
 146 528 97 471 97 399 c 256
 97 350 114 312 152 286 c 256
 172 272 202 262 240 253 c 256
 271 245 293 236 307 225 c 257
 334 208 347 181 347 146 c 256
 347 85 309 45 248 45 c 256
 222 45 199 52 180 66 c 256
 155 83 143 112 143 152 c 257
 81 152 l 257
 81 139 l 258
 81 103 94 71 119 42 c 256
 145 13 177 -3 214 -8 c 257
 214 -84 l 257
 276 -84 l 257
NamedP: "hr00"
EndSplineSet
PickledDataWithLists: "(dp1
S'com.adobe.type.autohint'
p2
(S'data'
S'<data>\\n  <hintSetList>\\n    <hintset pointTag=\"hr00\">\\n      <hstem pos=\"-84\" width=\"129\"/>\\n      <hstem pos=\"-8\" width=\"53\"/>\\n      <hstem pos=\"489\" width=\"118\"/>\\n      <vstem pos=\"81\" width=\"62\"/>\\n      <vstem pos=\"97\" width=\"63\"/>\\n      <vstem pos=\"214\" width=\"62\"/>\\n      <vstem pos=\"342\" width=\"62\"/>\\n      <vstem pos=\"347\" width=\"63\"/>\\n    </hintset>\\n  </hintSetList>\\n  </data>'
Ntp3
s."
EndChar

StartChar: percent
Encoding: 5 37 5
GlifName: percent
Width: 613
VWidth: 0
Flags: W
LayerCount: 2
Back
Fore
SplineSet
493 148 m 256
NamedP: "hr00"
 493 69 478 44 422 44 c 256
 382 44 363 80 363 137 c 256
 363 206 383 230 432 230 c 256
 471 230 493 196 493 148 c 256
NamedP: "hr00"
184 398 m 256
 184 317 168 287 109 287 c 256
 69 287 48 326 48 379 c 256
 48 446 71 475 118 475 c 256
 159 475 184 443 184 398 c 256
544 140 m 256
 544 231 506 276 430 276 c 256
 389 276 357 261 337 230 c 256
 321 205 315 172 315 132 c 256
 315 48 359 -2 430 -2 c 256
 501 -2 544 47 544 140 c 256
439 497 m 258
 442 502 443 507 443 511 c 256
 443 528 435 536 418 536 c 256
 409 536 402 531 395 522 c 257
 97 16 l 257
 92 5 100 -13 121 -13 c 256
 131 -13 138 -8 143 1 c 258
 439 497 l 258
230 385 m 256
 230 470 186 521 114 521 c 256
 73 521 43 505 23 474 c 256
 8 450 0 418 0 378 c 256
 0 291 45 243 114 243 c 256
 191 243 230 290 230 385 c 256
EndSplineSet
PickledDataWithLists: "(dp1
S'com.adobe.type.autohint'
p2
(S'data'
S'<data>\\n  <hintSetList>\\n    <hintset pointTag=\"hr00\">\\n      <hstem pos=\"-2\" width=\"46\"/>\\n      <hstem pos=\"230\" width=\"46\"/>\\n      <hstem pos=\"243\" width=\"44\"/>\\n      <hstem pos=\"475\" width=\"46\"/>\\n      <vstem pos=\"0\" width=\"48\"/>\\n      <vstem pos=\"184\" width=\"46\"/>\\n      <vstem pos=\"315\" width=\"48\"/>\\n      <vstem pos=\"493\" width=\"51\"/>\\n    </hintset>\\n  </hintSetList>\\n  </data>'
Ntp3
s."
EndChar

StartChar: ampersand
Encoding: 6 38 6
GlifName: ampersand
Width: 617
VWidth: 0
Flags: W
LayerCount: 2
Back
Fore
SplineSet
273 526 m 256
NamedP: "hr00"
 318 526 353 493 353 454 c 256
 353 435 345 418 330 402 c 257
 316 391 292 378 259 364 c 257
 244 377 232 388 223 395 c 257
 203 418 193 439 193 459 c 256
 193 494 226 526 273 526 c 256
NamedP: "hr00"
380 164 m 257
 362 133 346 109 331 93 c 256
 305 67 275 54 242 54 c 256
 212 54 185 65 160 86 c 256
 135 107 123 135 123 169 c 256
 123 204 138 236 183 268 c 256
 196 277 225 290 240 297 c 257
 380 164 l 257
409 220 m 257
 305 321 l 257
 328 328 350 341 370 359 c 256
 401 385 416 416 416 452 c 256
 416 489 402 520 373 546 c 256
 345 571 312 585 274 585 c 256
 234 585 200 573 172 548 c 256
 144 523 130 493 130 457 c 256
 130 432 137 409 152 387 c 256
 161 374 175 359 194 340 c 257
 156 323 126 302 104 278 c 256
 75 247 60 212 60 171 c 256
 60 125 78 86 112 52 c 256
 150 15 194 -5 247 -5 c 256
 296 -5 336 13 371 47 c 256
 389 65 408 88 426 121 c 257
 560 -6 l 257
 605 37 l 257
 455 176 l 257
 566 378 l 257
 496 378 l 257
 409 220 l 257
EndSplineSet
PickledDataWithLists: "(dp1
S'com.adobe.type.autohint'
p2
(S'data'
S'<data>\\n  <hintSetList>\\n    <hintset pointTag=\"hr00\">\\n      <hstem pos=\"-5\" width=\"59\"/>\\n      <hstem pos=\"526\" width=\"59\"/>\\n      <vstem pos=\"60\" width=\"63\"/>\\n      <vstem pos=\"130\" width=\"63\"/>\\n      <vstem pos=\"353\" width=\"63\"/>\\n    </hintset>\\n  </hintSetList>\\n  </data>'
Ntp3
s."
EndChar

StartChar: quotesingle
Encoding: 7 39 7
GlifName: quotesingle
Width: 188
VWidth: 0
Flags: W
LayerCount: 2
Back
Fore
SplineSet
107 536 m 257
NamedP: "hr00"
 129 836 l 257
 68 836 l 257
 68 536 l 257
 107 536 l 257
NamedP: "hr00"
EndSplineSet
PickledDataWithLists: "(dp1
S'com.adobe.type.autohint'
p2
(S'data'
S'<data>\\n  <hintSetList>\\n    <hintset pointTag=\"hr00\">\\n      <hstem pos=\"536\" width=\"300\"/>\\n      <vstem pos=\"68\" width=\"39\"/>\\n    </hintset>\\n  </hintSetList>\\n  </data>'
Ntp3
s."
EndChar

StartChar: parenleft
Encoding: 8 40 8
GlifName: parenleft
Width: 194
VWidth: 0
Flags: W
LayerCount: 2
Back
Fore
SplineSet
116 -30 m 257
NamedP: "hr00"
 95 3 85 58 85 134 c 258
 85 325 l 258
 85 412 107 477 135 505 c 256
 144 513 157 521 172 529 c 256
 182 535 187 543 187 552 c 256
 187 567 179 574 163 574 c 256
 142 574 95 546 70 498 c 256
 46 451 34 383 34 302 c 258
 34 153 l 258
 34 89 43 6 68 -43 c 256
 81 -68 99 -89 121 -105 c 256
 137 -117 151 -122 163 -122 c 256
 179 -122 187 -115 187 -100 c 257
 116 -30 l 257
NamedP: "hr00"
EndSplineSet
PickledDataWithLists: "(dp1
S'com.adobe.type.autohint'
p2
(S'data'
S'<data>\\n  <hintSetList>\\n    <hintset pointTag=\"hr00\">\\n      <hstem pos=\"-122\" width=\"696\"/>\\n      <vstem pos=\"34\" width=\"51\"/>\\n    </hintset>\\n  </hintSetList>\\n  </data>'
Ntp3
s."
EndChar

StartChar: parenright
Encoding: 9 41 9
GlifName: parenright
Width: 195
VWidth: 0
Flags: W
LayerCount: 2
Back
Fore
SplineSet
165 302 m 258
NamedP: "hr00"
 165 387 152 451 128 495 c 256
 114 520 98 542 77 559 c 257
 62 569 48 574 37 574 c 256
 20 574 11 567 11 552 c 256
 11 542 18 533 31 526 c 256
 45 519 56 512 64 505 c 256
 92 477 116 405 116 325 c 258
 116 134 l 258
 116 40 98 -22 63 -53 c 256
 28 -84 11 -100 11 -101 c 256
 11 -115 19 -122 36 -122 c 256
 51 -122 69 -111 91 -90 c 256
 108 -75 122 -58 132 -39 c 256
 156 9 165 85 165 153 c 258
 165 302 l 258
NamedP: "hr00"
EndSplineSet
PickledDataWithLists: "(dp1
S'com.adobe.type.autohint'
p2
(S'data'
S'<data>\\n  <hintSetList>\\n    <hintset pointTag=\"hr00\">\\n      <hstem pos=\"-122\" width=\"696\"/>\\n      <vstem pos=\"116\" width=\"49\"/>\\n    </hintset>\\n  </hintSetList>\\n  </data>'
Ntp3
s."
EndChar

StartChar: asterisk
Encoding: 10 42 10
GlifName: asterisk
Width: 673
VWidth: 0
Flags: W
LayerCount: 2
Back
Fore
SplineSet
245 179 m 257
NamedP: "hr00"
 176 -11 l 257
 353 109 l 257
 530 -8 l 257
 460 179 l 257
 638 307 l 257
 422 307 l 257
 353 490 l 257
 287 307 l 257
 62 307 l 257
 245 179 l 257
NamedP: "hr00"
EndSplineSet
PickledDataWithLists: "(dp1
S'com.adobe.type.autohint'
p2
(S'data'
S'<data>\\n  <hintSetList>\\n    <hintset pointTag=\"hr00\">\\n      <hstem pos=\"10\" width=\"-21\"/>\\n      <hstem pos=\"13\" width=\"-21\"/>\\n      <vstem pos=\"62\" width=\"576\"/>\\n    </hintset>\\n  </hintSetList>\\n  </data>'
Ntp3
s."
EndChar

StartChar: plus
Encoding: 11 43 11
GlifName: plus
Width: 525
VWidth: 0
Flags: W
LayerCount: 2
Back
Fore
SplineSet
468 266 m 257
NamedP: "hr00"
 296 266 l 257
 296 444 l 257
 233 444 l 257
 233 266 l 257
 62 266 l 257
 62 199 l 257
 233 199 l 257
 233 15 l 257
 296 15 l 257
 296 199 l 257
 468 199 l 257
 468 266 l 257
NamedP: "hr00"
EndSplineSet
PickledDataWithLists: "(dp1
S'com.adobe.type.autohint'
p2
(S'data'
S'<data>\\n  <hintSetList>\\n    <hintset pointTag=\"hr00\">\\n      <hstem pos=\"199\" width=\"67\"/>\\n      <vstem pos=\"233\" width=\"63\"/>\\n    </hintset>\\n  </hintSetList>\\n  </data>'
Ntp3
s."
EndChar

StartChar: comma
Encoding: 12 44 12
GlifName: comma
Width: 191
VWidth: 0
Flags: W
LayerCount: 2
Back
Fore
SplineSet
119 29 m 256
NamedP: "hr00"
 119 59 103 74 72 74 c 256
 43 74 29 60 29 33 c 256
 29 2 43 -12 70 -9 c 257
 69 -20 64 -32 52 -44 c 256
 30 -66 19 -76 19 -77 c 256
 19 -94 39 -104 52 -95 c 257
 99 -71 119 -27 119 29 c 256
NamedP: "hr00"
EndSplineSet
PickledDataWithLists: "(dp1
S'com.adobe.type.autohint'
p2
(S'data'
S'<data>\\n  <hintSetList>\\n    <hintset pointTag=\"hr00\">\\n      <hstem pos=\"12\" width=\"-21\"/>\\n      <hstem pos=\"-9\" width=\"83\"/>\\n      <vstem pos=\"29\" width=\"90\"/>\\n    </hintset>\\n  </hintSetList>\\n  </data>'
Ntp3
s."
EndChar

StartChar: hyphen
Encoding: 13 45 13
GlifName: hyphen
Width: 419
VWidth: 0
Flags: W
LayerCount: 2
Back
Fore
SplineSet
55 243 m 258
NamedP: "hr00"
 36 243 27 234 27 215 c 256
 27 200 35 193 50 193 c 258
 348 193 l 258
 361 193 367 201 367 217 c 256
 367 234 362 243 351 243 c 258
 55 243 l 258
NamedP: "hr00"
EndSplineSet
PickledDataWithLists: "(dp1
S'com.adobe.type.autohint'
p2
(S'data'
S'<data>\\n  <hintSetList>\\n    <hintset pointTag=\"hr00\">\\n      <hstem pos=\"193\" width=\"50\"/>\\n      <vstem pos=\"27\" width=\"340\"/>\\n    </hintset>\\n  </hintSetList>\\n  </data>'
Ntp3
s."
EndChar

StartChar: period
Encoding: 14 46 14
GlifName: period
Width: 181
VWidth: 0
Flags: W
LayerCount: 2
Back
Fore
SplineSet
134 33 m 256
NamedP: "hr00"
 134 61 112 80 84 80 c 256
 55 80 36 61 36 33 c 256
 36 4 59 -13 84 -13 c 256
 111 -13 134 8 134 33 c 256
NamedP: "hr00"
EndSplineSet
PickledDataWithLists: "(dp1
S'com.adobe.type.autohint'
p2
(S'data'
S'<data>\\n  <hintSetList>\\n    <hintset pointTag=\"hr00\">\\n      <hstem pos=\"-13\" width=\"93\"/>\\n      <vstem pos=\"36\" width=\"98\"/>\\n    </hintset>\\n  </hintSetList>\\n  </data>'
Ntp3
s."
EndChar

StartChar: slash
Encoding: 15 47 15
GlifName: slash
Width: 202
VWidth: 0
Flags: W
LayerCount: 2
Back
Fore
SplineSet
222 539 m 257
NamedP: "hr00"
 222 554 212 562 192 562 c 256
 175 562 167 554 167 538 c 257
 -47 -111 l 257
 -47 -125 -38 -132 -19 -132 c 256
 -1 -132 8 -126 8 -114 c 257
 222 539 l 257
NamedP: "hr00"
EndSplineSet
PickledDataWithLists: "(dp1
S'com.adobe.type.autohint'
p2
(S'data'
S'<data>\\n  <hintSetList>\\n    <hintset pointTag=\"hr00\">\\n      <hstem pos=\"-132\" width=\"694\"/>\\n      <vstem pos=\"-47\" width=\"269\"/>\\n      <vstem pos=\"167\" width=\"55\"/>\\n    </hintset>\\n  </hintSetList>\\n  </data>'
Ntp3
s."
EndChar

StartChar: zero
Encoding: 16 48 16
GlifName: zero
Width: 516
VWidth: 0
Flags: W
LayerCount: 2
Back
Fore
SplineSet
406 276 m 256
NamedP: "hr00"
 406 185 394 122 369 87 c 256
 345 53 303 36 242 36 c 256
 182 36 140 57 116 98 c 256
 96 134 86 192 86 272 c 256
 86 366 98 433 121 472 c 256
 144 511 185 531 242 531 c 256
 299 531 341 512 367 474 c 256
 393 437 406 371 406 276 c 256
NamedP: "hr00"
461 285 m 256
 461 484 389 584 245 584 c 256
 101 584 27 495 27 280 c 256
 27 171 47 93 86 48 c 256
 121 7 174 -13 245 -13 c 256
 389 -13 461 86 461 285 c 256
EndSplineSet
PickledDataWithLists: "(dp1
S'com.adobe.type.autohint'
p2
(S'data'
S'<data>\\n  <hintSetList>\\n    <hintset pointTag=\"hr00\">\\n      <hstem pos=\"-13\" width=\"49\"/>\\n      <hstem pos=\"531\" width=\"53\"/>\\n      <vstem pos=\"27\" width=\"59\"/>\\n      <vstem pos=\"406\" width=\"55\"/>\\n    </hintset>\\n  </hintSetList>\\n  </data>'
Ntp3
s."
EndChar

StartChar: one
Encoding: 17 49 17
GlifName: one
Width: 291
VWidth: 0
Flags: W
LayerCount: 2
Back
Fore
SplineSet
199 549 m 258
NamedP: "hr00"
 199 564 192 572 177 572 c 256
 162 572 154 564 150 549 c 258
 139 508 l 257
 128 483 99 470 70 470 c 256
 53 470 45 464 45 451 c 256
 45 428 55 417 75 417 c 258
 146 417 l 257
 146 16 l 258
 146 -3 156 -14 177 -13 c 256
 192 -13 199 -3 199 13 c 258
 199 549 l 258
NamedP: "hr00"
EndSplineSet
PickledDataWithLists: "(dp1
S'com.adobe.type.autohint'
p2
(S'data'
S'<data>\\n  <hintSetList>\\n    <hintset pointTag=\"hr00\">\\n      <hstem pos=\"417\" width=\"53\"/>\\n      <vstem pos=\"146\" width=\"53\"/>\\n    </hintset>\\n  </hintSetList>\\n  </data>'
Ntp3
s."
EndChar

StartChar: two
Encoding: 18 50 18
GlifName: two
Width: 547
VWidth: 0
Flags: W
LayerCount: 2
Back
Fore
SplineSet
496 16 m 256
NamedP: "hr00"
 496 35 485 44 462 44 c 258
 88 44 l 257
 88 107 106 154 143 182 c 256
 168 201 212 214 276 231 c 256
 342 248 388 266 412 282 c 256
 456 312 477 357 477 415 c 256
 477 464 456 504 415 533 c 256
 381 558 336 570 281 570 c 256
 205 570 151 559 120 538 c 256
 69 503 43 447 43 370 c 256
 43 349 52 338 71 338 c 256
 89 338 98 347 98 364 c 256
 98 412 109 448 130 472 c 256
 159 505 207 521 275 521 c 256
 376 521 427 484 427 409 c 256
 427 370 409 341 372 318 c 256
 352 306 313 290 252 275 c 256
 191 260 150 247 130 236 c 256
 62 196 26 127 28 30 c 258
 29 -13 l 257
 471 -13 l 258
 488 -13 496 -3 496 16 c 256
NamedP: "hr00"
EndSplineSet
PickledDataWithLists: "(dp1
S'com.adobe.type.autohint'
p2
(S'data'
S'<data>\\n  <hintSetList>\\n    <hintset pointTag=\"hr00\">\\n      <hstem pos=\"-13\" width=\"57\"/>\\n      <hstem pos=\"521\" width=\"49\"/>\\n      <vstem pos=\"28\" width=\"60\"/>\\n      <vstem pos=\"43\" width=\"55\"/>\\n      <vstem pos=\"427\" width=\"50\"/>\\n    </hintset>\\n  </hintSetList>\\n  </data>'
Ntp3
s."
EndChar

StartChar: three
Encoding: 19 51 19
GlifName: three
Width: 513
VWidth: 0
Flags: W
LayerCount: 2
Back
Fore
SplineSet
461 171 m 256
NamedP: "hr00"
 461 246 432 294 374 316 c 257
 421 347 444 389 444 440 c 256
 444 537 367 585 252 585 c 256
 217 585 185 582 158 576 c 257
 125 565 97 544 73 513 c 256
 50 483 38 450 38 415 c 256
 38 392 47 380 66 380 c 256
 81 380 90 388 93 403 c 258
 103 449 l 257
 124 508 174 537 255 537 c 256
 336 537 389 501 389 434 c 256
 389 405 375 382 349 362 c 256
 324 344 297 334 266 334 c 258
 201 334 l 258
 182 334 172 324 172 305 c 256
 172 288 179 279 194 279 c 258
 290 279 l 258
 366 279 404 243 404 171 c 256
 404 84 348 41 235 41 c 256
 135 41 82 91 82 190 c 257
 80 204 72 211 57 211 c 256
 37 211 27 201 27 180 c 256
 27 131 45 89 78 52 c 256
 116 10 167 -13 232 -13 c 256
 379 -13 461 59 461 171 c 256
NamedP: "hr00"
EndSplineSet
PickledDataWithLists: "(dp1
S'com.adobe.type.autohint'
p2
(S'data'
S'<data>\\n  <hintSetList>\\n    <hintset pointTag=\"hr00\">\\n      <hstem pos=\"-13\" width=\"54\"/>\\n      <hstem pos=\"279\" width=\"55\"/>\\n      <hstem pos=\"537\" width=\"48\"/>\\n      <vstem pos=\"27\" width=\"55\"/>\\n      <vstem pos=\"389\" width=\"55\"/>\\n      <vstem pos=\"404\" width=\"57\"/>\\n    </hintset>\\n  </hintSetList>\\n  </data>'
Ntp3
s."
EndChar

StartChar: four
Encoding: 20 52 20
GlifName: four
Width: 531
VWidth: 0
Flags: W
LayerCount: 2
Back
Fore
SplineSet
99 193 m 257
NamedP: "hr00"
 332 491 l 257
 332 193 l 257
 99 193 l 257
NamedP: "hr00"
387 193 m 257
 387 538 l 258
 387 558 377 568 357 568 c 256
 338 568 318 559 301 537 c 258
 40 206 l 258
 32 195 27 184 27 169 c 256
 27 148 38 138 61 138 c 258
 332 138 l 257
 332 8 l 258
 332 -6 341 -13 359 -13 c 256
 378 -13 387 -5 387 11 c 258
 387 138 l 257
 447 138 l 258
 468 138 478 148 478 169 c 257
 475 185 467 193 453 193 c 258
 387 193 l 257
EndSplineSet
PickledDataWithLists: "(dp1
S'com.adobe.type.autohint'
p2
(S'data'
S'<data>\\n  <hintSetList>\\n    <hintset pointTag=\"hr00\">\\n      <hstem pos=\"138\" width=\"55\"/>\\n      <vstem pos=\"332\" width=\"55\"/>\\n    </hintset>\\n  </hintSetList>\\n  </data>'
Ntp3
s."
EndChar

StartChar: five
Encoding: 21 53 21
GlifName: five
Width: 517
VWidth: 0
Flags: W
LayerCount: 2
Back
Fore
SplineSet
467 186 m 256
NamedP: "hr00"
 467 333 398 406 260 406 c 256
 188 406 134 391 98 360 c 257
 119 509 l 257
 410 509 l 258
 429 509 438 518 438 536 c 256
 438 553 428 562 407 562 c 258
 68 562 l 257
 35 315 l 258
 31 288 43 274 69 274 c 257
 80 275 89 280 98 290 c 256
 111 305 121 315 127 318 c 257
 158 343 197 352 252 352 c 256
 361 352 415 299 415 193 c 256
 415 98 345 36 233 36 c 256
 162 36 112 64 95 122 c 258
 82 166 l 257
 75 177 66 183 53 183 c 256
 36 183 28 173 28 154 c 256
 28 109 46 69 83 36 c 256
 120 3 170 -13 231 -13 c 256
 302 -13 363 5 402 37 c 256
 446 72 467 123 467 186 c 256
NamedP: "hr00"
EndSplineSet
PickledDataWithLists: "(dp1
S'com.adobe.type.autohint'
p2
(S'data'
S'<data>\\n  <hintSetList>\\n    <hintset pointTag=\"hr00\">\\n      <hstem pos=\"-13\" width=\"49\"/>\\n      <hstem pos=\"352\" width=\"54\"/>\\n      <hstem pos=\"509\" width=\"53\"/>\\n      <vstem pos=\"415\" width=\"52\"/>\\n    </hintset>\\n  </hintSetList>\\n  </data>'
Ntp3
s."
EndChar

StartChar: six
Encoding: 22 54 22
GlifName: six
Width: 517
VWidth: 0
Flags: W
LayerCount: 2
Back
Fore
SplineSet
411 184 m 256
NamedP: "hr00"
 411 91 350 36 250 36 c 256
 146 36 94 84 94 180 c 256
 94 221 100 250 113 268 c 256
 143 311 193 333 264 333 c 256
 312 333 348 318 373 289 c 256
 398 260 411 225 411 184 c 256
NamedP: "hr00"
464 183 m 256
 464 244 446 293 410 330 c 256
 375 367 329 385 274 385 c 256
 177 385 112 357 79 300 c 257
 79 453 139 529 258 529 c 256
 305 529 340 519 361 500 c 256
 370 491 379 471 389 440 c 257
 398 419 409 408 422 408 c 256
 437 409 445 417 445 432 c 256
 445 467 431 499 402 528 c 256
 367 561 321 578 264 578 c 256
 184 578 126 555 89 509 c 256
 48 457 27 382 27 285 c 256
 27 86 96 -13 235 -13 c 256
 388 -13 464 52 464 183 c 256
EndSplineSet
PickledDataWithLists: "(dp1
S'com.adobe.type.autohint'
p2
(S'data'
S'<data>\\n  <hintSetList>\\n    <hintset pointTag=\"hr00\">\\n      <hstem pos=\"-13\" width=\"49\"/>\\n      <hstem pos=\"333\" width=\"52\"/>\\n      <hstem pos=\"529\" width=\"49\"/>\\n      <vstem pos=\"27\" width=\"52\"/>\\n      <vstem pos=\"411\" width=\"53\"/>\\n    </hintset>\\n  </hintSetList>\\n  </data>'
Ntp3
s."
EndChar

StartChar: seven
Encoding: 23 55 23
GlifName: seven
Width: 519
VWidth: 0
Flags: W
LayerCount: 2
Back
Fore
SplineSet
456 479 m 256
NamedP: "hr00"
 463 487 467 498 467 511 c 256
 467 535 457 547 438 547 c 258
 48 547 l 258
 34 547 27 538 27 521 c 256
 27 503 36 494 53 494 c 258
 398 494 l 257
 288 368 210 210 167 20 c 256
 162 -2 173 -13 196 -13 c 257
 213 -11 222 -4 224 8 c 256
 235 93 267 184 317 279 c 256
 361 361 407 428 456 479 c 256
NamedP: "hr00"
EndSplineSet
PickledDataWithLists: "(dp1
S'com.adobe.type.autohint'
p2
(S'data'
S'<data>\\n  <hintSetList>\\n    <hintset pointTag=\"hr00\">\\n      <hstem pos=\"494\" width=\"53\"/>\\n      <vstem pos=\"27\" width=\"440\"/>\\n    </hintset>\\n  </hintSetList>\\n  </data>'
Ntp3
s."
EndChar

StartChar: eight
Encoding: 24 56 24
GlifName: eight
Width: 516
VWidth: 0
Flags: W
LayerCount: 2
Back
Fore
SplineSet
409 172 m 256
NamedP: "hr00"
 409 93 348 40 241 40 c 256
 197 40 160 51 130 75 c 256
 101 98 86 128 86 162 c 256
 86 207 98 238 121 257 c 257
 147 274 187 283 240 283 c 256
 296 283 335 279 356 270 c 256
 391 256 409 223 409 172 c 256
NamedP: "hr00"
387 430 m 256
 387 365 338 333 241 333 c 256
 150 333 104 366 104 432 c 256
 104 491 154 536 257 536 c 256
 344 536 387 501 387 430 c 256
461 172 m 256
 461 245 435 295 382 321 c 257
 423 348 444 385 444 434 c 256
 444 534 367 584 250 584 c 256
 117 584 51 531 51 424 c 256
 51 378 71 341 112 313 c 257
 55 288 27 242 27 175 c 256
 27 60 108 -13 241 -13 c 256
 308 -13 361 4 401 38 c 256
 441 72 461 117 461 172 c 256
EndSplineSet
PickledDataWithLists: "(dp1
S'com.adobe.type.autohint'
p2
(S'data'
S'<data>\\n  <hintSetList>\\n    <hintset pointTag=\"hr00\">\\n      <hstem pos=\"-13\" width=\"53\"/>\\n      <hstem pos=\"283\" width=\"50\"/>\\n      <hstem pos=\"536\" width=\"48\"/>\\n      <vstem pos=\"27\" width=\"59\"/>\\n      <vstem pos=\"51\" width=\"53\"/>\\n      <vstem pos=\"387\" width=\"57\"/>\\n      <vstem pos=\"409\" width=\"52\"/>\\n    </hintset>\\n  </hintSetList>\\n  </data>'
Ntp3
s."
EndChar

StartChar: nine
Encoding: 25 57 25
GlifName: nine
Width: 524
VWidth: 0
Flags: W
LayerCount: 2
Back
Fore
SplineSet
404 376 m 256
NamedP: "hr00"
 404 288 339 234 232 234 c 256
 130 234 79 285 79 386 c 256
 79 431 94 467 121 495 c 256
 148 522 186 537 237 537 c 256
 348 537 404 483 404 376 c 256
NamedP: "hr00"
470 307 m 256
 470 492 394 585 241 585 c 256
 100 585 27 500 27 379 c 256
 27 332 39 290 66 254 c 256
 102 206 154 184 220 184 c 256
 322 184 387 212 416 268 c 257
 416 200 401 146 374 105 c 256
 343 59 299 36 241 36 c 256
 159 36 111 66 97 126 c 256
 92 149 82 160 65 160 c 256
 50 160 42 151 42 132 c 256
 42 103 56 76 82 47 c 256
 118 8 166 -13 229 -13 c 256
 308 -13 366 9 404 54 c 256
 448 106 470 190 470 307 c 256
EndSplineSet
PickledDataWithLists: "(dp1
S'com.adobe.type.autohint'
p2
(S'data'
S'<data>\\n  <hintSetList>\\n    <hintset pointTag=\"hr00\">\\n      <hstem pos=\"-13\" width=\"49\"/>\\n      <hstem pos=\"184\" width=\"50\"/>\\n      <hstem pos=\"537\" width=\"48\"/>\\n      <vstem pos=\"27\" width=\"52\"/>\\n      <vstem pos=\"404\" width=\"66\"/>\\n    </hintset>\\n  </hintSetList>\\n  </data>'
Ntp3
s."
EndChar

StartChar: colon
Encoding: 26 58 26
GlifName: colon
Width: 158
VWidth: 0
Flags: W
LayerCount: 2
Back
Fore
SplineSet
134 33 m 256
NamedP: "hr00"
 134 61 112 80 84 80 c 256
 55 80 36 61 36 33 c 256
 36 4 59 -13 84 -13 c 256
 111 -13 134 8 134 33 c 256
NamedP: "hr00"
134 349 m 256
 134 374 112 395 84 395 c 256
 52 395 36 380 36 349 c 256
 36 321 59 302 84 302 c 256
 111 302 134 324 134 349 c 256
EndSplineSet
PickledDataWithLists: "(dp1
S'com.adobe.type.autohint'
p2
(S'data'
S'<data>\\n  <hintSetList>\\n    <hintset pointTag=\"hr00\">\\n      <hstem pos=\"-13\" width=\"93\"/>\\n      <hstem pos=\"302\" width=\"93\"/>\\n      <vstem pos=\"36\" width=\"98\"/>\\n    </hintset>\\n  </hintSetList>\\n  </data>'
Ntp3
s."
EndChar

StartChar: semicolon
Encoding: 27 59 27
GlifName: semicolon
Width: 149
VWidth: 0
Flags: W
LayerCount: 2
Back
Fore
SplineSet
128 29 m 256
NamedP: "hr00"
 128 59 112 74 81 74 c 256
 52 74 38 60 38 33 c 256
 38 2 52 -12 79 -9 c 257
 78 -20 73 -32 61 -44 c 256
 39 -66 28 -76 28 -77 c 256
 28 -94 48 -104 61 -95 c 257
 108 -71 128 -27 128 29 c 256
NamedP: "hr00"
134 349 m 256
 134 374 114 395 85 395 c 256
 54 395 38 380 38 349 c 256
 38 321 60 302 85 302 c 256
 112 302 134 324 134 349 c 256
EndSplineSet
PickledDataWithLists: "(dp1
S'com.adobe.type.autohint'
p2
(S'data'
S'<data>\\n  <hintSetList>\\n    <hintset pointTag=\"hr00\">\\n      <hstem pos=\"12\" width=\"-21\"/>\\n      <hstem pos=\"-9\" width=\"83\"/>\\n      <hstem pos=\"302\" width=\"93\"/>\\n      <vstem pos=\"38\" width=\"90\"/>\\n      <vstem pos=\"38\" width=\"96\"/>\\n    </hintset>\\n  </hintSetList>\\n  </data>'
Ntp3
s."
EndChar

StartChar: less
Encoding: 28 60 28
GlifName: less
Width: 717
VWidth: 0
Flags: W
LayerCount: 2
Back
Fore
SplineSet
628 491 m 257
NamedP: "hr00"
 110 277 l 257
 110 237 l 257
 628 24 l 257
 628 86 l 257
 208 256 l 257
 628 428 l 257
 628 491 l 257
NamedP: "hr00"
EndSplineSet
PickledDataWithLists: "(dp1
S'com.adobe.type.autohint'
p2
(S'data'
S'<data>\\n  <hintSetList>\\n    <hintset pointTag=\"hr00\">\\n      <hstem pos=\"24\" width=\"467\"/>\\n      <vstem pos=\"110\" width=\"518\"/>\\n    </hintset>\\n  </hintSetList>\\n  </data>'
Ntp3
s."
EndChar

StartChar: equal
Encoding: 29 61 29
GlifName: equal
Width: 450
VWidth: 0
Flags: W
LayerCount: 2
Back
Fore
SplineSet
55 151 m 258
NamedP: "hr00"
 36 151 27 141 27 122 c 256
 27 108 35 101 50 101 c 258
 374 101 l 258
 387 101 394 109 394 125 c 256
 394 142 389 151 379 151 c 258
 55 151 l 258
NamedP: "hr00"
55 333 m 258
 36 333 27 324 27 307 c 256
 27 293 35 286 50 286 c 258
 374 286 l 258
 387 286 394 294 394 310 c 256
 394 325 389 333 379 333 c 258
 55 333 l 258
EndSplineSet
PickledDataWithLists: "(dp1
S'com.adobe.type.autohint'
p2
(S'data'
S'<data>\\n  <hintSetList>\\n    <hintset pointTag=\"hr00\">\\n      <hstem pos=\"101\" width=\"50\"/>\\n      <hstem pos=\"286\" width=\"47\"/>\\n      <vstem pos=\"27\" width=\"367\"/>\\n    </hintset>\\n  </hintSetList>\\n  </data>'
Ntp3
s."
EndChar

StartChar: greater
Encoding: 30 62 30
GlifName: greater
Width: 717
VWidth: 0
Flags: W
LayerCount: 2
Back
Fore
SplineSet
110 491 m 257
NamedP: "hr00"
 110 428 l 257
 531 256 l 257
 110 86 l 257
 110 24 l 257
 628 237 l 257
 628 277 l 257
 110 491 l 257
NamedP: "hr00"
EndSplineSet
PickledDataWithLists: "(dp1
S'com.adobe.type.autohint'
p2
(S'data'
S'<data>\\n  <hintSetList>\\n    <hintset pointTag=\"hr00\">\\n      <hstem pos=\"24\" width=\"467\"/>\\n      <vstem pos=\"110\" width=\"518\"/>\\n    </hintset>\\n  </hintSetList>\\n  </data>'
Ntp3
s."
EndChar

StartChar: question
Encoding: 31 63 31
GlifName: question
Width: 485
VWidth: 0
Flags: W
LayerCount: 2
Back
Fore
SplineSet
295 29 m 256
NamedP: "hr00"
 295 58 281 72 253 72 c 256
 224 72 210 58 210 29 c 256
 210 1 224 -13 252 -13 c 256
 277 -13 295 4 295 29 c 256
NamedP: "hr00"
454 425 m 256
 454 473 440 510 414 539 c 256
 378 577 324 597 249 597 c 256
 121 597 51 512 51 384 c 256
 51 367 61 346 74 346 c 256
 94 346 104 356 104 377 c 256
 104 480 146 541 257 541 c 256
 362 541 407 502 407 414 c 256
 407 376 391 349 360 332 c 256
 343 322 317 308 280 291 c 257
 245 263 226 205 226 141 c 256
 226 124 233 108 252 108 c 256
 271 108 280 118 280 138 c 257
 277 170 l 257
 277 219 306 254 365 276 c 256
 424 298 454 348 454 425 c 256
EndSplineSet
PickledDataWithLists: "(dp1
S'com.adobe.type.autohint'
p2
(S'data'
S'<data>\\n  <hintSetList>\\n    <hintset pointTag=\"hr00\">\\n      <hstem pos=\"-13\" width=\"85\"/>\\n      <hstem pos=\"541\" width=\"56\"/>\\n      <vstem pos=\"51\" width=\"53\"/>\\n      <vstem pos=\"210\" width=\"85\"/>\\n      <vstem pos=\"226\" width=\"51\"/>\\n      <vstem pos=\"407\" width=\"47\"/>\\n    </hintset>\\n  </hintSetList>\\n  </data>'
Ntp3
s."
EndChar

StartChar: at
Encoding: 32 64 32
GlifName: at
Width: 642
VWidth: 0
Flags: W
LayerCount: 2
Back
Fore
SplineSet
406 280 m 256
NamedP: "hr00"
 406 243 397 211 380 184 c 256
 361 155 336 140 305 140 c 256
 256 140 222 176 222 237 c 256
 222 273 232 304 253 329 c 256
 274 354 299 367 330 367 c 256
 375 367 406 333 406 280 c 256
NamedP: "hr00"
425 353 m 257
 421 365 414 376 403 387 c 256
 385 406 360 416 327 416 c 256
 281 416 244 398 215 361 c 256
 186 325 172 283 172 236 c 256
 172 147 223 91 296 91 c 256
 347 91 382 117 405 149 c 257
 405 130 413 114 430 102 c 256
 440 95 454 91 471 91 c 256
 510 91 543 112 571 154 c 256
 600 196 614 246 614 305 c 256
 614 385 587 449 534 497 c 256
 483 544 416 567 335 567 c 256
 247 567 174 539 115 482 c 256
 57 425 28 352 28 262 c 256
 28 180 52 111 99 56 c 256
 156 -9 238 -41 344 -41 c 256
 415 -41 482 -27 545 2 c 257
 534 47 l 257
 509 36 485 28 461 21 c 256
 424 11 385 6 344 6 c 256
 253 6 184 35 137 92 c 256
 99 137 80 194 80 261 c 256
 80 334 104 395 153 444 c 256
 202 493 262 517 335 517 c 256
 400 517 454 499 496 463 c 256
 540 425 562 372 562 305 c 256
 562 260 553 221 534 188 c 256
 516 156 495 140 471 140 c 256
 455 140 446 152 446 169 c 258
 446 175 l 258
 446 179 452 209 453 216 c 258
 487 405 l 257
 435 405 l 257
 425 353 l 257
EndSplineSet
PickledDataWithLists: "(dp1
S'com.adobe.type.autohint'
p2
(S'data'
S'<data>\\n  <hintSetList>\\n    <hintset pointTag=\"hr00\">\\n      <hstem pos=\"-41\" width=\"47\"/>\\n      <hstem pos=\"91\" width=\"49\"/>\\n      <hstem pos=\"367\" width=\"49\"/>\\n      <hstem pos=\"405\" width=\"-20\"/>\\n      <hstem pos=\"517\" width=\"50\"/>\\n      <vstem pos=\"28\" width=\"52\"/>\\n      <vstem pos=\"172\" width=\"50\"/>\\n      <vstem pos=\"405\" width=\"41\"/>\\n      <vstem pos=\"562\" width=\"52\"/>\\n    </hintset>\\n  </hintSetList>\\n  </data>'
Ntp3
s."
EndChar

StartChar: A
Encoding: 33 65 33
GlifName: A_
Width: 549
VWidth: 0
Flags: W
LayerCount: 2
Back
Fore
SplineSet
380 232 m 257
NamedP: "hr00"
 165 232 l 257
 273 486 l 257
 380 232 l 257
NamedP: "hr00"
64 -1 m 257
 145 183 l 257
 401 183 l 257
 480 -1 l 257
 539 -1 l 257
 303 546 l 257
 243 546 l 257
 9 -1 l 257
 64 -1 l 257
EndSplineSet
PickledDataWithLists: "(dp1
S'com.adobe.type.autohint'
p2
(S'data'
S'<data>\\n  <hintSetList>\\n    <hintset pointTag=\"hr00\">\\n      <hstem pos=\"20\" width=\"-21\"/>\\n      <hstem pos=\"183\" width=\"49\"/>\\n      <hstem pos=\"486\" width=\"60\"/>\\n      <hstem pos=\"546\" width=\"-20\"/>\\n      <vstem pos=\"9\" width=\"530\"/>\\n    </hintset>\\n  </hintSetList>\\n  </data>'
Ntp3
s."
EndChar

StartChar: B
Encoding: 34 66 34
GlifName: B_
Width: 425
VWidth: 0
Flags: W
LayerCount: 2
Back
Fore
SplineSet
182 498 m 258
NamedP: "hr00"
 236 498 273 486 294 463 c 256
 310 444 317 427 317 403 c 256
 317 370 300 341 269 325 c 256
 238 309 221 309 178 309 c 258
 108 309 l 257
 108 498 l 257
 182 498 l 258
NamedP: "hr00"
176 261 m 258
 239 261 255 259 282 248 c 256
 321 233 348 196 348 155 c 256
 348 114 323 75 291 62 c 256
 259 49 238 47 185 47 c 258
 108 47 l 257
 108 261 l 257
 176 261 l 258
205 -1 m 258
 262 -1 299 4 339 29 c 256
 379 54 401 104 401 155 c 256
 401 216 366 266 309 290 c 257
 327 305 340 318 348 328 c 256
 363 347 370 371 370 400 c 256
 370 488 306 546 191 546 c 258
 54 546 l 257
 54 -1 l 257
 205 -1 l 258
EndSplineSet
PickledDataWithLists: "(dp1
S'com.adobe.type.autohint'
p2
(S'data'
S'<data>\\n  <hintSetList>\\n    <hintset pointTag=\"hr00\">\\n      <hstem pos=\"-1\" width=\"48\"/>\\n      <hstem pos=\"261\" width=\"48\"/>\\n      <hstem pos=\"498\" width=\"48\"/>\\n      <vstem pos=\"54\" width=\"54\"/>\\n      <vstem pos=\"317\" width=\"53\"/>\\n      <vstem pos=\"348\" width=\"53\"/>\\n    </hintset>\\n  </hintSetList>\\n  </data>'
Ntp3
s."
EndChar

StartChar: C
Encoding: 35 67 35
GlifName: C_
Width: 602
VWidth: 0
Flags: W
LayerCount: 2
Back
Fore
SplineSet
509 141 m 257
NamedP: "hr00"
 460 76 390 37 317 37 c 256
 256 37 202 60 155 106 c 256
 108 153 85 208 85 271 c 256
 85 333 108 388 153 435 c 256
 198 482 253 506 316 506 c 256
 345 506 373 501 401 490 c 256
 446 473 481 445 507 407 c 257
 567 407 l 257
 554 440 527 471 486 500 c 256
 436 537 380 555 317 555 c 256
 238 555 170 528 114 473 c 256
 59 419 31 352 31 271 c 256
 31 192 59 125 116 71 c 256
 173 17 240 -10 317 -10 c 256
 366 -10 412 1 455 25 c 256
 504 52 542 92 569 141 c 257
 509 141 l 257
NamedP: "hr00"
EndSplineSet
PickledDataWithLists: "(dp1
S'com.adobe.type.autohint'
p2
(S'data'
S'<data>\\n  <hintSetList>\\n    <hintset pointTag=\"hr00\">\\n      <hstem pos=\"-10\" width=\"47\"/>\\n      <hstem pos=\"506\" width=\"49\"/>\\n      <vstem pos=\"31\" width=\"54\"/>\\n    </hintset>\\n  </hintSetList>\\n  </data>'
Ntp3
s."
EndChar

StartChar: D
Encoding: 36 68 36
GlifName: D_
Width: 551
VWidth: 0
Flags: W
LayerCount: 2
Back
Fore
SplineSet
188 498 m 258
NamedP: "hr00"
 268 498 322 487 369 454 c 256
 426 414 463 343 463 274 c 256
 463 240 457 209 444 180 c 256
 429 147 406 117 376 92 c 257
 347 72 315 58 278 52 c 256
 257 48 227 47 188 47 c 258
 108 47 l 257
 108 498 l 257
 188 498 l 258
NamedP: "hr00"
214 -1 m 258
 281 -1 349 16 392 43 c 256
 439 72 472 112 493 163 c 256
 508 199 516 235 516 271 c 256
 516 311 508 351 491 390 c 256
 470 437 436 473 392 501 c 256
 347 529 279 546 214 546 c 258
 54 546 l 257
 54 -1 l 257
 214 -1 l 258
EndSplineSet
PickledDataWithLists: "(dp1
S'com.adobe.type.autohint'
p2
(S'data'
S'<data>\\n  <hintSetList>\\n    <hintset pointTag=\"hr00\">\\n      <hstem pos=\"-1\" width=\"48\"/>\\n      <hstem pos=\"498\" width=\"48\"/>\\n      <vstem pos=\"54\" width=\"54\"/>\\n      <vstem pos=\"463\" width=\"53\"/>\\n    </hintset>\\n  </hintSetList>\\n  </data>'
Ntp3
s."
EndChar

StartChar: E
Encoding: 37 69 37
GlifName: E_
Width: 397
VWidth: 0
Flags: W
LayerCount: 2
Back
Fore
SplineSet
350 -1 m 257
NamedP: "hr00"
 350 47 l 257
 105 47 l 257
 105 251 l 257
 342 251 l 257
 342 299 l 257
 105 299 l 257
 105 498 l 257
 350 498 l 257
 350 546 l 257
 51 546 l 257
 51 -1 l 257
 350 -1 l 257
NamedP: "hr00"
EndSplineSet
PickledDataWithLists: "(dp1
S'com.adobe.type.autohint'
p2
(S'data'
S'<data>\\n  <hintSetList>\\n    <hintset pointTag=\"hr00\">\\n      <hstem pos=\"-1\" width=\"48\"/>\\n      <hstem pos=\"251\" width=\"48\"/>\\n      <hstem pos=\"498\" width=\"48\"/>\\n      <vstem pos=\"51\" width=\"54\"/>\\n    </hintset>\\n  </hintSetList>\\n  </data>'
Ntp3
s."
EndChar

StartChar: F
Encoding: 38 70 38
GlifName: F_
Width: 359
VWidth: 0
Flags: W
LayerCount: 2
Back
Fore
SplineSet
105 -1 m 257
NamedP: "hr00"
 105 249 l 257
 319 249 l 257
 319 298 l 257
 105 298 l 257
 105 498 l 257
 328 498 l 257
 328 546 l 257
 51 546 l 257
 51 -1 l 257
 105 -1 l 257
NamedP: "hr00"
EndSplineSet
PickledDataWithLists: "(dp1
S'com.adobe.type.autohint'
p2
(S'data'
S'<data>\\n  <hintSetList>\\n    <hintset pointTag=\"hr00\">\\n      <hstem pos=\"20\" width=\"-21\"/>\\n      <hstem pos=\"249\" width=\"49\"/>\\n      <hstem pos=\"498\" width=\"48\"/>\\n      <vstem pos=\"51\" width=\"54\"/>\\n    </hintset>\\n  </hintSetList>\\n  </data>'
Ntp3
s."
EndChar

StartChar: G
Encoding: 39 71 39
GlifName: G_
Width: 647
VWidth: 0
Flags: W
LayerCount: 2
Back
Fore
SplineSet
240 201 m 257
NamedP: "hr00"
 546 201 l 257
 536 158 512 122 474 91 c 256
 429 55 380 37 326 37 c 256
 256 37 197 61 150 108 c 256
 105 154 83 208 83 271 c 256
 83 334 106 389 152 436 c 256
 198 483 255 507 323 507 c 256
 365 507 405 497 444 475 c 256
 477 457 501 431 518 401 c 257
 581 401 l 257
 568 436 540 470 499 500 c 256
 447 538 388 556 322 556 c 256
 237 556 168 525 111 467 c 256
 57 411 29 347 29 272 c 256
 29 195 58 129 115 73 c 256
 172 18 242 -10 323 -10 c 256
 396 -10 461 11 519 57 c 256
 582 107 613 172 613 249 c 257
 240 249 l 257
 240 201 l 257
NamedP: "hr00"
EndSplineSet
PickledDataWithLists: "(dp1
S'com.adobe.type.autohint'
p2
(S'data'
S'<data>\\n  <hintSetList>\\n    <hintset pointTag=\"hr00\">\\n      <hstem pos=\"-10\" width=\"47\"/>\\n      <hstem pos=\"201\" width=\"48\"/>\\n      <hstem pos=\"507\" width=\"49\"/>\\n      <vstem pos=\"29\" width=\"54\"/>\\n    </hintset>\\n  </hintSetList>\\n  </data>'
Ntp3
s."
EndChar

StartChar: H
Encoding: 40 72 40
GlifName: H_
Width: 504
VWidth: 0
Flags: W
LayerCount: 2
Back
Fore
SplineSet
110 -1 m 257
NamedP: "hr00"
 110 255 l 257
 395 255 l 257
 395 -1 l 257
 449 -1 l 257
 449 546 l 257
 395 546 l 257
 395 305 l 257
 110 305 l 257
 110 546 l 257
 56 546 l 257
 56 -1 l 257
 110 -1 l 257
NamedP: "hr00"
EndSplineSet
PickledDataWithLists: "(dp1
S'com.adobe.type.autohint'
p2
(S'data'
S'<data>\\n  <hintSetList>\\n    <hintset pointTag=\"hr00\">\\n      <hstem pos=\"20\" width=\"-21\"/>\\n      <hstem pos=\"255\" width=\"50\"/>\\n      <hstem pos=\"546\" width=\"-20\"/>\\n      <vstem pos=\"56\" width=\"54\"/>\\n      <vstem pos=\"395\" width=\"54\"/>\\n    </hintset>\\n  </hintSetList>\\n  </data>'
Ntp3
s."
EndChar

StartChar: I
Encoding: 41 73 41
GlifName: I_
Width: 166
VWidth: 0
Flags: W
LayerCount: 2
Back
Fore
SplineSet
110 -1 m 257
NamedP: "hr00"
 110 546 l 257
 56 546 l 257
 56 -1 l 257
 110 -1 l 257
NamedP: "hr00"
EndSplineSet
PickledDataWithLists: "(dp1
S'com.adobe.type.autohint'
p2
(S'data'
S'<data>\\n  <hintSetList>\\n    <hintset pointTag=\"hr00\">\\n      <hstem pos=\"20\" width=\"-21\"/>\\n      <hstem pos=\"546\" width=\"-20\"/>\\n      <vstem pos=\"56\" width=\"54\"/>\\n    </hintset>\\n  </hintSetList>\\n  </data>'
Ntp3
s."
EndChar

StartChar: J
Encoding: 42 74 42
GlifName: J_
Width: 358
VWidth: 0
Flags: W
LayerCount: 2
Back
Fore
SplineSet
243 546 m 257
NamedP: "hr00"
 243 169 l 258
 243 130 239 102 230 85 c 257
 217 53 192 37 153 37 c 256
 128 37 106 45 88 61 c 256
 67 78 57 101 57 128 c 257
 4 128 l 257
 4 83 21 48 55 21 c 256
 82 0 115 -10 152 -10 c 256
 212 -10 262 19 282 68 c 256
 295 101 297 124 297 172 c 258
 297 546 l 257
 243 546 l 257
NamedP: "hr00"
EndSplineSet
PickledDataWithLists: "(dp1
S'com.adobe.type.autohint'
p2
(S'data'
S'<data>\\n  <hintSetList>\\n    <hintset pointTag=\"hr00\">\\n      <hstem pos=\"-10\" width=\"47\"/>\\n      <hstem pos=\"546\" width=\"-20\"/>\\n      <vstem pos=\"4\" width=\"53\"/>\\n      <vstem pos=\"243\" width=\"54\"/>\\n    </hintset>\\n  </hintSetList>\\n  </data>'
Ntp3
s."
EndChar

StartChar: K
Encoding: 43 75 43
GlifName: K_
Width: 437
VWidth: 0
Flags: W
LayerCount: 2
Back
Fore
SplineSet
113 -1 m 257
NamedP: "hr00"
 113 148 l 257
 184 237 l 257
 368 -1 l 257
 436 -1 l 257
 219 278 l 257
 435 546 l 257
 366 546 l 257
 113 230 l 257
 113 546 l 257
 59 546 l 257
 59 -1 l 257
 113 -1 l 257
NamedP: "hr00"
EndSplineSet
PickledDataWithLists: "(dp1
S'com.adobe.type.autohint'
p2
(S'data'
S'<data>\\n  <hintSetList>\\n    <hintset pointTag=\"hr00\">\\n      <hstem pos=\"20\" width=\"-21\"/>\\n      <hstem pos=\"546\" width=\"-20\"/>\\n      <vstem pos=\"59\" width=\"54\"/>\\n    </hintset>\\n  </hintSetList>\\n  </data>'
Ntp3
s."
EndChar

StartChar: L
Encoding: 44 76 44
GlifName: L_
Width: 342
VWidth: 0
Flags: W
LayerCount: 2
Back
Fore
SplineSet
339 -1 m 257
NamedP: "hr00"
 339 47 l 257
 113 47 l 257
 113 546 l 257
 59 546 l 257
 59 -1 l 257
 339 -1 l 257
NamedP: "hr00"
EndSplineSet
PickledDataWithLists: "(dp1
S'com.adobe.type.autohint'
p2
(S'data'
S'<data>\\n  <hintSetList>\\n    <hintset pointTag=\"hr00\">\\n      <hstem pos=\"-1\" width=\"48\"/>\\n      <hstem pos=\"546\" width=\"-20\"/>\\n      <vstem pos=\"59\" width=\"54\"/>\\n    </hintset>\\n  </hintSetList>\\n  </data>'
Ntp3
s."
EndChar

StartChar: M
Encoding: 45 77 45
GlifName: M_
Width: 680
VWidth: 0
Flags: W
LayerCount: 2
Back
Fore
SplineSet
110 -1 m 257
NamedP: "hr00"
 111 490 l 257
 316 -1 l 257
 362 -1 l 257
 570 489 l 257
 570 -1 l 257
 624 -1 l 257
 624 546 l 257
 540 546 l 257
 340 78 l 257
 140 546 l 257
 56 546 l 257
 56 -1 l 257
 110 -1 l 257
NamedP: "hr00"
EndSplineSet
PickledDataWithLists: "(dp1
S'com.adobe.type.autohint'
p2
(S'data'
S'<data>\\n  <hintSetList>\\n    <hintset pointTag=\"hr00\">\\n      <hstem pos=\"20\" width=\"-21\"/>\\n      <hstem pos=\"-1\" width=\"79\"/>\\n      <hstem pos=\"490\" width=\"56\"/>\\n      <vstem pos=\"56\" width=\"54\"/>\\n      <vstem pos=\"570\" width=\"54\"/>\\n    </hintset>\\n  </hintSetList>\\n  </data>'
Ntp3
s."
EndChar

StartChar: N
Encoding: 46 78 46
GlifName: N_
Width: 549
VWidth: 0
Flags: W
LayerCount: 2
Back
Fore
SplineSet
109 7 m 257
NamedP: "hr00"
 110 490 l 257
 437 7 l 257
 491 7 l 257
 491 555 l 257
 438 555 l 257
 435 99 l 257
 129 555 l 257
 55 555 l 257
 55 7 l 257
 109 7 l 257
NamedP: "hr00"
EndSplineSet
PickledDataWithLists: "(dp1
S'com.adobe.type.autohint'
p2
(S'data'
S'<data>\\n  <hintSetList>\\n    <hintset pointTag=\"hr00\">\\n      <hstem pos=\"490\" width=\"65\"/>\\n      <hstem pos=\"555\" width=\"-20\"/>\\n      <vstem pos=\"55\" width=\"54\"/>\\n      <vstem pos=\"436\" width=\"54\"/>\\n    </hintset>\\n  </hintSetList>\\n  </data>'
Ntp3
s."
EndChar

StartChar: O
Encoding: 47 79 47
GlifName: O_
Width: 643
VWidth: 0
Flags: W
LayerCount: 2
Back
Fore
SplineSet
85 269 m 256
NamedP: "hr00"
 85 336 108 393 155 438 c 256
 202 484 257 507 321 507 c 256
 385 507 439 484 486 437 c 256
 533 390 556 336 556 271 c 256
 556 207 533 152 486 106 c 256
 440 60 385 37 321 37 c 256
 256 37 201 59 154 106 c 256
 107 153 85 207 85 269 c 256
NamedP: "hr00"
31 269 m 256
 31 192 60 126 117 71 c 256
 174 17 242 -10 321 -10 c 256
 399 -10 467 17 524 71 c 256
 582 126 611 193 611 272 c 256
 611 352 582 419 524 474 c 256
 467 529 399 556 321 556 c 256
 244 556 178 530 121 477 c 256
 61 422 31 352 31 269 c 256
EndSplineSet
PickledDataWithLists: "(dp1
S'com.adobe.type.autohint'
p2
(S'data'
S'<data>\\n  <hintSetList>\\n    <hintset pointTag=\"hr00\">\\n      <hstem pos=\"-10\" width=\"47\"/>\\n      <hstem pos=\"507\" width=\"49\"/>\\n      <vstem pos=\"31\" width=\"54\"/>\\n      <vstem pos=\"556\" width=\"55\"/>\\n    </hintset>\\n  </hintSetList>\\n  </data>'
Ntp3
s."
EndChar

StartChar: P
Encoding: 48 80 48
GlifName: P_
Width: 439
VWidth: 0
Flags: W
LayerCount: 2
Back
Fore
SplineSet
189 506 m 258
NamedP: "hr00"
 248 506 271 504 299 491 c 256
 342 471 363 434 363 391 c 256
 363 346 342 313 299 291 c 256
 271 277 256 276 209 276 c 258
 189 276 l 257
 109 276 l 257
 109 506 l 257
 189 506 l 258
NamedP: "hr00"
109 7 m 257
 109 228 l 257
 207 228 l 258
 282 228 316 239 348 260 c 256
 391 289 416 334 416 391 c 256
 416 447 392 494 348 523 c 256
 316 544 279 555 207 555 c 258
 55 555 l 257
 55 7 l 257
 109 7 l 257
EndSplineSet
PickledDataWithLists: "(dp1
S'com.adobe.type.autohint'
p2
(S'data'
S'<data>\\n  <hintSetList>\\n    <hintset pointTag=\"hr00\">\\n      <hstem pos=\"228\" width=\"48\"/>\\n      <hstem pos=\"506\" width=\"49\"/>\\n      <vstem pos=\"55\" width=\"54\"/>\\n      <vstem pos=\"363\" width=\"53\"/>\\n    </hintset>\\n  </hintSetList>\\n  </data>'
Ntp3
s."
EndChar

StartChar: Q
Encoding: 49 81 49
GlifName: Q_
Width: 645
VWidth: 0
Flags: W
LayerCount: 2
Back
Fore
SplineSet
92 205 m 257
NamedP: "hr00"
 88 225 83 241 83 268 c 256
 83 337 107 397 159 444 c 256
 205 487 261 507 326 507 c 256
 391 507 447 484 494 438 c 256
 541 393 565 336 565 269 c 256
 565 212 541 152 489 103 c 257
 458 130 433 150 416 161 c 256
 387 181 358 195 327 205 c 256
 292 216 252 223 208 223 c 256
 182 223 159 221 138 216 c 257
 127 215 112 211 92 205 c 257
NamedP: "hr00"
115 157 m 257
 143 170 159 174 200 174 c 256
 260 174 324 159 372 130 c 256
 379 125 392 116 411 101 c 256
 419 94 431 85 447 74 c 257
 411 49 374 37 326 37 c 256
 282 37 241 48 204 69 c 256
 164 91 134 120 115 157 c 257
609 37 m 257
 594 37 582 38 573 41 c 256
 558 46 543 55 528 68 c 257
 589 124 620 195 620 268 c 256
 620 349 592 418 535 473 c 256
 479 528 409 556 324 556 c 256
 236 556 164 526 108 467 c 256
 55 412 29 346 29 270 c 256
 29 192 58 126 115 71 c 256
 172 17 242 -10 323 -10 c 256
 382 -10 440 3 488 36 c 257
 508 19 524 7 535 2 c 256
 555 -6 580 -10 609 -10 c 257
 609 37 l 257
EndSplineSet
PickledDataWithLists: "(dp1
S'com.adobe.type.autohint'
p2
(S'data'
S'<data>\\n  <hintSetList>\\n    <hintset pointTag=\"hr00\">\\n      <hstem pos=\"-10\" width=\"47\"/>\\n      <hstem pos=\"174\" width=\"49\"/>\\n      <hstem pos=\"507\" width=\"49\"/>\\n      <vstem pos=\"29\" width=\"54\"/>\\n      <vstem pos=\"565\" width=\"55\"/>\\n    </hintset>\\n  </hintSetList>\\n  </data>'
Ntp3
s."
EndChar

StartChar: R
Encoding: 50 82 50
GlifName: R_
Width: 449
VWidth: 0
Flags: W
LayerCount: 2
Back
Fore
SplineSet
105 -1 m 257
NamedP: "hr00"
 105 498 l 257
 202 498 l 258
 246 498 277 493 310 476 c 256
 345 459 368 414 368 371 c 256
 368 319 334 270 277 254 c 256
 260 249 221 246 160 246 c 257
 346 -1 l 257
 414 -1 l 257
 258 203 l 257
 309 203 350 221 381 256 c 256
 408 287 422 325 422 369 c 256
 422 438 383 497 325 525 c 256
 296 539 258 546 190 546 c 258
 51 546 l 257
 51 -1 l 257
 105 -1 l 257
NamedP: "hr00"
EndSplineSet
PickledDataWithLists: "(dp1
S'com.adobe.type.autohint'
p2
(S'data'
S'<data>\\n  <hintSetList>\\n    <hintset pointTag=\"hr00\">\\n      <hstem pos=\"20\" width=\"-21\"/>\\n      <hstem pos=\"203\" width=\"43\"/>\\n      <hstem pos=\"498\" width=\"48\"/>\\n      <vstem pos=\"51\" width=\"54\"/>\\n      <vstem pos=\"368\" width=\"54\"/>\\n    </hintset>\\n  </hintSetList>\\n  </data>'
Ntp3
s."
EndChar

StartChar: S
Encoding: 51 83 51
GlifName: S_
Width: 367
VWidth: 0
Flags: W
LayerCount: 2
Back
Fore
SplineSet
14 151 m 257
NamedP: "hr00"
 14 96 33 53 71 24 c 256
 102 0 139 -10 183 -10 c 256
 230 -10 269 6 300 37 c 256
 331 68 347 106 347 149 c 256
 347 225 302 283 214 307 c 256
 167 320 136 333 121 343 c 256
 96 358 83 381 83 410 c 256
 83 462 122 507 183 507 c 256
 235 507 281 463 281 407 c 257
 334 407 l 257
 334 448 320 483 291 512 c 256
 262 541 226 556 183 556 c 256
 138 556 101 542 72 514 c 256
 43 486 29 451 29 409 c 256
 29 362 46 326 81 301 c 256
 97 290 127 277 170 264 c 256
 205 254 231 244 247 233 c 256
 278 212 293 184 293 147 c 256
 293 115 282 89 260 68 c 256
 238 47 212 37 183 37 c 256
 115 37 68 83 68 151 c 257
 14 151 l 257
NamedP: "hr00"
EndSplineSet
PickledDataWithLists: "(dp1
S'com.adobe.type.autohint'
p2
(S'data'
S'<data>\\n  <hintSetList>\\n    <hintset pointTag=\"hr00\">\\n      <hstem pos=\"-10\" width=\"47\"/>\\n      <hstem pos=\"507\" width=\"49\"/>\\n      <vstem pos=\"14\" width=\"54\"/>\\n      <vstem pos=\"29\" width=\"54\"/>\\n      <vstem pos=\"281\" width=\"53\"/>\\n      <vstem pos=\"293\" width=\"54\"/>\\n    </hintset>\\n  </hintSetList>\\n  </data>'
Ntp3
s."
EndChar

StartChar: T
Encoding: 52 84 52
GlifName: T_
Width: 317
VWidth: 0
Flags: W
LayerCount: 2
Back
Fore
SplineSet
183 -1 m 257
NamedP: "hr00"
 183 498 l 257
 309 498 l 257
 309 546 l 257
 4 546 l 257
 4 498 l 257
 130 498 l 257
 130 -1 l 257
 183 -1 l 257
NamedP: "hr00"
EndSplineSet
PickledDataWithLists: "(dp1
S'com.adobe.type.autohint'
p2
(S'data'
S'<data>\\n  <hintSetList>\\n    <hintset pointTag=\"hr00\">\\n      <hstem pos=\"20\" width=\"-21\"/>\\n      <hstem pos=\"498\" width=\"48\"/>\\n      <vstem pos=\"130\" width=\"53\"/>\\n    </hintset>\\n  </hintSetList>\\n  </data>'
Ntp3
s."
EndChar

StartChar: U
Encoding: 53 85 53
GlifName: U_
Width: 485
VWidth: 0
Flags: W
LayerCount: 2
Back
Fore
SplineSet
55 205 m 258
NamedP: "hr00"
 55 160 62 121 76 90 c 256
 93 54 118 26 154 8 c 256
 180 -5 210 -10 241 -10 c 256
 272 -10 302 -5 330 9 c 256
 366 27 392 55 407 90 c 256
 421 122 427 158 427 205 c 258
 427 546 l 257
 375 546 l 257
 375 205 l 258
 375 161 368 129 355 105 c 256
 340 79 320 60 294 48 c 256
 279 41 262 37 241 37 c 256
 221 37 203 41 187 48 c 256
 162 60 142 79 127 106 c 256
 115 128 109 161 109 205 c 258
 109 546 l 257
 55 546 l 257
 55 205 l 258
NamedP: "hr00"
EndSplineSet
PickledDataWithLists: "(dp1
S'com.adobe.type.autohint'
p2
(S'data'
S'<data>\\n  <hintSetList>\\n    <hintset pointTag=\"hr00\">\\n      <hstem pos=\"-10\" width=\"47\"/>\\n      <hstem pos=\"546\" width=\"-20\"/>\\n      <vstem pos=\"55\" width=\"54\"/>\\n      <vstem pos=\"375\" width=\"52\"/>\\n    </hintset>\\n  </hintSetList>\\n  </data>'
Ntp3
s."
EndChar

StartChar: V
Encoding: 54 86 54
GlifName: V_
Width: 520
VWidth: 0
Flags: W
LayerCount: 2
Back
Fore
SplineSet
282 -1 m 257
NamedP: "hr00"
 510 546 l 257
 452 546 l 257
 258 64 l 257
 64 546 l 257
 4 546 l 257
 230 -1 l 257
 282 -1 l 257
NamedP: "hr00"
EndSplineSet
PickledDataWithLists: "(dp1
S'com.adobe.type.autohint'
p2
(S'data'
S'<data>\\n  <hintSetList>\\n    <hintset pointTag=\"hr00\">\\n      <hstem pos=\"20\" width=\"-21\"/>\\n      <hstem pos=\"-1\" width=\"65\"/>\\n      <hstem pos=\"546\" width=\"-20\"/>\\n      <vstem pos=\"4\" width=\"506\"/>\\n    </hintset>\\n  </hintSetList>\\n  </data>'
Ntp3
s."
EndChar

StartChar: W
Encoding: 55 87 55
GlifName: W_
Width: 711
VWidth: 0
Flags: W
LayerCount: 2
Back
Fore
SplineSet
232 -1 m 257
NamedP: "hr00"
 354 449 l 257
 475 -1 l 257
 544 -1 l 257
 701 546 l 257
 646 546 l 257
 511 67 l 257
 378 546 l 257
 328 546 l 257
 196 66 l 257
 61 546 l 257
 6 546 l 257
 161 -1 l 257
 232 -1 l 257
NamedP: "hr00"
EndSplineSet
PickledDataWithLists: "(dp1
S'com.adobe.type.autohint'
p2
(S'data'
S'<data>\\n  <hintSetList>\\n    <hintset pointTag=\"hr00\">\\n      <hstem pos=\"20\" width=\"-21\"/>\\n      <hstem pos=\"-1\" width=\"67\"/>\\n      <hstem pos=\"449\" width=\"97\"/>\\n      <hstem pos=\"546\" width=\"-20\"/>\\n      <vstem pos=\"6\" width=\"695\"/>\\n    </hintset>\\n  </hintSetList>\\n  </data>'
Ntp3
s."
EndChar

StartChar: X
Encoding: 56 88 56
GlifName: X_
Width: 450
VWidth: 0
Flags: W
LayerCount: 2
Back
Fore
SplineSet
67 -1 m 257
NamedP: "hr00"
 225 232 l 257
 379 -1 l 257
 442 -1 l 257
 255 278 l 257
 432 546 l 257
 370 546 l 257
 225 326 l 257
 78 546 l 257
 14 546 l 257
 190 278 l 257
 4 -1 l 257
 67 -1 l 257
NamedP: "hr00"
EndSplineSet
PickledDataWithLists: "(dp1
S'com.adobe.type.autohint'
p2
(S'data'
S'<data>\\n  <hintSetList>\\n    <hintset pointTag=\"hr00\">\\n      <hstem pos=\"20\" width=\"-21\"/>\\n      <hstem pos=\"546\" width=\"-20\"/>\\n      <vstem pos=\"4\" width=\"438\"/>\\n    </hintset>\\n  </hintSetList>\\n  </data>'
Ntp3
s."
EndChar

StartChar: Y
Encoding: 57 89 57
GlifName: Y_
Width: 437
VWidth: 0
Flags: W
LayerCount: 2
Back
Fore
SplineSet
244 7 m 257
NamedP: "hr00"
 244 190 l 257
 437 555 l 257
 377 555 l 257
 216 246 l 257
 61 555 l 257
 0 555 l 257
 190 190 l 257
 190 7 l 257
 244 7 l 257
NamedP: "hr00"
EndSplineSet
PickledDataWithLists: "(dp1
S'com.adobe.type.autohint'
p2
(S'data'
S'<data>\\n  <hintSetList>\\n    <hintset pointTag=\"hr00\">\\n      <hstem pos=\"555\" width=\"-20\"/>\\n      <vstem pos=\"190\" width=\"54\"/>\\n    </hintset>\\n  </hintSetList>\\n  </data>'
Ntp3
s."
EndChar

StartChar: Z
Encoding: 58 90 58
GlifName: Z_
Width: 356
VWidth: 0
Flags: W
LayerCount: 2
Back
Fore
SplineSet
348 -1 m 257
NamedP: "hr00"
 348 47 l 257
 71 47 l 257
 339 497 l 257
 339 546 l 257
 17 546 l 257
 17 498 l 257
 279 498 l 257
 9 48 l 257
 9 -1 l 257
 348 -1 l 257
NamedP: "hr00"
EndSplineSet
PickledDataWithLists: "(dp1
S'com.adobe.type.autohint'
p2
(S'data'
S'<data>\\n  <hintSetList>\\n    <hintset pointTag=\"hr00\">\\n      <hstem pos=\"-1\" width=\"48\"/>\\n      <hstem pos=\"498\" width=\"48\"/>\\n      <vstem pos=\"9\" width=\"339\"/>\\n    </hintset>\\n  </hintSetList>\\n  </data>'
Ntp3
s."
EndChar

StartChar: bracketleft
Encoding: 59 91 59
GlifName: bracketleft
Width: 190
VWidth: 0
Flags: W
LayerCount: 2
Back
Fore
SplineSet
45 -87 m 257
NamedP: "hr00"
 174 -87 l 257
 174 -54 l 257
 92 -54 l 257
 92 -56 l 257
 92 564 l 257
 174 564 l 257
 174 595 l 257
 45 595 l 257
 45 593 l 257
 45 -85 l 257
 45 -87 l 257
NamedP: "hr00"
EndSplineSet
PickledDataWithLists: "(dp1
S'com.adobe.type.autohint'
p2
(S'data'
S'<data>\\n  <hintSetList>\\n    <hintset pointTag=\"hr00\">\\n      <hstem pos=\"-87\" width=\"33\"/>\\n      <hstem pos=\"564\" width=\"31\"/>\\n      <vstem pos=\"45\" width=\"47\"/>\\n    </hintset>\\n  </hintSetList>\\n  </data>'
Ntp3
s."
EndChar

StartChar: backslash
Encoding: 60 92 60
GlifName: backslash
Width: 190
VWidth: 0
Flags: W
LayerCount: 2
Back
Fore
SplineSet
188 -38 m 257
NamedP: "hr00"
 52 595 l 257
 8 595 l 257
 145 -38 l 257
 188 -38 l 257
NamedP: "hr00"
EndSplineSet
PickledDataWithLists: "(dp1
S'com.adobe.type.autohint'
p2
(S'data'
S'<data>\\n  <hintSetList>\\n    <hintset pointTag=\"hr00\">\\n      <hstem pos=\"-38\" width=\"633\"/>\\n      <vstem pos=\"8\" width=\"180\"/>\\n    </hintset>\\n  </hintSetList>\\n  </data>'
Ntp3
s."
EndChar

StartChar: bracketright
Encoding: 61 93 61
GlifName: bracketright
Width: 190
VWidth: 0
Flags: W
LayerCount: 2
Back
Fore
SplineSet
148 595 m 257
NamedP: "hr00"
 24 595 l 257
 24 564 l 257
 101 564 l 257
 101 567 l 257
 101 -56 l 257
 101 -54 l 257
 24 -54 l 257
 24 -87 l 257
 148 -87 l 257
 148 -85 l 257
 148 595 l 257
NamedP: "hr00"
EndSplineSet
PickledDataWithLists: "(dp1
S'com.adobe.type.autohint'
p2
(S'data'
S'<data>\\n  <hintSetList>\\n    <hintset pointTag=\"hr00\">\\n      <hstem pos=\"-87\" width=\"33\"/>\\n      <hstem pos=\"564\" width=\"31\"/>\\n      <vstem pos=\"24\" width=\"77\"/>\\n      <vstem pos=\"101\" width=\"47\"/>\\n    </hintset>\\n  </hintSetList>\\n  </data>'
Ntp3
s."
EndChar

StartChar: asciicircum
Encoding: 62 94 62
GlifName: asciicircum
Width: 862
VWidth: 0
Flags: W
LayerCount: 2
Back
Fore
SplineSet
394 582 m 257
NamedP: "hr00"
 212 394 l 257
 275 394 l 257
 415 533 l 257
 556 394 l 257
 618 394 l 257
 437 582 l 257
 394 582 l 257
NamedP: "hr00"
EndSplineSet
PickledDataWithLists: "(dp1
S'com.adobe.type.autohint'
p2
(S'data'
S'<data>\\n  <hintSetList>\\n    <hintset pointTag=\"hr00\">\\n      <hstem pos=\"533\" width=\"49\"/>\\n      <vstem pos=\"212\" width=\"406\"/>\\n    </hintset>\\n  </hintSetList>\\n  </data>'
Ntp3
s."
EndChar

StartChar: underscore
Encoding: 63 95 63
GlifName: underscore
Width: 431
VWidth: 0
Flags: W
LayerCount: 2
Back
Fore
SplineSet
436 -217 m 257
NamedP: "hr00"
 436 -169 l 257
 0 -169 l 257
 0 -217 l 257
 436 -217 l 257
NamedP: "hr00"
EndSplineSet
PickledDataWithLists: "(dp1
S'com.adobe.type.autohint'
p2
(S'data'
S'<data>\\n  <hintSetList>\\n    <hintset pointTag=\"hr00\">\\n      <hstem pos=\"-217\" width=\"48\"/>\\n      <vstem pos=\"0\" width=\"436\"/>\\n    </hintset>\\n  </hintSetList>\\n  </data>'
Ntp3
s."
EndChar

StartChar: grave
Encoding: 64 96 64
GlifName: grave
Width: 350
VWidth: 0
Flags: W
LayerCount: 2
Back
Fore
SplineSet
208 462 m 257
NamedP: "hr00"
 155 593 l 257
 94 593 l 257
 162 462 l 257
 208 462 l 257
NamedP: "hr00"
EndSplineSet
PickledDataWithLists: "(dp1
S'com.adobe.type.autohint'
p2
(S'data'
S'<data>\\n  <hintSetList>\\n    <hintset pointTag=\"hr00\">\\n      <hstem pos=\"462\" width=\"131\"/>\\n      <vstem pos=\"94\" width=\"114\"/>\\n    </hintset>\\n  </hintSetList>\\n  </data>'
Ntp3
s."
EndChar

StartChar: a
Encoding: 65 97 65
GlifName: a
Width: 504
VWidth: 0
Flags: W
LayerCount: 2
Back
Fore
SplineSet
80 209 m 256
NamedP: "hr00"
 80 259 96 299 128 330 c 256
 161 361 200 377 247 377 c 256
 292 377 331 360 362 327 c 256
 393 294 409 255 409 210 c 256
 409 163 393 123 361 91 c 256
 330 60 292 44 247 44 c 256
 198 44 157 60 126 91 c 256
 95 123 80 162 80 209 c 256
NamedP: "hr00"
406 413 m 257
 405 340 l 257
 384 373 358 395 327 408 c 256
 302 418 275 423 247 423 c 256
 182 423 131 400 89 357 c 256
 50 316 29 268 29 211 c 256
 29 152 49 102 90 61 c 256
 131 20 184 -1 247 -1 c 256
 273 -1 299 4 326 14 c 256
 359 27 385 49 406 80 c 257
 406 8 l 257
 458 8 l 257
 458 413 l 257
 406 413 l 257
EndSplineSet
PickledDataWithLists: "(dp1
S'com.adobe.type.autohint'
p2
(S'data'
S'<data>\\n  <hintSetList>\\n    <hintset pointTag=\"hr00\">\\n      <hstem pos=\"-1\" width=\"45\"/>\\n      <hstem pos=\"377\" width=\"46\"/>\\n      <hstem pos=\"413\" width=\"-20\"/>\\n      <vstem pos=\"29\" width=\"51\"/>\\n      <vstem pos=\"406\" width=\"52\"/>\\n    </hintset>\\n  </hintSetList>\\n  </data>'
Ntp3
s."
EndChar

StartChar: b
Encoding: 66 98 66
GlifName: b
Width: 504
VWidth: 0
Flags: W
LayerCount: 2
Back
Fore
SplineSet
427 209 m 256
NamedP: "hr00"
 427 162 411 123 380 91 c 256
 349 60 309 44 260 44 c 256
 216 44 178 60 146 91 c 256
 114 123 98 163 98 210 c 256
 98 255 113 294 144 327 c 256
 175 360 214 377 260 377 c 256
 306 377 345 361 378 330 c 256
 411 299 427 259 427 209 c 256
NamedP: "hr00"
101 8 m 257
 103 80 l 257
 124 49 150 27 183 14 c 256
 208 4 234 -1 260 -1 c 256
 324 -1 376 19 417 60 c 256
 458 101 479 152 479 211 c 256
 479 268 458 316 419 357 c 256
 377 400 325 423 260 423 c 256
 234 423 208 417 182 406 c 256
 150 393 123 371 101 340 c 257
 101 556 l 257
 50 556 l 257
 50 8 l 257
 101 8 l 257
EndSplineSet
PickledDataWithLists: "(dp1
S'com.adobe.type.autohint'
p2
(S'data'
S'<data>\\n  <hintSetList>\\n    <hintset pointTag=\"hr00\">\\n      <hstem pos=\"-1\" width=\"45\"/>\\n      <hstem pos=\"377\" width=\"46\"/>\\n      <hstem pos=\"556\" width=\"-20\"/>\\n      <vstem pos=\"50\" width=\"51\"/>\\n      <vstem pos=\"427\" width=\"52\"/>\\n    </hintset>\\n  </hintSetList>\\n  </data>'
Ntp3
s."
EndChar

StartChar: c
Encoding: 67 99 67
GlifName: c
Width: 478
VWidth: 0
Flags: W
LayerCount: 2
Back
Fore
SplineSet
392 125 m 257
NamedP: "hr00"
 380 103 364 85 345 72 c 256
 318 53 286 43 247 43 c 256
 200 43 160 59 128 91 c 256
 96 124 80 163 80 210 c 256
 80 260 98 301 134 333 c 256
 167 362 204 376 247 376 c 256
 276 376 302 369 327 355 c 256
 355 340 377 319 392 291 c 257
 447 291 l 257
 430 334 400 368 359 392 c 256
 324 412 287 422 247 422 c 256
 187 422 136 401 93 358 c 256
 50 316 29 266 29 209 c 256
 29 150 50 100 91 59 c 256
 132 18 184 -2 247 -2 c 256
 300 -2 346 13 383 43 c 256
 409 64 430 92 447 125 c 257
 392 125 l 257
NamedP: "hr00"
EndSplineSet
PickledDataWithLists: "(dp1
S'com.adobe.type.autohint'
p2
(S'data'
S'<data>\\n  <hintSetList>\\n    <hintset pointTag=\"hr00\">\\n      <hstem pos=\"-2\" width=\"45\"/>\\n      <hstem pos=\"376\" width=\"46\"/>\\n      <vstem pos=\"29\" width=\"51\"/>\\n    </hintset>\\n  </hintSetList>\\n  </data>'
Ntp3
s."
EndChar

StartChar: d
Encoding: 68 100 68
GlifName: d
Width: 506
VWidth: 0
Flags: W
LayerCount: 2
Back
Fore
SplineSet
79 208 m 256
NamedP: "hr00"
 79 258 95 298 127 329 c 256
 160 360 199 376 246 376 c 256
 291 376 330 359 361 326 c 256
 392 293 408 254 408 209 c 256
 408 162 392 122 360 90 c 256
 329 59 291 43 246 43 c 256
 197 43 156 59 125 91 c 256
 94 123 79 162 79 208 c 256
NamedP: "hr00"
405 555 m 257
 404 340 l 257
 383 371 357 393 326 406 c 256
 301 417 274 422 246 422 c 256
 181 422 129 400 88 356 c 256
 48 315 28 267 28 210 c 256
 28 151 48 101 89 60 c 256
 130 19 183 -2 246 -2 c 256
 271 -2 298 3 326 14 c 256
 358 27 384 48 405 79 c 257
 405 7 l 257
 457 7 l 257
 457 555 l 257
 405 555 l 257
EndSplineSet
PickledDataWithLists: "(dp1
S'com.adobe.type.autohint'
p2
(S'data'
S'<data>\\n  <hintSetList>\\n    <hintset pointTag=\"hr00\">\\n      <hstem pos=\"-2\" width=\"45\"/>\\n      <hstem pos=\"376\" width=\"46\"/>\\n      <hstem pos=\"555\" width=\"-20\"/>\\n      <vstem pos=\"28\" width=\"51\"/>\\n      <vstem pos=\"404\" width=\"52\"/>\\n    </hintset>\\n  </hintSetList>\\n  </data>'
Ntp3
s."
EndChar

StartChar: e
Encoding: 69 101 69
GlifName: e
Width: 480
VWidth: 0
Flags: W
LayerCount: 2
Back
Fore
SplineSet
79 238 m 257
NamedP: "hr00"
 86 283 107 318 140 344 c 256
 169 366 202 377 237 377 c 256
 274 377 307 366 336 344 c 256
 369 319 390 283 397 238 c 257
 79 238 l 257
NamedP: "hr00"
450 206 m 258
 453 242 439 285 418 320 c 256
 401 348 379 372 350 391 c 256
 316 412 278 423 237 423 c 256
 179 423 129 402 88 360 c 256
 47 318 27 268 27 210 c 256
 27 151 48 101 89 60 c 256
 130 19 180 -1 237 -1 c 256
 284 -1 325 12 361 38 c 256
 398 65 423 99 436 140 c 257
 383 140 l 257
 373 112 356 89 332 72 c 256
 304 53 272 44 237 44 c 256
 198 44 162 59 129 88 c 256
 96 118 80 153 80 192 c 257
 449 192 l 257
 450 206 l 258
EndSplineSet
PickledDataWithLists: "(dp1
S'com.adobe.type.autohint'
p2
(S'data'
S'<data>\\n  <hintSetList>\\n    <hintset pointTag=\"hr00\">\\n      <hstem pos=\"-1\" width=\"45\"/>\\n      <hstem pos=\"192\" width=\"46\"/>\\n      <hstem pos=\"377\" width=\"46\"/>\\n      <vstem pos=\"27\" width=\"53\"/>\\n      <vstem pos=\"397\" width=\"53\"/>\\n    </hintset>\\n  </hintSetList>\\n  </data>'
Ntp3
s."
EndChar

StartChar: f
Encoding: 70 102 70
GlifName: f
Width: 231
VWidth: 0
Flags: W
LayerCount: 2
Back
Fore
SplineSet
126 -2 m 257
NamedP: "hr00"
 126 356 l 257
 229 356 l 257
 229 402 l 257
 126 402 l 257
 126 406 l 258
 126 435 131 456 140 471 c 256
 156 496 186 508 229 508 c 257
 229 555 l 257
 165 555 121 536 96 499 c 256
 82 478 75 445 75 402 c 257
 12 402 l 257
 12 356 l 257
 75 356 l 257
 75 -2 l 257
 126 -2 l 257
NamedP: "hr00"
EndSplineSet
PickledDataWithLists: "(dp1
S'com.adobe.type.autohint'
p2
(S'data'
S'<data>\\n  <hintSetList>\\n    <hintset pointTag=\"hr00\">\\n      <hstem pos=\"19\" width=\"-21\"/>\\n      <hstem pos=\"356\" width=\"46\"/>\\n      <hstem pos=\"508\" width=\"47\"/>\\n      <vstem pos=\"75\" width=\"51\"/>\\n    </hintset>\\n  </hintSetList>\\n  </data>'
Ntp3
s."
EndChar

StartChar: g
Encoding: 71 103 71
GlifName: g
Width: 498
VWidth: 0
Flags: W
LayerCount: 2
Back
Fore
SplineSet
77 211 m 256
NamedP: "hr00"
 77 256 92 295 123 328 c 256
 154 361 192 378 237 378 c 256
 282 378 320 361 351 328 c 256
 382 295 398 256 398 211 c 256
 398 171 385 134 358 101 c 256
 327 64 287 45 237 45 c 256
 192 45 154 61 123 94 c 256
 92 127 77 166 77 211 c 256
NamedP: "hr00"
396 414 m 257
 394 339 l 257
 373 373 345 397 312 410 c 256
 289 419 264 424 237 424 c 256
 182 424 135 403 93 363 c 256
 49 321 26 270 26 209 c 256
 26 147 48 96 93 56 c 256
 134 19 182 0 237 0 c 256
 270 0 300 5 327 18 c 256
 356 32 379 56 396 85 c 257
 396 47 l 258
 396 -5 380 -44 348 -71 c 256
 321 -94 288 -105 249 -105 c 256
 205 -105 169 -92 140 -67 c 256
 121 -50 107 -28 96 -2 c 257
 42 -2 l 257
 58 -57 90 -98 139 -124 c 256
 171 -142 208 -151 250 -151 c 256
 311 -151 377 -122 410 -77 c 256
 427 -54 437 -28 442 1 c 256
 445 16 447 40 447 71 c 258
 447 414 l 257
 396 414 l 257
EndSplineSet
PickledDataWithLists: "(dp1
S'com.adobe.type.autohint'
p2
(S'data'
S'<data>\\n  <hintSetList>\\n    <hintset pointTag=\"hr00\">\\n      <hstem pos=\"-151\" width=\"46\"/>\\n      <hstem pos=\"0\" width=\"45\"/>\\n      <hstem pos=\"378\" width=\"46\"/>\\n      <hstem pos=\"414\" width=\"-20\"/>\\n      <vstem pos=\"26\" width=\"51\"/>\\n      <vstem pos=\"395\" width=\"52\"/>\\n    </hintset>\\n  </hintSetList>\\n  </data>'
Ntp3
s."
EndChar

StartChar: h
Encoding: 72 104 72
GlifName: h
Width: 452
VWidth: 0
Flags: W
LayerCount: 2
Back
Fore
SplineSet
96 -2 m 257
NamedP: "hr00"
 96 224 l 258
 96 272 111 309 134 332 c 256
 161 357 193 367 222 367 c 256
 250 367 287 355 311 331 c 256
 335 308 350 273 350 221 c 258
 350 -2 l 257
 401 -2 l 257
 401 221 l 258
 401 284 382 331 350 363 c 256
 312 399 277 413 222 413 c 256
 191 413 164 406 139 391 c 256
 122 380 108 365 96 348 c 257
 96 546 l 257
 45 546 l 257
 45 -2 l 257
 96 -2 l 257
NamedP: "hr00"
EndSplineSet
PickledDataWithLists: "(dp1
S'com.adobe.type.autohint'
p2
(S'data'
S'<data>\\n  <hintSetList>\\n    <hintset pointTag=\"hr00\">\\n      <hstem pos=\"19\" width=\"-21\"/>\\n      <hstem pos=\"367\" width=\"46\"/>\\n      <hstem pos=\"546\" width=\"-20\"/>\\n      <vstem pos=\"45\" width=\"51\"/>\\n      <vstem pos=\"350\" width=\"51\"/>\\n    </hintset>\\n  </hintSetList>\\n  </data>'
Ntp3
s."
EndChar

StartChar: i
Encoding: 73 105 73
GlifName: i
Width: 148
VWidth: 0
Flags: W
LayerCount: 2
Back
Fore
SplineSet
98 454 m 257
NamedP: "hr00"
 98 547 l 257
 47 547 l 257
 47 454 l 257
 98 454 l 257
NamedP: "hr00"
98 0 m 257
 98 405 l 257
 47 405 l 257
 47 0 l 257
 98 0 l 257
EndSplineSet
PickledDataWithLists: "(dp1
S'com.adobe.type.autohint'
p2
(S'data'
S'<data>\\n  <hintSetList>\\n    <hintset pointTag=\"hr00\">\\n      <hstem pos=\"21\" width=\"-21\"/>\\n      <hstem pos=\"405\" width=\"-20\"/>\\n      <hstem pos=\"454\" width=\"93\"/>\\n      <vstem pos=\"47\" width=\"51\"/>\\n    </hintset>\\n  </hintSetList>\\n  </data>'
Ntp3
s."
EndChar

StartChar: j
Encoding: 74 106 74
GlifName: j
Width: 150
VWidth: 0
Flags: W
LayerCount: 2
Back
Fore
SplineSet
102 453 m 257
NamedP: "hr00"
 102 546 l 257
 51 546 l 257
 51 453 l 257
 102 453 l 257
NamedP: "hr00"
51 403 m 257
 51 26 l 258
 51 -13 46 -41 35 -60 c 256
 22 -83 0 -94 -31 -94 c 257
 -31 -144 l 257
 -15 -144 -2 -143 9 -140 c 256
 26 -135 43 -126 58 -113 c 256
 79 -94 92 -72 97 -46 c 256
 100 -31 102 -7 102 26 c 258
 102 403 l 257
 51 403 l 257
EndSplineSet
PickledDataWithLists: "(dp1
S'com.adobe.type.autohint'
p2
(S'data'
S'<data>\\n  <hintSetList>\\n    <hintset pointTag=\"hr00\">\\n      <hstem pos=\"-144\" width=\"50\"/>\\n      <hstem pos=\"403\" width=\"-20\"/>\\n      <hstem pos=\"453\" width=\"93\"/>\\n      <vstem pos=\"51\" width=\"51\"/>\\n    </hintset>\\n  </hintSetList>\\n  </data>'
Ntp3
s."
EndChar

StartChar: k
Encoding: 75 107 75
GlifName: k
Width: 372
VWidth: 0
Flags: W
LayerCount: 2
Back
Fore
SplineSet
102 -1 m 257
NamedP: "hr00"
 102 75 l 257
 167 160 l 257
 302 -1 l 257
 367 -1 l 257
 199 199 l 257
 358 403 l 257
 294 403 l 257
 102 155 l 257
 102 546 l 257
 51 546 l 257
 51 -1 l 257
 102 -1 l 257
NamedP: "hr00"
EndSplineSet
PickledDataWithLists: "(dp1
S'com.adobe.type.autohint'
p2
(S'data'
S'<data>\\n  <hintSetList>\\n    <hintset pointTag=\"hr00\">\\n      <hstem pos=\"20\" width=\"-21\"/>\\n      <hstem pos=\"403\" width=\"-20\"/>\\n      <hstem pos=\"546\" width=\"-20\"/>\\n      <vstem pos=\"51\" width=\"51\"/>\\n    </hintset>\\n  </hintSetList>\\n  </data>'
Ntp3
s."
EndChar

StartChar: l
Encoding: 76 108 76
GlifName: l
Width: 148
VWidth: 0
Flags: W
LayerCount: 2
Back
Fore
SplineSet
98 -1 m 257
NamedP: "hr00"
 98 546 l 257
 47 546 l 257
 47 -1 l 257
 98 -1 l 257
NamedP: "hr00"
EndSplineSet
PickledDataWithLists: "(dp1
S'com.adobe.type.autohint'
p2
(S'data'
S'<data>\\n  <hintSetList>\\n    <hintset pointTag=\"hr00\">\\n      <hstem pos=\"20\" width=\"-21\"/>\\n      <hstem pos=\"546\" width=\"-20\"/>\\n      <vstem pos=\"47\" width=\"51\"/>\\n    </hintset>\\n  </hintSetList>\\n  </data>'
Ntp3
s."
EndChar

StartChar: m
Encoding: 77 109 77
GlifName: m
Width: 694
VWidth: 0
Flags: W
LayerCount: 2
Back
Fore
SplineSet
47 402 m 257
NamedP: "hr00"
 47 -2 l 257
 98 -2 l 257
 98 232 l 258
 98 319 140 367 208 367 c 256
 280 367 321 319 321 232 c 258
 321 -2 l 257
 371 -2 l 257
 371 232 l 258
 371 319 413 367 481 367 c 256
 554 367 593 319 593 232 c 258
 593 -2 l 257
 644 -2 l 257
 644 238 l 258
 644 345 578 413 481 413 c 256
 423 413 378 387 345 334 c 257
 316 385 268 413 208 413 c 256
 159 413 122 393 98 354 c 257
 98 402 l 257
 47 402 l 257
NamedP: "hr00"
EndSplineSet
PickledDataWithLists: "(dp1
S'com.adobe.type.autohint'
p2
(S'data'
S'<data>\\n  <hintSetList>\\n    <hintset pointTag=\"hr00\">\\n      <hstem pos=\"19\" width=\"-21\"/>\\n      <hstem pos=\"367\" width=\"46\"/>\\n      <hstem pos=\"402\" width=\"-20\"/>\\n      <vstem pos=\"47\" width=\"51\"/>\\n      <vstem pos=\"321\" width=\"50\"/>\\n      <vstem pos=\"593\" width=\"51\"/>\\n    </hintset>\\n  </hintSetList>\\n  </data>'
Ntp3
s."
EndChar

StartChar: n
Encoding: 78 110 78
GlifName: n
Width: 451
VWidth: 0
Flags: W
LayerCount: 2
Back
Fore
SplineSet
98 -1 m 257
NamedP: "hr00"
 98 225 l 258
 98 273 113 310 136 333 c 256
 163 358 195 368 224 368 c 256
 286 368 352 323 352 222 c 258
 352 -1 l 257
 403 -1 l 257
 403 222 l 258
 403 283 384 333 352 363 c 256
 314 399 279 414 224 414 c 256
 193 414 166 406 141 391 c 256
 124 381 110 367 98 349 c 257
 98 403 l 257
 47 403 l 257
 47 -1 l 257
 98 -1 l 257
NamedP: "hr00"
EndSplineSet
PickledDataWithLists: "(dp1
S'com.adobe.type.autohint'
p2
(S'data'
S'<data>\\n  <hintSetList>\\n    <hintset pointTag=\"hr00\">\\n      <hstem pos=\"20\" width=\"-21\"/>\\n      <hstem pos=\"368\" width=\"46\"/>\\n      <hstem pos=\"403\" width=\"-20\"/>\\n      <vstem pos=\"47\" width=\"51\"/>\\n      <vstem pos=\"352\" width=\"51\"/>\\n    </hintset>\\n  </hintSetList>\\n  </data>'
Ntp3
s."
EndChar

StartChar: o
Encoding: 79 111 79
GlifName: o
Width: 483
VWidth: 0
Flags: W
LayerCount: 2
Back
Fore
SplineSet
80 208 m 256
NamedP: "hr00"
 80 259 97 301 132 334 c 256
 164 363 200 377 240 377 c 256
 279 377 316 362 349 333 c 256
 384 302 401 262 401 213 c 256
 401 162 385 119 351 87 c 256
 321 57 283 44 240 44 c 256
 197 44 160 60 128 91 c 256
 96 123 80 162 80 208 c 256
NamedP: "hr00"
29 207 m 256
 29 152 50 103 91 61 c 256
 132 20 182 -1 239 -1 c 256
 299 -1 349 20 390 62 c 256
 431 105 452 154 452 211 c 256
 452 267 431 316 390 359 c 256
 349 402 298 423 239 423 c 256
 184 423 136 403 95 363 c 256
 51 322 29 270 29 207 c 256
EndSplineSet
PickledDataWithLists: "(dp1
S'com.adobe.type.autohint'
p2
(S'data'
S'<data>\\n  <hintSetList>\\n    <hintset pointTag=\"hr00\">\\n      <hstem pos=\"-1\" width=\"45\"/>\\n      <hstem pos=\"377\" width=\"46\"/>\\n      <vstem pos=\"29\" width=\"51\"/>\\n      <vstem pos=\"401\" width=\"51\"/>\\n    </hintset>\\n  </hintSetList>\\n  </data>'
Ntp3
s."
EndChar

StartChar: p
Encoding: 80 112 80
GlifName: p
Width: 504
VWidth: 0
Flags: W
LayerCount: 2
Back
Fore
SplineSet
422 209 m 256
NamedP: "hr00"
 422 162 406 123 375 91 c 256
 344 60 304 44 255 44 c 256
 211 44 173 60 141 91 c 256
 109 123 93 163 93 210 c 256
 93 255 108 294 139 327 c 256
 170 360 209 377 255 377 c 256
 301 377 340 361 373 330 c 256
 406 299 422 259 422 209 c 256
NamedP: "hr00"
96 -134 m 257
 98 80 l 257
 119 49 145 27 178 14 c 256
 203 4 229 -1 255 -1 c 256
 319 -1 371 19 412 60 c 256
 453 101 474 152 474 211 c 256
 474 268 453 316 414 357 c 256
 372 400 320 423 255 423 c 256
 228 423 202 418 177 407 c 256
 146 394 119 371 96 340 c 257
 96 413 l 257
 45 413 l 257
 45 -134 l 257
 96 -134 l 257
EndSplineSet
PickledDataWithLists: "(dp1
S'com.adobe.type.autohint'
p2
(S'data'
S'<data>\\n  <hintSetList>\\n    <hintset pointTag=\"hr00\">\\n      <hstem pos=\"-113\" width=\"-21\"/>\\n      <hstem pos=\"-1\" width=\"45\"/>\\n      <hstem pos=\"377\" width=\"46\"/>\\n      <hstem pos=\"413\" width=\"-20\"/>\\n      <vstem pos=\"45\" width=\"52\"/>\\n      <vstem pos=\"422\" width=\"52\"/>\\n    </hintset>\\n  </hintSetList>\\n  </data>'
Ntp3
s."
EndChar

StartChar: q
Encoding: 81 113 81
GlifName: q
Width: 504
VWidth: 0
Flags: W
LayerCount: 2
Back
Fore
SplineSet
77 209 m 256
NamedP: "hr00"
 77 259 93 299 125 330 c 256
 158 361 197 377 244 377 c 256
 289 377 328 360 359 327 c 256
 390 294 406 255 406 210 c 256
 406 163 390 123 358 91 c 256
 327 60 289 44 244 44 c 256
 195 44 154 60 123 91 c 256
 92 123 77 162 77 209 c 256
NamedP: "hr00"
403 413 m 257
 402 340 l 257
 382 371 356 394 324 407 c 256
 299 418 272 423 244 423 c 256
 179 423 128 400 86 357 c 256
 47 316 26 268 26 211 c 256
 26 152 46 102 87 61 c 256
 128 20 181 -1 244 -1 c 256
 270 -1 296 4 323 14 c 256
 356 27 382 49 403 80 c 257
 403 -134 l 257
 455 -134 l 257
 455 413 l 257
 403 413 l 257
EndSplineSet
PickledDataWithLists: "(dp1
S'com.adobe.type.autohint'
p2
(S'data'
S'<data>\\n  <hintSetList>\\n    <hintset pointTag=\"hr00\">\\n      <hstem pos=\"-113\" width=\"-21\"/>\\n      <hstem pos=\"-1\" width=\"45\"/>\\n      <hstem pos=\"377\" width=\"46\"/>\\n      <hstem pos=\"413\" width=\"-20\"/>\\n      <vstem pos=\"26\" width=\"51\"/>\\n      <vstem pos=\"403\" width=\"52\"/>\\n    </hintset>\\n  </hintSetList>\\n  </data>'
Ntp3
s."
EndChar

StartChar: r
Encoding: 82 114 82
GlifName: r
Width: 222
VWidth: 0
Flags: W
LayerCount: 2
Back
Fore
SplineSet
98 -1 m 257
NamedP: "hr00"
 98 236 l 258
 98 267 108 295 127 320 c 256
 146 344 178 360 214 360 c 257
 214 414 l 257
 189 414 168 411 149 401 c 256
 127 390 110 370 98 343 c 257
 98 403 l 257
 47 403 l 257
 47 -1 l 257
 98 -1 l 257
NamedP: "hr00"
EndSplineSet
PickledDataWithLists: "(dp1
S'com.adobe.type.autohint'
p2
(S'data'
S'<data>\\n  <hintSetList>\\n    <hintset pointTag=\"hr00\">\\n      <hstem pos=\"20\" width=\"-21\"/>\\n      <hstem pos=\"360\" width=\"54\"/>\\n      <hstem pos=\"403\" width=\"-20\"/>\\n      <vstem pos=\"47\" width=\"51\"/>\\n    </hintset>\\n  </hintSetList>\\n  </data>'
Ntp3
s."
EndChar

StartChar: s
Encoding: 83 115 83
GlifName: s
Width: 288
VWidth: 0
Flags: W
LayerCount: 2
Back
Fore
SplineSet
17 123 m 258
NamedP: "hr00"
 17 82 30 49 58 26 c 256
 80 7 109 -1 141 -1 c 256
 182 -1 215 10 237 34 c 256
 259 57 269 86 269 123 c 256
 269 160 254 188 227 211 c 256
 211 224 187 237 154 248 c 256
 133 255 117 263 106 270 c 256
 89 281 80 296 80 315 c 256
 80 347 105 377 141 377 c 256
 156 377 170 372 183 363 c 257
 196 352 203 335 203 313 c 257
 254 315 l 257
 254 378 204 423 143 423 c 256
 71 423 30 371 30 310 c 256
 30 277 43 251 68 230 c 256
 81 219 104 210 135 198 c 256
 164 187 181 178 188 174 c 257
 207 160 217 141 217 117 c 256
 217 73 189 44 141 44 c 256
 124 44 109 48 96 57 c 256
 77 70 68 93 68 126 c 257
 17 126 l 257
 17 123 l 258
NamedP: "hr00"
EndSplineSet
PickledDataWithLists: "(dp1
S'com.adobe.type.autohint'
p2
(S'data'
S'<data>\\n  <hintSetList>\\n    <hintset pointTag=\"hr00\">\\n      <hstem pos=\"-1\" width=\"45\"/>\\n      <hstem pos=\"377\" width=\"46\"/>\\n      <vstem pos=\"17\" width=\"51\"/>\\n      <vstem pos=\"30\" width=\"50\"/>\\n      <vstem pos=\"203\" width=\"51\"/>\\n      <vstem pos=\"217\" width=\"52\"/>\\n    </hintset>\\n  </hintSetList>\\n  </data>'
Ntp3
s."
EndChar

StartChar: t
Encoding: 84 116 84
GlifName: t
Width: 250
VWidth: 0
Flags: W
LayerCount: 2
Back
Fore
SplineSet
147 -1 m 257
NamedP: "hr00"
 147 357 l 257
 243 357 l 257
 243 403 l 257
 147 403 l 257
 147 546 l 257
 96 546 l 257
 96 403 l 257
 10 403 l 257
 10 357 l 257
 96 357 l 257
 96 -1 l 257
 147 -1 l 257
NamedP: "hr00"
EndSplineSet
PickledDataWithLists: "(dp1
S'com.adobe.type.autohint'
p2
(S'data'
S'<data>\\n  <hintSetList>\\n    <hintset pointTag=\"hr00\">\\n      <hstem pos=\"20\" width=\"-21\"/>\\n      <hstem pos=\"357\" width=\"46\"/>\\n      <hstem pos=\"546\" width=\"-20\"/>\\n      <vstem pos=\"96\" width=\"51\"/>\\n    </hintset>\\n  </hintSetList>\\n  </data>'
Ntp3
s."
EndChar

StartChar: u
Encoding: 85 117 85
GlifName: u
Width: 450
VWidth: 0
Flags: W
LayerCount: 2
Back
Fore
SplineSet
348 413 m 257
NamedP: "hr00"
 348 199 l 258
 348 166 344 139 335 120 c 256
 312 70 268 39 220 44 c 257
 202 44 186 46 171 52 c 256
 154 58 138 69 124 82 c 257
 104 107 96 141 96 190 c 258
 96 413 l 257
 45 413 l 257
 45 190 l 258
 45 112 70 48 127 20 c 256
 154 7 185 -1 220 -1 c 256
 253 -1 282 7 307 23 c 256
 326 36 340 53 351 72 c 257
 351 8 l 257
 399 8 l 257
 399 413 l 257
 348 413 l 257
NamedP: "hr00"
EndSplineSet
PickledDataWithLists: "(dp1
S'com.adobe.type.autohint'
p2
(S'data'
S'<data>\\n  <hintSetList>\\n    <hintset pointTag=\"hr00\">\\n      <hstem pos=\"-1\" width=\"45\"/>\\n      <hstem pos=\"413\" width=\"-20\"/>\\n      <vstem pos=\"45\" width=\"51\"/>\\n      <vstem pos=\"348\" width=\"51\"/>\\n    </hintset>\\n  </hintSetList>\\n  </data>'
Ntp3
s."
EndChar

StartChar: v
Encoding: 86 118 86
GlifName: v
Width: 410
VWidth: 0
Flags: W
LayerCount: 2
Back
Fore
SplineSet
230 -1 m 257
NamedP: "hr00"
 402 403 l 257
 348 403 l 257
 203 61 l 257
 58 403 l 257
 4 403 l 257
 175 -1 l 257
 230 -1 l 257
NamedP: "hr00"
EndSplineSet
PickledDataWithLists: "(dp1
S'com.adobe.type.autohint'
p2
(S'data'
S'<data>\\n  <hintSetList>\\n    <hintset pointTag=\"hr00\">\\n      <hstem pos=\"20\" width=\"-21\"/>\\n      <hstem pos=\"-1\" width=\"62\"/>\\n      <hstem pos=\"403\" width=\"-20\"/>\\n      <vstem pos=\"4\" width=\"398\"/>\\n    </hintset>\\n  </hintSetList>\\n  </data>'
Ntp3
s."
EndChar

StartChar: w
Encoding: 87 119 87
GlifName: w
Width: 614
VWidth: 0
Flags: W
LayerCount: 2
Back
Fore
SplineSet
219 -2 m 257
NamedP: "hr00"
 307 268 l 257
 393 -2 l 257
 452 -2 l 257
 607 402 l 257
 555 402 l 257
 423 62 l 257
 329 354 l 257
 284 354 l 257
 191 62 l 257
 62 402 l 257
 9 402 l 257
 164 -2 l 257
 219 -2 l 257
NamedP: "hr00"
EndSplineSet
PickledDataWithLists: "(dp1
S'com.adobe.type.autohint'
p2
(S'data'
S'<data>\\n  <hintSetList>\\n    <hintset pointTag=\"hr00\">\\n      <hstem pos=\"-2\" width=\"64\"/>\\n      <hstem pos=\"402\" width=\"-20\"/>\\n      <vstem pos=\"9\" width=\"598\"/>\\n    </hintset>\\n  </hintSetList>\\n  </data>'
Ntp3
s."
EndChar

StartChar: x
Encoding: 88 120 88
GlifName: x
Width: 356
VWidth: 0
Flags: W
LayerCount: 2
Back
Fore
SplineSet
70 -2 m 257
NamedP: "hr00"
 178 160 l 257
 286 -2 l 257
 346 -2 l 257
 207 203 l 257
 346 402 l 257
 284 402 l 257
 178 246 l 257
 70 402 l 257
 9 402 l 257
 147 203 l 257
 9 -2 l 257
 70 -2 l 257
NamedP: "hr00"
EndSplineSet
PickledDataWithLists: "(dp1
S'com.adobe.type.autohint'
p2
(S'data'
S'<data>\\n  <hintSetList>\\n    <hintset pointTag=\"hr00\">\\n      <hstem pos=\"19\" width=\"-21\"/>\\n      <hstem pos=\"402\" width=\"-20\"/>\\n      <vstem pos=\"9\" width=\"337\"/>\\n    </hintset>\\n  </hintSetList>\\n  </data>'
Ntp3
s."
EndChar

StartChar: y
Encoding: 89 121 89
GlifName: y
Width: 397
VWidth: 0
Flags: W
LayerCount: 2
Back
Fore
SplineSet
150 -153 m 257
NamedP: "hr00"
 385 394 l 257
 332 394 l 257
 193 69 l 257
 64 394 l 257
 10 394 l 257
 169 2 l 257
 97 -153 l 257
 150 -153 l 257
NamedP: "hr00"
EndSplineSet
PickledDataWithLists: "(dp1
S'com.adobe.type.autohint'
p2
(S'data'
S'<data>\\n  <hintSetList>\\n    <hintset pointTag=\"hr00\">\\n      <hstem pos=\"-153\" width=\"547\"/>\\n      <vstem pos=\"10\" width=\"375\"/>\\n    </hintset>\\n  </hintSetList>\\n  </data>'
Ntp3
s."
EndChar

StartChar: z
Encoding: 90 122 90
GlifName: z
Width: 313
VWidth: 0
Flags: W
LayerCount: 2
Back
Fore
SplineSet
304 -1 m 257
NamedP: "hr00"
 304 44 l 257
 68 44 l 257
 291 356 l 257
 291 403 l 257
 13 403 l 257
 13 357 l 257
 229 357 l 257
 5 44 l 257
 5 -1 l 257
 304 -1 l 257
NamedP: "hr00"
EndSplineSet
PickledDataWithLists: "(dp1
S'com.adobe.type.autohint'
p2
(S'data'
S'<data>\\n  <hintSetList>\\n    <hintset pointTag=\"hr00\">\\n      <hstem pos=\"-1\" width=\"45\"/>\\n      <hstem pos=\"357\" width=\"46\"/>\\n      <vstem pos=\"5\" width=\"299\"/>\\n    </hintset>\\n  </hintSetList>\\n  </data>'
Ntp3
s."
EndChar

StartChar: braceleft
Encoding: 91 123 91
GlifName: braceleft
Width: 382
VWidth: 0
Flags: W
LayerCount: 2
Back
Fore
SplineSet
301 -166 m 257
NamedP: "hr00"
 229 -171 207 -144 207 -63 c 258
 207 48 l 258
 207 112 199 157 182 184 c 256
 169 203 149 219 120 232 c 257
 120 225 l 257
 149 238 169 253 182 272 c 256
 199 299 207 345 207 408 c 258
 207 520 l 258
 207 600 229 627 301 622 c 257
 301 659 l 257
 249 659 214 649 195 629 c 256
 177 610 168 573 168 520 c 258
 168 408 l 258
 168 308 147 271 83 255 c 257
 83 201 l 257
 147 186 168 148 168 48 c 258
 168 -63 l 258
 168 -117 177 -154 195 -173 c 256
 214 -192 249 -202 301 -202 c 257
 301 -166 l 257
NamedP: "hr00"
EndSplineSet
PickledDataWithLists: "(dp1
S'com.adobe.type.autohint'
p2
(S'data'
S'<data>\\n  <hintSetList>\\n    <hintset pointTag=\"hr00\">\\n      <hstem pos=\"-202\" width=\"36\"/>\\n      <hstem pos=\"622\" width=\"37\"/>\\n      <vstem pos=\"168\" width=\"39\"/>\\n    </hintset>\\n  </hintSetList>\\n  </data>'
Ntp3
s."
EndChar

StartChar: bar
Encoding: 92 124 92
GlifName: bar
Width: 431
VWidth: 0
Flags: W
LayerCount: 2
Back
Fore
SplineSet
241 -217 m 257
NamedP: "hr00"
 241 649 l 257
 193 649 l 257
 193 -217 l 257
 241 -217 l 257
NamedP: "hr00"
EndSplineSet
PickledDataWithLists: "(dp1
S'com.adobe.type.autohint'
p2
(S'data'
S'<data>\\n  <hintSetList>\\n    <hintset pointTag=\"hr00\">\\n      <hstem pos=\"-217\" width=\"866\"/>\\n      <vstem pos=\"193\" width=\"48\"/>\\n    </hintset>\\n  </hintSetList>\\n  </data>'
Ntp3
s."
EndChar

StartChar: braceright
Encoding: 93 125 93
GlifName: braceright
Width: 382
VWidth: 0
Flags: W
LayerCount: 2
Back
Fore
SplineSet
83 -202 m 257
NamedP: "hr00"
 134 -202 169 -192 188 -172 c 256
 206 -153 215 -117 215 -63 c 258
 215 48 l 258
 215 148 236 186 300 201 c 257
 300 255 l 257
 236 271 215 308 215 408 c 258
 215 520 l 258
 215 573 205 610 187 629 c 256
 168 649 134 659 83 659 c 257
 83 622 l 257
 154 627 176 600 176 520 c 258
 176 408 l 258
 176 345 184 299 201 272 c 256
 214 253 234 239 259 228 c 257
 259 230 l 257
 234 219 214 203 201 184 c 256
 184 157 176 112 176 48 c 258
 176 -63 l 258
 176 -144 154 -171 83 -166 c 257
 83 -202 l 257
NamedP: "hr00"
EndSplineSet
PickledDataWithLists: "(dp1
S'com.adobe.type.autohint'
p2
(S'data'
S'<data>\\n  <hintSetList>\\n    <hintset pointTag=\"hr00\">\\n      <hstem pos=\"-202\" width=\"36\"/>\\n      <vstem pos=\"176\" width=\"39\"/>\\n      <vstem pos=\"259\" width=\"41\"/>\\n    </hintset>\\n  </hintSetList>\\n  </data>'
Ntp3
s."
EndChar

StartChar: asciitilde
Encoding: 94 126 94
GlifName: asciitilde
Width: 862
VWidth: 0
Flags: W
LayerCount: 2
Back
Fore
SplineSet
213 177 m 257
NamedP: "hr00"
 232 225 267 249 308 249 c 256
 329 249 365 241 424 218 c 256
 481 196 527 185 558 185 c 256
 615 185 669 222 698 285 c 257
 654 308 l 257
 633 260 598 236 558 236 c 256
 535 236 500 244 441 267 c 256
 384 289 337 300 308 300 c 256
 249 300 196 263 167 200 c 257
 213 177 l 257
NamedP: "hr00"
EndSplineSet
PickledDataWithLists: "(dp1
S'com.adobe.type.autohint'
p2
(S'data'
S'<data>\\n  <hintSetList>\\n    <hintset pointTag=\"hr00\">\\n      <hstem pos=\"185\" width=\"51\"/>\\n      <hstem pos=\"249\" width=\"51\"/>\\n      <vstem pos=\"167\" width=\"531\"/>\\n    </hintset>\\n  </hintSetList>\\n  </data>'
Ntp3
s."
EndChar

StartChar: ellipsis
Encoding: 95 8230 95
GlifName: ellipsis
Width: 958
VWidth: 0
Flags: W
LayerCount: 2
Back
Fore
SplineSet
739 -38 m 257
NamedP: "hr00"
 919 -38 l 257
 919 28 l 257
 739 28 l 257
 739 -38 l 257
NamedP: "hr00"
386 -38 m 257
 567 -38 l 257
 567 28 l 257
 386 28 l 257
 386 -38 l 257
19 -38 m 257
 199 -38 l 257
 199 28 l 257
 19 28 l 257
 19 -38 l 257
EndSplineSet
PickledDataWithLists: "(dp1
S'com.adobe.type.autohint'
p2
(S'data'
S'<data>\\n  <hintSetList>\\n    <hintset pointTag=\"hr00\">\\n      <hstem pos=\"-38\" width=\"66\"/>\\n      <vstem pos=\"19\" width=\"180\"/>\\n      <vstem pos=\"386\" width=\"181\"/>\\n      <vstem pos=\"739\" width=\"180\"/>\\n    </hintset>\\n  </hintSetList>\\n  </data>'
Ntp3
s."
EndChar

StartChar: quoteleft
Encoding: 96 8216 96
GlifName: quoteleft
Width: 152
VWidth: 0
Flags: W
LayerCount: 2
Back
Fore
SplineSet
111 563 m 256
NamedP: "hr00"
 111 578 90 587 77 580 c 256
 32 557 11 507 11 455 c 256
 11 424 26 409 57 409 c 256
 86 409 100 423 100 452 c 256
 100 482 86 496 59 493 c 257
 61 503 68 514 79 526 c 256
 100 548 111 560 111 563 c 256
NamedP: "hr00"
EndSplineSet
PickledDataWithLists: "(dp1
S'com.adobe.type.autohint'
p2
(S'data'
S'<data>\\n  <hintSetList>\\n    <hintset pointTag=\"hr00\">\\n      <hstem pos=\"409\" width=\"173\"/>\\n      <hstem pos=\"409\" width=\"84\"/>\\n      <vstem pos=\"11\" width=\"89\"/>\\n    </hintset>\\n  </hintSetList>\\n  </data>'
Ntp3
s."
EndChar

StartChar: quoteright
Encoding: 97 8217 97
GlifName: quoteright
Width: 152
VWidth: 0
Flags: W
LayerCount: 2
Back
Fore
SplineSet
145 538 m 256
NamedP: "hr00"
 145 569 129 584 98 584 c 256
 69 584 55 570 55 543 c 256
 55 513 69 499 96 501 c 257
 95 491 90 480 78 468 c 256
 56 446 45 435 45 432 c 256
 45 416 65 408 78 415 c 256
 119 438 145 489 145 538 c 256
NamedP: "hr00"
EndSplineSet
PickledDataWithLists: "(dp1
S'com.adobe.type.autohint'
p2
(S'data'
S'<data>\\n  <hintSetList>\\n    <hintset pointTag=\"hr00\">\\n      <hstem pos=\"501\" width=\"83\"/>\\n      <vstem pos=\"55\" width=\"90\"/>\\n    </hintset>\\n  </hintSetList>\\n  </data>'
Ntp3
s."
EndChar

StartChar: quotedblleft
Encoding: 98 8220 98
GlifName: quotedblleft
Width: 290
VWidth: 0
Flags: W
LayerCount: 2
Back
Fore
SplineSet
249 563 m 256
NamedP: "hr00"
 249 578 229 588 214 580 c 256
 170 557 149 507 149 455 c 256
 149 424 164 409 195 409 c 256
 223 409 237 423 237 452 c 256
 237 482 224 496 197 493 c 257
 199 503 206 514 217 526 c 256
 238 548 249 560 249 563 c 256
NamedP: "hr00"
111 563 m 256
 111 578 90 587 77 580 c 256
 32 557 11 507 11 455 c 256
 11 424 26 409 57 409 c 256
 86 409 100 423 100 452 c 256
 100 482 86 496 59 493 c 257
 61 503 68 514 79 526 c 256
 100 548 111 560 111 563 c 256
EndSplineSet
PickledDataWithLists: "(dp1
S'com.adobe.type.autohint'
p2
(S'data'
S'<data>\\n  <hintSetList>\\n    <hintset pointTag=\"hr00\">\\n      <hstem pos=\"409\" width=\"84\"/>\\n      <vstem pos=\"11\" width=\"89\"/>\\n      <vstem pos=\"149\" width=\"88\"/>\\n    </hintset>\\n  </hintSetList>\\n  </data>'
Ntp3
s."
EndChar

StartChar: quotedblright
Encoding: 99 8221 99
GlifName: quotedblright
Width: 290
VWidth: 0
Flags: W
LayerCount: 2
Back
Fore
SplineSet
45 429 m 256
NamedP: "hr00"
 45 414 66 406 79 411 c 257
 124 435 145 485 145 537 c 256
 145 568 130 583 99 583 c 256
 70 583 56 569 56 540 c 256
 56 510 70 496 97 499 c 257
 95 489 88 478 77 466 c 256
 56 444 45 432 45 429 c 256
NamedP: "hr00"
183 429 m 256
 183 414 204 406 217 411 c 257
 262 435 283 485 283 537 c 256
 283 568 268 583 237 583 c 256
 208 583 194 569 194 540 c 256
 194 510 208 496 235 499 c 257
 233 489 226 478 215 466 c 256
 194 444 183 432 183 429 c 256
EndSplineSet
PickledDataWithLists: "(dp1
S'com.adobe.type.autohint'
p2
(S'data'
S'<data>\\n  <hintSetList>\\n    <hintset pointTag=\"hr00\">\\n      <hstem pos=\"499\" width=\"84\"/>\\n      <vstem pos=\"56\" width=\"89\"/>\\n      <vstem pos=\"194\" width=\"89\"/>\\n    </hintset>\\n  </hintSetList>\\n  </data>'
Ntp3
s."
EndChar

StartChar: bullet
Encoding: 100 8226 100
GlifName: bullet
Width: 533
VWidth: 0
Flags: W
LayerCount: 2
Back
Fore
SplineSet
245 256 m 257
NamedP: "hr00"
 240 253 236 250 233 249 c 257
 233 263 238 280 244 301 c 256
 249 316 254 334 263 356 c 256
 272 376 276 388 276 405 c 256
 276 418 270 429 259 440 c 256
 249 450 237 457 223 462 c 257
 190 453 167 431 167 399 c 256
 167 391 169 380 174 366 c 256
 178 357 209 282 209 256 c 258
 209 249 l 257
 200 253 189 261 178 276 c 258
 148 316 l 258
 136 333 126 345 119 352 c 256
 106 363 93 369 78 369 c 256
 65 369 54 366 44 359 c 256
 40 357 33 353 24 346 c 257
 23 320 l 258
 22 296 33 279 52 268 c 257
 63 263 83 257 112 253 c 256
 148 247 182 238 199 229 c 257
 187 221 157 211 129 207 c 258
 93 202 l 258
 72 199 56 194 45 186 c 256
 30 175 22 160 22 140 c 256
 22 132 23 126 24 110 c 257
 48 95 56 89 79 89 c 256
 92 89 103 93 113 100 c 256
 121 107 129 116 138 128 c 256
 154 150 166 165 173 174 c 256
 187 190 199 201 209 207 c 257
 209 208 l 257
 209 183 201 160 189 128 c 258
 179 102 l 258
 172 85 169 70 169 57 c 256
 169 41 174 28 185 17 c 257
 194 6 207 -2 223 -6 c 257
 255 2 277 24 277 59 c 256
 277 70 275 78 271 85 c 257
 271 88 270 93 268 100 c 257
 253 130 l 257
 248 143 243 155 239 168 c 256
 234 183 232 195 232 205 c 258
 232 207 l 257
 243 200 255 190 268 176 c 257
 302 131 l 258
 312 117 321 107 329 100 c 257
 340 93 353 89 368 89 c 256
 387 89 401 95 417 110 c 257
 420 117 421 128 421 137 c 256
 421 172 392 197 355 202 c 258
 315 207 l 258
 287 211 263 219 243 229 c 257
 254 236 270 242 290 246 c 258
 346 256 l 257
 393 257 422 285 422 318 c 256
 422 327 421 333 417 346 c 257
 396 361 382 368 365 368 c 256
 351 368 339 363 328 354 c 256
 322 349 314 339 304 326 c 258
 284 301 l 257
 245 256 l 257
NamedP: "hr00"
EndSplineSet
PickledDataWithLists: "(dp1
S'com.adobe.type.autohint'
p2
(S'data'
S'<data>\\n  <hintSetList>\\n    <hintset pointTag=\"hr00\">\\n      <hstem pos=\"15\" width=\"-21\"/>\\n      <hstem pos=\"89\" width=\"115\"/>\\n      <vstem pos=\"209\" width=\"24\"/>\\n    </hintset>\\n  </hintSetList>\\n  </data>'
Ntp3
s."
EndChar

StartChar: endash
Encoding: 101 8211 101
GlifName: endash
Width: 610
VWidth: 0
Flags: W
LayerCount: 2
Back
Fore
SplineSet
19 178 m 257
NamedP: "hr00"
 570 178 l 257
 570 254 l 257
 19 254 l 257
 19 178 l 257
NamedP: "hr00"
EndSplineSet
PickledDataWithLists: "(dp1
S'com.adobe.type.autohint'
p2
(S'data'
S'<data>\\n  <hintSetList>\\n    <hintset pointTag=\"hr00\">\\n      <hstem pos=\"178\" width=\"76\"/>\\n      <vstem pos=\"19\" width=\"551\"/>\\n    </hintset>\\n  </hintSetList>\\n  </data>'
Ntp3
s."
EndChar

StartChar: emdash
Encoding: 102 8212 102
GlifName: emdash
Width: 1329
VWidth: 0
Flags: W
LayerCount: 2
Back
Fore
SplineSet
3 178 m 257
NamedP: "hr00"
 1258 178 l 257
 1258 254 l 257
 3 254 l 257
 3 178 l 257
NamedP: "hr00"
EndSplineSet
PickledDataWithLists: "(dp1
S'com.adobe.type.autohint'
p2
(S'data'
S'<data>\\n  <hintSetList>\\n    <hintset pointTag=\"hr00\">\\n      <hstem pos=\"178\" width=\"76\"/>\\n      <vstem pos=\"3\" width=\"1255\"/>\\n    </hintset>\\n  </hintSetList>\\n  </data>'
Ntp3
s."
EndChar

StartChar: cent
Encoding: 103 162 103
GlifName: cent
Width: 626
VWidth: 0
Flags: W
LayerCount: 2
Back
Fore
SplineSet
318 457 m 257
NamedP: "hr00"
 180 108 l 257
 164 127 151 150 141 178 c 256
 131 206 126 236 126 269 c 256
 126 327 138 374 165 410 c 256
 191 445 228 462 272 462 c 256
 283 462 298 460 318 455 c 257
 318 457 l 257
NamedP: "hr00"
70 269 m 256
 70 224 79 182 95 145 c 256
 111 108 133 78 162 56 c 257
 116 -61 l 257
 168 -61 l 257
 206 36 l 257
 227 29 249 26 272 26 c 256
 328 26 374 41 409 71 c 256
 446 102 466 144 469 197 c 257
 413 197 l 257
 409 159 394 130 369 109 c 256
 343 86 311 75 272 75 c 256
 259 75 243 78 226 83 c 257
 362 434 l 257
 374 423 384 409 393 394 c 257
 400 379 405 363 407 348 c 257
 465 348 l 257
 463 376 454 401 438 424 c 256
 423 447 404 467 379 483 c 257
 429 610 l 257
 377 610 l 257
 334 503 l 257
 317 508 296 510 272 510 c 256
 211 510 161 488 124 444 c 256
 88 400 70 342 70 269 c 256
EndSplineSet
PickledDataWithLists: "(dp1
S'com.adobe.type.autohint'
p2
(S'data'
S'<data>\\n  <hintSetList>\\n    <hintset pointTag=\"hr00\">\\n      <hstem pos=\"26\" width=\"49\"/>\\n      <hstem pos=\"462\" width=\"48\"/>\\n      <vstem pos=\"70\" width=\"56\"/>\\n      <vstem pos=\"407\" width=\"58\"/>\\n      <vstem pos=\"413\" width=\"56\"/>\\n    </hintset>\\n  </hintSetList>\\n  </data>'
Ntp3
s."
EndChar

StartChar: copyright
Encoding: 104 169 104
GlifName: copyright
Width: 717
VWidth: 0
Flags: W
LayerCount: 2
Back
Fore
SplineSet
365 618 m 256
NamedP: "hr00"
 281 618 204 586 145 526 c 256
 85 465 51 387 51 303 c 256
 51 220 83 144 144 83 c 256
 205 22 282 -11 365 -11 c 256
 448 -11 526 22 588 84 c 256
 648 144 680 218 680 303 c 256
 680 388 648 466 588 525 c 256
 527 585 449 618 365 618 c 256
NamedP: "hr00"
635 303 m 256
 635 230 608 164 558 114 c 256
 506 62 437 33 365 33 c 256
 293 33 226 61 174 113 c 256
 122 165 95 231 95 303 c 256
 95 375 122 444 175 497 c 256
 224 547 292 574 365 574 c 256
 438 574 507 547 558 495 c 256
 608 444 635 378 635 303 c 256
513 379 m 257
 504 458 447 502 368 502 c 256
 317 502 275 484 244 448 c 256
 213 412 197 365 197 306 c 256
 197 183 261 106 364 106 c 256
 447 106 510 154 517 237 c 257
 460 237 l 257
 449 184 414 156 366 156 c 256
 302 156 260 211 260 302 c 256
 260 398 301 452 366 452 c 256
 411 452 443 430 456 379 c 257
 513 379 l 257
EndSplineSet
PickledDataWithLists: "(dp1
S'com.adobe.type.autohint'
p2
(S'data'
S'<data>\\n  <hintSetList>\\n    <hintset pointTag=\"hr00\">\\n      <hstem pos=\"-11\" width=\"44\"/>\\n      <hstem pos=\"106\" width=\"50\"/>\\n      <hstem pos=\"452\" width=\"50\"/>\\n      <hstem pos=\"574\" width=\"44\"/>\\n      <vstem pos=\"51\" width=\"44\"/>\\n      <vstem pos=\"197\" width=\"63\"/>\\n      <vstem pos=\"635\" width=\"45\"/>\\n    </hintset>\\n  </hintSetList>\\n  </data>'
Ntp3
s."
EndChar

StartChar: registered
Encoding: 105 174 105
GlifName: registered
Width: 717
VWidth: 0
Flags: W
LayerCount: 2
Back
Fore
SplineSet
365 618 m 256
NamedP: "hr00"
 281 618 204 586 145 526 c 256
 85 465 51 387 51 303 c 256
 51 220 83 144 144 83 c 256
 205 22 282 -11 365 -11 c 256
 448 -11 526 22 588 84 c 256
 648 144 680 218 680 303 c 256
 680 388 648 466 588 525 c 256
 527 585 449 618 365 618 c 256
NamedP: "hr00"
635 303 m 256
 635 230 608 164 558 114 c 256
 506 62 437 33 365 33 c 256
 293 33 226 61 174 113 c 256
 122 165 95 231 95 303 c 256
 95 375 122 444 175 497 c 256
 224 547 292 574 365 574 c 256
 438 574 507 547 558 495 c 256
 608 444 635 378 635 303 c 256
238 493 m 257
 238 123 l 257
 300 123 l 257
 300 282 l 257
 380 282 l 257
 457 123 l 257
 526 123 l 257
 446 290 l 257
 487 294 528 333 528 389 c 256
 528 461 478 493 374 493 c 258
 238 493 l 257
365 446 m 258
 436 446 465 427 465 390 c 256
 465 343 442 329 365 329 c 258
 300 329 l 257
 300 446 l 257
 365 446 l 258
EndSplineSet
PickledDataWithLists: "(dp1
S'com.adobe.type.autohint'
p2
(S'data'
S'<data>\\n  <hintSetList>\\n    <hintset pointTag=\"hr00\">\\n      <hstem pos=\"-11\" width=\"44\"/>\\n      <hstem pos=\"282\" width=\"47\"/>\\n      <hstem pos=\"446\" width=\"47\"/>\\n      <hstem pos=\"574\" width=\"44\"/>\\n      <vstem pos=\"51\" width=\"44\"/>\\n      <vstem pos=\"238\" width=\"62\"/>\\n      <vstem pos=\"465\" width=\"63\"/>\\n      <vstem pos=\"635\" width=\"45\"/>\\n    </hintset>\\n  </hintSetList>\\n  </data>'
Ntp3
s."
EndChar

StartChar: onequarter
Encoding: 106 188 106
GlifName: onequarter
Width: 721
VWidth: 0
Flags: W
LayerCount: 2
Back
Fore
SplineSet
203 246 m 257
NamedP: "hr00"
 203 606 l 257
 149 606 l 257
 144 554 120 540 63 540 c 258
 50 540 l 257
 50 497 l 257
 66 497 l 258
 90 497 113 499 136 503 c 256
 159 508 162 510 144 510 c 257
 144 246 l 257
 203 246 l 257
NamedP: "hr00"
206 -29 m 257
 607 614 l 257
 536 614 l 257
 134 -29 l 257
 206 -29 l 257
674 -11 m 257
 674 72 l 257
 724 72 l 257
 724 122 l 257
 674 122 l 257
 674 339 l 257
 619 339 l 257
 451 115 l 257
 451 72 l 257
 616 72 l 257
 616 -11 l 257
 674 -11 l 257
519 122 m 257
 616 253 l 257
 616 122 l 257
 519 122 l 257
EndSplineSet
PickledDataWithLists: "(dp1
S'com.adobe.type.autohint'
p2
(S'data'
S'<data>\\n  <hintSetList>\\n    <hintset pointTag=\"hr00\">\\n      <hstem pos=\"-11\" width=\"133\"/>\\n      <hstem pos=\"72\" width=\"50\"/>\\n      <hstem pos=\"497\" width=\"43\"/>\\n      <vstem pos=\"144\" width=\"59\"/>\\n      <vstem pos=\"616\" width=\"58\"/>\\n    </hintset>\\n  </hintSetList>\\n  </data>'
Ntp3
s."
EndChar

StartChar: onehalf
Encoding: 107 189 107
GlifName: onehalf
Width: 721
VWidth: 0
Flags: W
LayerCount: 2
Back
Fore
SplineSet
203 246 m 257
NamedP: "hr00"
 203 606 l 257
 149 606 l 257
 144 554 120 540 63 540 c 258
 50 540 l 257
 50 497 l 257
 66 497 l 258
 90 497 113 499 136 503 c 256
 159 508 162 510 144 510 c 257
 144 246 l 257
 203 246 l 257
NamedP: "hr00"
206 -29 m 257
 607 614 l 257
 536 614 l 257
 134 -29 l 257
 206 -29 l 257
719 -11 m 257
 719 38 l 257
 510 38 l 257
 511 47 529 73 584 101 c 258
 613 116 l 258
 650 135 674 150 686 163 c 257
 710 184 720 210 720 239 c 256
 720 307 670 348 594 348 c 256
 511 348 462 308 459 215 c 257
 517 215 l 257
 518 276 544 299 593 299 c 256
 637 299 661 276 661 239 c 256
 661 220 654 209 642 194 c 257
 633 187 614 175 584 160 c 256
 569 152 557 146 549 141 c 256
 480 104 450 65 450 10 c 258
 450 -11 l 257
 719 -11 l 257
EndSplineSet
PickledDataWithLists: "(dp1
S'com.adobe.type.autohint'
p2
(S'data'
S'<data>\\n  <hintSetList>\\n    <hintset pointTag=\"hr00\">\\n      <hstem pos=\"-11\" width=\"49\"/>\\n      <hstem pos=\"299\" width=\"49\"/>\\n      <hstem pos=\"497\" width=\"43\"/>\\n      <vstem pos=\"144\" width=\"59\"/>\\n      <vstem pos=\"450\" width=\"60\"/>\\n      <vstem pos=\"459\" width=\"58\"/>\\n      <vstem pos=\"661\" width=\"59\"/>\\n    </hintset>\\n  </hintSetList>\\n  </data>'
Ntp3
s."
EndChar

StartChar: threequarters
Encoding: 108 190 108
GlifName: threequarters
Width: 720
VWidth: 0
Flags: W
LayerCount: 2
Back
Fore
SplineSet
18 354 m 258
NamedP: "hr00"
 18 281 69 237 152 237 c 256
 236 237 287 280 287 349 c 256
 287 374 280 394 267 411 c 256
 254 428 247 437 244 437 c 256
 243 437 248 444 258 457 c 256
 269 471 274 488 274 508 c 256
 274 568 228 606 155 606 c 256
 79 606 34 568 29 484 c 257
 87 484 l 257
 88 539 112 557 155 557 c 256
 194 557 216 537 216 508 c 256
 216 473 192 455 140 455 c 258
 115 455 l 257
 115 406 l 257
 134 409 134 408 142 408 c 256
 202 408 227 389 227 349 c 256
 227 308 200 286 151 286 c 256
 104 286 79 307 78 366 c 257
 18 366 l 257
 18 354 l 258
NamedP: "hr00"
205 -29 m 257
 608 614 l 257
 536 614 l 257
 134 -29 l 257
 205 -29 l 257
673 -11 m 257
 673 72 l 257
 724 72 l 257
 724 122 l 257
 673 122 l 257
 673 339 l 257
 618 339 l 257
 451 115 l 257
 451 72 l 257
 616 72 l 257
 616 -11 l 257
 673 -11 l 257
519 122 m 257
 616 253 l 257
 616 122 l 257
 519 122 l 257
EndSplineSet
PickledDataWithLists: "(dp1
S'com.adobe.type.autohint'
p2
(S'data'
S'<data>\\n  <hintSetList>\\n    <hintset pointTag=\"hr00\">\\n      <hstem pos=\"-11\" width=\"133\"/>\\n      <hstem pos=\"72\" width=\"50\"/>\\n      <hstem pos=\"237\" width=\"49\"/>\\n      <hstem pos=\"408\" width=\"47\"/>\\n      <hstem pos=\"557\" width=\"49\"/>\\n      <vstem pos=\"18\" width=\"60\"/>\\n      <vstem pos=\"29\" width=\"58\"/>\\n      <vstem pos=\"216\" width=\"58\"/>\\n      <vstem pos=\"227\" width=\"60\"/>\\n      <vstem pos=\"616\" width=\"57\"/>\\n    </hintset>\\n  </hintSetList>\\n  </data>'
Ntp3
s."
EndChar

StartChar: multiply
Encoding: 109 215 109
GlifName: multiply
Width: 545
VWidth: 0
Flags: W
LayerCount: 2
Back
Fore
SplineSet
117 -7 m 257
NamedP: "hr00"
 276 151 l 257
 432 -5 l 257
 481 45 l 257
 326 201 l 257
 481 356 l 257
 431 407 l 257
 276 252 l 257
 121 407 l 257
 70 356 l 257
 225 201 l 257
 70 45 l 257
 117 -2 l 257
 117 -7 l 257
NamedP: "hr00"
EndSplineSet
PickledDataWithLists: "(dp1
S'com.adobe.type.autohint'
p2
(S'data'
S'<data>\\n  <hintSetList>\\n    <hintset pointTag=\"hr00\">\\n      <hstem pos=\"16\" width=\"-21\"/>\\n      <hstem pos=\"19\" width=\"-21\"/>\\n      <hstem pos=\"407\" width=\"-20\"/>\\n      <vstem pos=\"70\" width=\"411\"/>\\n    </hintset>\\n  </hintSetList>\\n  </data>'
Ntp3
s."
EndChar

StartChar: divide
Encoding: 110 247 110
GlifName: divide
Width: 583
VWidth: 0
Flags: W
LayerCount: 2
Back
Fore
SplineSet
232 355 m 256
NamedP: "hr00"
 232 340 238 327 250 316 c 256
 262 305 276 300 292 300 c 256
 309 300 323 307 334 320 c 257
 347 331 354 344 354 361 c 256
 354 377 347 390 334 401 c 256
 323 411 309 416 292 416 c 256
 276 416 262 410 250 398 c 256
 238 387 232 373 232 355 c 256
NamedP: "hr00"
70 172 m 257
 518 172 l 257
 518 243 l 257
 70 243 l 257
 70 175 l 257
 70 172 l 257
232 54 m 256
 232 39 238 25 250 14 c 256
 262 3 276 -2 292 -2 c 256
 309 -2 323 4 334 16 c 257
 347 27 354 42 354 59 c 256
 354 75 347 88 334 99 c 256
 323 109 309 114 292 114 c 256
 276 114 262 108 250 97 c 256
 238 85 232 71 232 54 c 256
EndSplineSet
PickledDataWithLists: "(dp1
S'com.adobe.type.autohint'
p2
(S'data'
S'<data>\\n  <hintSetList>\\n    <hintset pointTag=\"hr00\">\\n      <hstem pos=\"19\" width=\"-21\"/>\\n      <hstem pos=\"172\" width=\"71\"/>\\n      <hstem pos=\"416\" width=\"-20\"/>\\n      <vstem pos=\"70\" width=\"448\"/>\\n      <vstem pos=\"232\" width=\"122\"/>\\n    </hintset>\\n  </hintSetList>\\n  </data>'
Ntp3
s."
EndChar

StartChar: .notdef
Encoding: 111 -1 111
GlifName: _notdef
Width: 800
VWidth: 0
Flags: W
LayerCount: 2
Back
Fore
SplineSet
650 50 m 257
NamedP: "hr00"
 150 50 l 257
 150 650 l 257
 650 650 l 257
 650 50 l 257
NamedP: "hr00"
100 700 m 257
 100 0 l 257
 700 0 l 257
 700 700 l 257
 100 700 l 257
EndSplineSet
PickledDataWithLists: "(dp1
S'com.adobe.type.autohint'
p2
(S'data'
S'<data>\\n  <hintSetList>\\n    <hintset pointTag=\"hr00\">\\n      <hstem pos=\"0\" width=\"50\"/>\\n      <hstem pos=\"650\" width=\"50\"/>\\n      <vstem pos=\"100\" width=\"50\"/>\\n      <vstem pos=\"650\" width=\"50\"/>\\n    </hintset>\\n  </hintSetList>\\n  </data>'
Ntp3
s."
EndChar

StartChar: uni0950
Encoding: 114 2384 114
GlifName: uni0950
Width: 717
VWidth: 0
Flags: W
LayerCount: 2
Back
Fore
SplineSet
327 624 m 257
NamedP: "hr00"
 375 574 l 257
 424 621 l 257
 375 670 l 257
 327 624 l 257
NamedP: "hr00"
245 583 m 257
 288 517 340 484 400 484 c 256
 439 484 479 505 519 548 c 257
 457 600 l 257
 431 565 401 547 366 547 c 256
 330 547 299 565 272 600 c 257
 245 583 l 257
481 364 m 257
 496 395 520 410 555 410 c 256
 606 410 641 359 641 287 c 256
 641 211 601 155 549 155 c 256
 518 155 503 180 503 231 c 258
 503 257 l 257
 503 308 l 258
 503 338 496 357 481 364 c 257
34 311 m 257
 41 221 70 146 119 86 c 256
 168 27 226 -3 291 -3 c 256
 375 -3 428 49 428 125 c 256
 428 172 410 220 374 269 c 257
 399 286 420 294 437 294 c 256
 456 294 466 275 466 238 c 258
 466 206 l 258
 466 119 489 87 545 87 c 256
 626 87 678 167 678 292 c 256
 678 416 639 478 563 478 c 256
 504 478 468 443 456 374 c 257
 451 375 446 375 443 375 c 256
 408 375 371 357 334 321 c 257
 325 330 l 257
 331 344 334 360 334 377 c 256
 334 460 278 516 201 516 c 256
 171 516 141 509 112 494 c 257
 143 420 l 257
 178 438 210 447 239 447 c 256
 278 447 297 431 297 399 c 256
 297 356 263 324 196 305 c 257
 228 229 l 257
 259 244 285 265 306 294 c 257
 346 253 366 208 366 157 c 256
 366 104 324 60 272 60 c 256
 222 60 178 84 139 131 c 256
 100 178 75 242 63 321 c 257
 34 311 l 257
EndSplineSet
PickledDataWithLists: "(dp1
S'com.adobe.type.autohint'
p2
(S'data'
S'<data>\\n  <hintSetList>\\n    <hintset pointTag=\"hr00\">\\n      <hstem pos=\"-3\" width=\"63\"/>\\n      <hstem pos=\"87\" width=\"68\"/>\\n      <hstem pos=\"294\" width=\"81\"/>\\n      <hstem pos=\"410\" width=\"68\"/>\\n      <hstem pos=\"447\" width=\"69\"/>\\n      <hstem pos=\"484\" width=\"63\"/>\\n      <vstem pos=\"297\" width=\"37\"/>\\n      <vstem pos=\"366\" width=\"62\"/>\\n      <vstem pos=\"466\" width=\"37\"/>\\n      <vstem pos=\"641\" width=\"37\"/>\\n    </hintset>\\n  </hintSetList>\\n  </data>'
Ntp3
s."
EndChar

StartChar: uni0951
Encoding: 115 2385 115
GlifName: uni0951
Width: 0
VWidth: 0
Flags: W
LayerCount: 2
Back
Fore
SplineSet
-184 1270 m 257
NamedP: "hr00"
 -245 1270 l 257
 -245 867 l 257
 -184 867 l 257
 -184 1270 l 257
NamedP: "hr00"
EndSplineSet
PickledDataWithLists: "(dp1
S'com.adobe.type.autohint'
p2
(S'data'
S'<data>\\n  <hintSetList>\\n    <hintset pointTag=\"hr00\">\\n      <hstem pos=\"867\" width=\"403\"/>\\n      <vstem pos=\"-245\" width=\"61\"/>\\n    </hintset>\\n  </hintSetList>\\n  </data>'
Ntp3
s."
EndChar

StartChar: uni0952
Encoding: 116 2386 116
GlifName: uni0952
Width: 0
VWidth: 0
Flags: W
LayerCount: 2
Back
Fore
SplineSet
-47 -336 m 257
NamedP: "hr00"
 -606 -336 l 257
 -606 -392 l 257
 -47 -392 l 257
 -47 -336 l 257
NamedP: "hr00"
EndSplineSet
PickledDataWithLists: "(dp1
S'com.adobe.type.autohint'
p2
(S'data'
S'<data>\\n  <hintSetList>\\n    <hintset pointTag=\"hr00\">\\n      <hstem pos=\"-392\" width=\"56\"/>\\n      <vstem pos=\"-606\" width=\"559\"/>\\n    </hintset>\\n  </hintSetList>\\n  </data>'
Ntp3
s."
EndChar

StartChar: uni0964
Encoding: 117 2404 117
GlifName: uni0964
Width: 236
VWidth: 0
Flags: W
LayerCount: 2
Back
Fore
SplineSet
157 456 m 257
NamedP: "hr00"
 77 456 l 257
 77 -23 l 257
 157 -23 l 257
 157 456 l 257
NamedP: "hr00"
EndSplineSet
PickledDataWithLists: "(dp1
S'com.adobe.type.autohint'
p2
(S'data'
S'<data>\\n  <hintSetList>\\n    <hintset pointTag=\"hr00\">\\n      <hstem pos=\"-23\" width=\"479\"/>\\n      <vstem pos=\"77\" width=\"80\"/>\\n    </hintset>\\n  </hintSetList>\\n  </data>'
Ntp3
s."
EndChar

StartChar: uni0965
Encoding: 118 2405 118
GlifName: uni0965
Width: 424
VWidth: 0
Flags: W
LayerCount: 2
Back
Fore
SplineSet
338 456 m 257
NamedP: "hr00"
 258 456 l 257
 258 -23 l 257
 338 -23 l 257
 338 456 l 257
NamedP: "hr00"
159 460 m 257
 79 460 l 257
 79 -21 l 257
 159 -21 l 257
 159 460 l 257
EndSplineSet
PickledDataWithLists: "(dp1
S'com.adobe.type.autohint'
p2
(S'data'
S'<data>\\n  <hintSetList>\\n    <hintset pointTag=\"hr00\">\\n      <hstem pos=\"-23\" width=\"483\"/>\\n      <vstem pos=\"79\" width=\"80\"/>\\n      <vstem pos=\"258\" width=\"80\"/>\\n    </hintset>\\n  </hintSetList>\\n  </data>'
Ntp3
s."
EndChar

StartChar: uni0C01
Encoding: 119 3073 119
GlifName: uni0C01_
Width: 335
VWidth: 0
Flags: W
LayerCount: 2
Back
Fore
SplineSet
252 37 m 256
NamedP: "hr00"
 203 37 160 55 125 90 c 256
 90 126 73 168 73 215 c 256
 73 263 90 303 123 336 c 256
 157 369 198 386 247 386 c 256
 271 386 283 394 283 411 c 256
 283 428 271 436 246 436 c 256
 185 436 132 415 88 373 c 256
 44 331 22 278 22 215 c 256
 22 152 44 99 88 54 c 256
 133 9 187 -13 250 -13 c 256
 272 -13 283 -4 283 15 c 256
 283 30 273 37 252 37 c 256
NamedP: "hr00"
EndSplineSet
PickledDataWithLists: "(dp1
S'com.adobe.type.autohint'
p2
(S'data'
S'<data>\\n  <hintSetList>\\n    <hintset pointTag=\"hr00\">\\n      <hstem pos=\"-13\" width=\"50\"/>\\n      <hstem pos=\"386\" width=\"50\"/>\\n      <vstem pos=\"22\" width=\"51\"/>\\n    </hintset>\\n  </hintSetList>\\n  </data>'
Ntp3
s."
EndChar

StartChar: uni0C02
Encoding: 120 3074 120
GlifName: uni0C02_
Width: 535
VWidth: 0
Flags: W
LayerCount: 2
Back
Fore
SplineSet
431 208 m 256
NamedP: "hr00"
 431 159 414 118 381 85 c 256
 348 53 305 37 252 37 c 256
 203 37 160 55 125 90 c 256
 90 126 73 168 73 215 c 256
 73 263 90 303 123 336 c 256
 157 369 198 386 247 386 c 256
 355 386 431 317 431 208 c 256
NamedP: "hr00"
481 207 m 256
 481 272 459 326 414 370 c 256
 370 413 314 436 246 436 c 256
 185 436 132 415 88 373 c 256
 44 331 22 278 22 215 c 256
 22 152 44 99 88 54 c 256
 133 9 187 -13 250 -13 c 256
 318 -13 373 8 416 50 c 256
 459 92 481 144 481 207 c 256
EndSplineSet
PickledDataWithLists: "(dp1
S'com.adobe.type.autohint'
p2
(S'data'
S'<data>\\n  <hintSetList>\\n    <hintset pointTag=\"hr00\">\\n      <hstem pos=\"-13\" width=\"50\"/>\\n      <hstem pos=\"386\" width=\"50\"/>\\n      <vstem pos=\"22\" width=\"51\"/>\\n      <vstem pos=\"431\" width=\"50\"/>\\n    </hintset>\\n  </hintSetList>\\n  </data>'
Ntp3
s."
EndChar

StartChar: uni0C03
Encoding: 121 3075 121
GlifName: uni0C03_
Width: 270
VWidth: 0
Flags: W
LayerCount: 2
Back
Fore
SplineSet
171 90 m 256
NamedP: "hr00"
 171 55 152 37 121 37 c 256
 93 37 69 61 69 90 c 256
 69 111 92 136 121 136 c 256
 146 136 171 118 171 90 c 256
NamedP: "hr00"
170 339 m 256
 170 310 149 290 121 290 c 256
 93 290 69 310 69 339 c 256
 69 373 86 390 121 390 c 256
 150 390 170 367 170 339 c 256
217 90 m 256
 217 141 174 180 121 180 c 256
 62 180 22 145 22 90 c 256
 22 27 60 -10 121 -10 c 256
 180 -10 217 34 217 90 c 256
217 338 m 256
 217 390 176 436 121 436 c 256
 62 436 22 390 22 338 c 256
 22 278 65 240 121 240 c 256
 176 240 217 286 217 338 c 256
EndSplineSet
PickledDataWithLists: "(dp1
S'com.adobe.type.autohint'
p2
(S'data'
S'<data>\\n  <hintSetList>\\n    <hintset pointTag=\"hr00\">\\n      <hstem pos=\"-10\" width=\"47\"/>\\n      <hstem pos=\"136\" width=\"44\"/>\\n      <hstem pos=\"240\" width=\"50\"/>\\n      <hstem pos=\"390\" width=\"46\"/>\\n      <vstem pos=\"22\" width=\"47\"/>\\n      <vstem pos=\"171\" width=\"46\"/>\\n    </hintset>\\n  </hintSetList>\\n  </data>'
Ntp3
s."
EndChar

StartChar: uni0C05
Encoding: 122 3077 122
GlifName: uni0C05_
Width: 651
VWidth: 0
Flags: W
LayerCount: 2
Back
Fore
SplineSet
598 247 m 256
NamedP: "hr00"
 598 304 583 350 554 384 c 256
 525 419 492 436 453 436 c 256
 382 436 333 381 333 309 c 256
 333 280 339 253 354 226 c 256
 368 200 383 184 396 178 c 257
 174 178 l 258
 159 178 150 175 148 169 c 257
 148 148 l 258
 148 136 157 130 176 130 c 258
 442 130 l 258
 467 130 479 141 479 164 c 256
 479 177 469 191 448 205 c 256
 407 232 387 267 387 309 c 256
 387 357 415 384 458 384 c 256
 511 384 550 327 550 254 c 256
 550 114 454 37 297 37 c 256
 222 37 161 59 114 103 c 256
 73 142 53 188 53 240 c 256
 53 260 59 292 64 301 c 257
 66 278 78 256 100 236 c 256
 122 216 148 206 179 206 c 256
 243 206 294 249 294 322 c 256
 294 394 246 437 182 437 c 256
 132 437 90 418 56 379 c 256
 22 341 5 290 5 226 c 256
 5 159 32 102 85 56 c 256
 139 9 211 -13 302 -13 c 256
 381 -13 449 8 505 51 c 256
 567 99 598 164 598 247 c 256
NamedP: "hr00"
245 316 m 256
 245 276 216 254 177 254 c 256
 136 254 111 282 111 322 c 256
 111 350 135 385 179 385 c 256
 215 385 245 359 245 316 c 256
EndSplineSet
PickledDataWithLists: "(dp1
S'com.adobe.type.autohint'
p2
(S'data'
S'<data>\\n  <hintSetList>\\n    <hintset pointTag=\"hr00\">\\n      <hstem pos=\"-13\" width=\"50\"/>\\n      <hstem pos=\"130\" width=\"48\"/>\\n      <hstem pos=\"206\" width=\"48\"/>\\n      <hstem pos=\"385\" width=\"52\"/>\\n      <vstem pos=\"5\" width=\"48\"/>\\n      <vstem pos=\"64\" width=\"47\"/>\\n      <vstem pos=\"245\" width=\"49\"/>\\n      <vstem pos=\"333\" width=\"54\"/>\\n      <vstem pos=\"550\" width=\"48\"/>\\n    </hintset>\\n  </hintSetList>\\n  </data>'
Ntp3
s."
EndChar

StartChar: uni0C06
Encoding: 123 3078 123
GlifName: uni0C06_
Width: 654
VWidth: 0
Flags: W
LayerCount: 2
Back
Fore
SplineSet
549 314 m 256
NamedP: "hr00"
 549 289 538 273 523 249 c 257
 504 254 484 261 462 268 c 256
 426 279 408 298 408 326 c 256
 408 366 432 386 479 386 c 256
 526 386 549 362 549 314 c 256
NamedP: "hr00"
245 322 m 256
 245 283 219 256 176 256 c 256
 135 256 111 293 111 325 c 256
 111 360 142 390 179 390 c 256
 215 390 245 362 245 322 c 256
600 321 m 256
 600 388 555 440 482 440 c 256
 403 440 350 400 350 331 c 256
 350 301 360 276 379 257 c 256
 401 233 435 217 482 210 c 257
 462 186 437 182 396 182 c 258
 174 182 l 258
 157 182 149 173 149 154 c 256
 149 139 159 132 179 132 c 258
 402 132 l 258
 450 132 504 160 529 184 c 257
 535 177 538 164 538 144 c 256
 538 114 523 90 492 72 c 256
 454 49 398 37 323 37 c 256
 240 37 175 57 126 96 c 256
 77 135 53 186 53 247 c 256
 53 255 54 267 57 282 c 256
 60 298 61 307 61 308 c 256
 68 277 82 251 107 232 c 256
 127 216 152 209 179 209 c 256
 246 209 294 254 294 326 c 256
 294 393 247 443 179 443 c 256
 128 443 87 423 54 383 c 256
 21 343 5 292 5 231 c 256
 5 164 30 109 80 64 c 256
 137 13 217 -13 320 -13 c 256
 414 -13 484 4 531 37 c 256
 573 66 594 103 594 148 c 256
 594 179 585 203 566 222 c 257
 589 250 600 276 600 321 c 256
EndSplineSet
PickledDataWithLists: "(dp1
S'com.adobe.type.autohint'
p2
(S'data'
S'<data>\\n  <hintSetList>\\n    <hintset pointTag=\"hr00\">\\n      <hstem pos=\"-13\" width=\"50\"/>\\n      <hstem pos=\"132\" width=\"50\"/>\\n      <hstem pos=\"209\" width=\"47\"/>\\n      <hstem pos=\"386\" width=\"54\"/>\\n      <hstem pos=\"390\" width=\"53\"/>\\n      <vstem pos=\"5\" width=\"48\"/>\\n      <vstem pos=\"245\" width=\"49\"/>\\n      <vstem pos=\"350\" width=\"58\"/>\\n      <vstem pos=\"538\" width=\"56\"/>\\n      <vstem pos=\"549\" width=\"51\"/>\\n    </hintset>\\n  </hintSetList>\\n  </data>'
Ntp3
s."
EndChar

StartChar: uni0C07
Encoding: 124 3079 124
GlifName: uni0C07_
Width: 618
VWidth: 0
Flags: W
LayerCount: 2
Back
Fore
SplineSet
433 124 m 257
NamedP: "hr00"
 396 75 324 36 235 36 c 256
 196 36 161 42 129 56 c 256
 98 69 82 88 82 110 c 256
 82 154 140 174 245 174 c 256
 278 174 313 168 348 159 c 256
 384 149 412 138 433 124 c 257
NamedP: "hr00"
565 -13 m 256
 565 27 535 87 496 134 c 257
 511 175 518 213 518 248 c 256
 518 360 463 440 366 440 c 256
 336 440 310 431 287 413 c 256
 265 395 252 376 249 355 c 257
 234 402 195 437 134 437 c 256
 61 437 5 387 5 306 c 256
 5 268 16 249 37 249 c 256
 55 249 64 256 64 270 c 257
 59 314 l 257
 59 363 94 387 137 387 c 256
 156 387 173 381 187 367 c 256
 208 346 215 306 226 287 c 256
 231 278 239 274 250 274 c 256
 263 274 270 280 274 293 c 256
 282 324 293 347 304 360 c 256
 319 378 343 387 374 387 c 256
 425 387 465 342 465 254 c 256
 465 221 461 191 453 168 c 257
 412 196 333 222 246 222 c 256
 95 222 30 192 30 113 c 256
 30 74 52 41 97 17 c 256
 137 -4 182 -13 231 -13 c 256
 347 -13 424 28 471 92 c 257
 487 70 496 57 497 54 c 257
 507 39 512 21 512 0 c 256
 512 -27 522 -41 541 -41 c 256
 557 -41 565 -32 565 -13 c 256
EndSplineSet
PickledDataWithLists: "(dp1
S'com.adobe.type.autohint'
p2
(S'data'
S'<data>\\n  <hintSetList>\\n    <hintset pointTag=\"hr00\">\\n      <hstem pos=\"-13\" width=\"49\"/>\\n      <hstem pos=\"174\" width=\"48\"/>\\n      <hstem pos=\"387\" width=\"53\"/>\\n      <hstem pos=\"387\" width=\"50\"/>\\n      <vstem pos=\"5\" width=\"54\"/>\\n      <vstem pos=\"30\" width=\"52\"/>\\n      <vstem pos=\"465\" width=\"53\"/>\\n      <vstem pos=\"512\" width=\"53\"/>\\n    </hintset>\\n  </hintSetList>\\n  </data>'
Ntp3
s."
EndChar

StartChar: uni0C08
Encoding: 125 3080 125
GlifName: uni0C08_
Width: 898
VWidth: 0
Flags: W
LayerCount: 2
Back
Fore
SplineSet
519 210 m 257
NamedP: "hr00"
 519 162 502 121 467 87 c 256
 432 53 386 36 328 36 c 256
 277 36 233 53 197 87 c 256
 162 121 144 162 144 210 c 257
 519 210 l 257
NamedP: "hr00"
798 132 m 256
 798 96 765 63 734 63 c 256
 691 63 662 89 662 132 c 256
 662 179 694 200 734 200 c 256
 777 200 798 177 798 132 c 256
149 259 m 257
 159 298 181 330 214 356 c 256
 248 382 286 395 329 395 c 256
 422 395 496 340 513 259 c 257
 149 259 l 257
845 136 m 256
 845 175 830 207 799 232 c 257
 824 255 837 286 837 325 c 256
 837 349 826 371 805 392 c 256
 784 413 760 424 731 424 c 256
 667 424 622 374 622 322 c 256
 622 294 629 292 649 292 c 256
 666 292 674 299 674 314 c 256
 674 355 692 376 728 376 c 256
 771 376 789 350 789 314 c 256
 789 282 772 259 731 259 c 258
 561 259 l 257
 545 351 470 421 375 434 c 257
 430 479 461 504 468 511 c 257
 523 557 552 583 552 591 c 256
 552 610 537 623 526 623 c 256
 518 623 454 563 325 446 c 257
 315 446 l 257
 309 449 285 471 245 514 c 256
 229 530 219 540 213 540 c 256
 202 540 185 527 185 516 c 256
 185 509 195 497 216 476 c 256
 227 465 241 450 262 431 c 257
 183 411 116 343 100 259 c 257
 29 259 l 258
 13 259 5 252 5 237 c 256
 5 217 18 210 39 210 c 258
 96 210 l 257
 96 150 117 98 162 53 c 256
 207 8 260 -13 323 -13 c 256
 393 -13 451 8 496 50 c 256
 542 93 565 146 565 210 c 257
 648 210 l 257
 640 204 632 192 625 174 c 256
 618 156 614 141 614 128 c 256
 614 64 668 21 733 21 c 256
 800 21 845 68 845 136 c 256
EndSplineSet
PickledDataWithLists: "(dp1
S'com.adobe.type.autohint'
p2
(S'data'
S'<data>\\n  <hintSetList>\\n    <hintset pointTag=\"hr00\">\\n      <hstem pos=\"-13\" width=\"49\"/>\\n      <hstem pos=\"21\" width=\"42\"/>\\n      <hstem pos=\"210\" width=\"49\"/>\\n      <hstem pos=\"376\" width=\"48\"/>\\n      <hstem pos=\"395\" width=\"51\"/>\\n      <vstem pos=\"96\" width=\"48\"/>\\n      <vstem pos=\"519\" width=\"46\"/>\\n      <vstem pos=\"614\" width=\"48\"/>\\n      <vstem pos=\"622\" width=\"52\"/>\\n      <vstem pos=\"789\" width=\"48\"/>\\n      <vstem pos=\"798\" width=\"47\"/>\\n    </hintset>\\n  </hintSetList>\\n  </data>'
Ntp3
s."
EndChar

StartChar: uni0C09
Encoding: 126 3081 126
GlifName: uni0C09_
Width: 664
VWidth: 0
Flags: W
LayerCount: 2
Back
Fore
SplineSet
557 171 m 256
NamedP: "hr00"
 557 146 535 126 507 126 c 256
 473 126 456 141 456 171 c 256
 456 200 476 222 507 222 c 256
 535 222 557 200 557 171 c 256
NamedP: "hr00"
611 144 m 256
 611 216 575 268 507 268 c 256
 450 268 411 231 411 171 c 256
 411 119 455 85 503 85 c 256
 532 85 541 89 552 93 c 257
 541 57 514 36 471 36 c 256
 415 36 385 62 374 99 c 256
 371 111 368 124 366 139 c 256
 365 154 357 161 343 161 c 256
 316 161 322 141 315 101 c 257
 303 66 275 37 230 37 c 256
 170 37 127 94 127 171 c 256
 127 200 127 221 135 238 c 257
 384 238 l 258
 407 238 419 243 419 254 c 256
 419 274 408 284 387 284 c 258
 154 284 l 257
 199 349 264 385 348 385 c 256
 431 385 479 350 514 314 c 257
 533 314 543 322 543 338 c 256
 543 357 524 378 485 401 c 256
 447 424 404 436 356 436 c 257
 369 465 377 483 379 489 c 256
 386 510 389 526 389 539 c 256
 389 559 373 580 345 580 c 256
 314 580 298 563 298 530 c 256
 298 521 302 506 309 485 c 256
 316 464 324 448 331 436 c 257
 224 436 142 379 97 284 c 257
 31 284 l 258
 14 284 5 276 5 260 c 256
 5 245 17 238 41 238 c 258
 81 238 l 257
 73 215 71 206 71 169 c 256
 71 113 86 69 116 36 c 256
 147 3 185 -13 230 -13 c 256
 281 -13 319 9 344 54 c 257
 369 8 412 -15 471 -15 c 256
 510 -15 540 -2 566 22 c 256
 595 50 611 89 611 144 c 256
EndSplineSet
PickledDataWithLists: "(dp1
S'com.adobe.type.autohint'
p2
(S'data'
S'<data>\\n  <hintSetList>\\n    <hintset pointTag=\"hr00\">\\n      <hstem pos=\"-13\" width=\"50\"/>\\n      <hstem pos=\"85\" width=\"41\"/>\\n      <hstem pos=\"222\" width=\"46\"/>\\n      <hstem pos=\"238\" width=\"46\"/>\\n      <hstem pos=\"385\" width=\"51\"/>\\n      <vstem pos=\"71\" width=\"56\"/>\\n      <vstem pos=\"298\" width=\"91\"/>\\n      <vstem pos=\"411\" width=\"45\"/>\\n      <vstem pos=\"557\" width=\"54\"/>\\n    </hintset>\\n  </hintSetList>\\n  </data>'
Ntp3
s."
EndChar

StartChar: uni0C0A
Encoding: 127 3082 127
GlifName: uni0C0A_
Width: 962
VWidth: 0
Flags: W
LayerCount: 2
Back
Fore
SplineSet
550 94 m 257
NamedP: "hr00"
 550 82 541 69 524 56 c 256
 507 43 488 36 468 36 c 256
 415 36 385 62 376 99 c 257
 373 105 371 117 368 135 c 256
 365 154 357 163 343 163 c 256
 314 163 318 140 309 103 c 256
 301 66 271 40 226 40 c 256
 169 40 126 91 126 183 c 256
 126 204 128 220 131 229 c 257
 430 229 l 257
 417 214 411 193 411 166 c 256
 411 113 450 83 498 83 c 256
 521 83 539 89 550 94 c 257
NamedP: "hr00"
857 147 m 256
 857 114 824 80 787 80 c 256
 750 80 722 114 722 147 c 256
 722 183 752 214 787 214 c 256
 826 214 857 178 857 147 c 256
556 175 m 256
 556 147 532 126 505 126 c 256
 476 126 454 145 454 172 c 256
 454 201 476 224 505 224 c 256
 534 224 556 200 556 175 c 256
908 148 m 256
 908 185 888 227 859 243 c 257
 888 268 898 295 898 338 c 256
 898 398 855 439 787 439 c 256
 754 439 728 428 709 405 c 256
 690 383 680 358 680 331 c 256
 680 316 690 308 710 308 c 256
 721 308 729 312 734 320 c 257
 736 346 l 257
 740 359 744 369 749 375 c 257
 760 385 774 390 791 390 c 256
 828 390 850 359 850 326 c 256
 850 299 837 278 810 278 c 258
 149 278 l 257
 188 348 254 383 348 383 c 256
 388 383 422 375 451 361 c 256
 476 349 496 335 513 318 c 257
 533 318 543 325 543 340 c 256
 543 355 530 371 504 389 c 256
 479 407 447 419 410 426 c 257
 429 467 l 258
 442 494 449 515 449 529 c 256
 449 553 432 572 405 572 c 256
 370 572 353 556 353 523 c 256
 353 510 368 464 383 432 c 257
 345 434 l 257
 298 431 l 257
 312 470 320 493 322 502 c 256
 324 511 325 520 325 529 c 256
 325 552 310 572 283 572 c 256
 250 572 233 556 233 523 c 256
 233 503 251 457 272 425 c 257
 191 408 131 359 92 278 c 257
 31 278 l 258
 14 278 5 270 5 254 c 256
 5 237 13 229 29 229 c 258
 80 229 l 257
 74 211 71 192 71 172 c 256
 71 115 86 69 115 36 c 256
 145 3 182 -13 226 -13 c 256
 281 -13 320 10 344 56 c 257
 367 11 399 -13 464 -13 c 256
 503 -13 535 -4 559 17 c 256
 591 44 606 86 606 140 c 256
 606 179 597 209 579 229 c 257
 708 229 l 257
 692 214 672 177 672 140 c 256
 672 76 726 32 791 32 c 256
 823 32 850 43 873 66 c 256
 896 89 908 116 908 148 c 256
EndSplineSet
PickledDataWithLists: "(dp1
S'com.adobe.type.autohint'
p2
(S'data'
S'<data>\\n  <hintSetList>\\n    <hintset pointTag=\"hr00\">\\n      <hstem pos=\"-13\" width=\"53\"/>\\n      <hstem pos=\"-13\" width=\"49\"/>\\n      <hstem pos=\"32\" width=\"48\"/>\\n      <hstem pos=\"83\" width=\"43\"/>\\n      <hstem pos=\"229\" width=\"49\"/>\\n      <hstem pos=\"383\" width=\"49\"/>\\n      <hstem pos=\"390\" width=\"49\"/>\\n      <vstem pos=\"71\" width=\"55\"/>\\n      <vstem pos=\"233\" width=\"92\"/>\\n      <vstem pos=\"353\" width=\"96\"/>\\n      <vstem pos=\"411\" width=\"43\"/>\\n      <vstem pos=\"556\" width=\"50\"/>\\n      <vstem pos=\"672\" width=\"50\"/>\\n      <vstem pos=\"680\" width=\"55\"/>\\n      <vstem pos=\"850\" width=\"48\"/>\\n      <vstem pos=\"857\" width=\"51\"/>\\n    </hintset>\\n  </hintSetList>\\n  </data>'
Ntp3
s."
EndChar

StartChar: uni0C0B
Encoding: 128 3083 128
GlifName: uni0C0B_
Width: 1196
VWidth: 0
Flags: W
LayerCount: 2
Back
Fore
SplineSet
796 162 m 258
NamedP: "hr00"
 788 78 731 33 672 33 c 256
 596 33 553 100 553 191 c 258
 553 200 l 258
 553 274 531 332 487 374 c 256
 448 411 400 429 343 429 c 256
 323 429 313 420 313 403 c 256
 313 388 323 380 343 380 c 256
 384 380 420 363 453 329 c 256
 486 296 503 255 503 206 c 256
 503 155 491 114 468 83 c 256
 445 52 417 37 384 37 c 256
 329 37 306 72 306 132 c 256
 306 160 297 174 279 174 c 256
 258 174 248 163 248 140 c 256
 248 84 212 40 151 40 c 256
 102 40 64 70 64 117 c 256
 64 156 69 166 110 189 c 257
 205 218 l 258
 229 225 246 235 256 246 c 257
 274 261 283 282 283 309 c 256
 283 388 229 434 156 434 c 256
 67 434 15 386 15 305 c 256
 15 288 24 279 41 279 c 256
 54 279 62 284 67 294 c 257
 71 330 74 384 152 384 c 256
 193 384 233 359 233 310 c 256
 233 284 212 266 171 257 c 256
 110 244 73 234 61 226 c 256
 24 202 5 164 5 113 c 256
 5 77 18 47 45 23 c 256
 72 -1 102 -13 137 -13 c 256
 177 -13 208 -5 231 10 c 256
 250 23 265 39 275 60 c 257
 286 23 326 -15 379 -15 c 256
 446 -15 495 16 526 77 c 257
 550 14 600 -20 659 -20 c 256
 734 -20 793 16 822 72 c 257
 847 13 898 -20 953 -20 c 256
 1066 -20 1143 58 1143 201 c 256
 1143 276 1121 335 1079 379 c 256
 1043 415 1003 434 958 434 c 256
 925 434 908 426 908 409 c 256
 908 393 914 384 951 384 c 256
 989 384 1022 373 1048 347 c 256
 1081 316 1096 268 1096 207 c 256
 1096 151 1081 108 1053 75 c 256
 1029 48 1000 33 965 33 c 256
 929 33 900 48 879 79 c 256
 858 110 848 148 848 193 c 258
 848 201 l 258
 848 276 825 335 783 379 c 256
 747 415 707 434 662 434 c 256
 630 434 614 426 614 409 c 256
 614 393 620 384 656 384 c 256
 694 384 727 373 753 347 c 256
 785 316 799 268 799 207 c 258
 799 193 l 257
 796 162 l 258
NamedP: "hr00"
EndSplineSet
PickledDataWithLists: "(dp1
S'com.adobe.type.autohint'
p2
(S'data'
S'<data>\\n  <hintSetList>\\n    <hintset pointTag=\"hr00\">\\n      <hstem pos=\"-20\" width=\"53\"/>\\n      <hstem pos=\"-15\" width=\"52\"/>\\n      <hstem pos=\"-13\" width=\"53\"/>\\n      <hstem pos=\"380\" width=\"49\"/>\\n      <hstem pos=\"384\" width=\"50\"/>\\n      <vstem pos=\"5\" width=\"59\"/>\\n      <vstem pos=\"233\" width=\"50\"/>\\n      <vstem pos=\"248\" width=\"58\"/>\\n      <vstem pos=\"503\" width=\"50\"/>\\n      <vstem pos=\"799\" width=\"49\"/>\\n      <vstem pos=\"1096\" width=\"47\"/>\\n    </hintset>\\n  </hintSetList>\\n  </data>'
Ntp3
s."
EndChar

StartChar: uni0C0C
Encoding: 129 3084 129
GlifName: uni0C0C_
Width: 611
VWidth: 0
Flags: W
LayerCount: 2
Back
Fore
SplineSet
550 248 m 256
NamedP: "hr00"
 550 286 536 316 508 338 c 256
 480 361 449 372 414 372 c 256
 371 372 339 365 318 352 c 256
 308 346 293 331 273 308 c 257
 261 345 214 376 154 376 c 256
 66 376 5 333 5 244 c 256
 5 203 14 183 31 183 c 256
 44 183 60 190 60 206 c 256
 60 209 53 229 53 246 c 256
 53 301 85 329 148 329 c 256
 205 329 248 296 248 233 c 256
 248 207 257 194 275 194 c 256
 294 194 304 205 304 226 c 256
 304 286 345 324 406 324 c 256
 462 324 503 296 503 244 c 256
 503 220 497 200 484 185 c 257
 479 173 439 148 407 127 c 258
 341 83 l 258
 314 65 292 47 276 28 c 256
 250 -5 237 -39 237 -74 c 256
 237 -111 252 -146 281 -181 c 256
 311 -216 344 -233 381 -233 c 256
 426 -233 465 -219 498 -192 c 256
 538 -158 558 -112 558 -53 c 256
 558 -34 554 -14 551 13 c 256
 549 26 541 33 526 33 c 256
 502 33 493 21 502 -3 c 256
 508 -20 512 -38 512 -55 c 256
 512 -94 499 -125 473 -150 c 256
 448 -175 420 -187 390 -187 c 256
 368 -187 345 -174 322 -148 c 256
 299 -123 288 -96 288 -68 c 256
 288 -34 314 3 365 43 c 257
 488 123 l 258
 536 154 550 193 550 248 c 256
NamedP: "hr00"
EndSplineSet
PickledDataWithLists: "(dp1
S'com.adobe.type.autohint'
p2
(S'data'
S'<data>\\n  <hintSetList>\\n    <hintset pointTag=\"hr00\">\\n      <hstem pos=\"-233\" width=\"46\"/>\\n      <hstem pos=\"324\" width=\"48\"/>\\n      <hstem pos=\"329\" width=\"47\"/>\\n      <vstem pos=\"5\" width=\"48\"/>\\n      <vstem pos=\"237\" width=\"51\"/>\\n      <vstem pos=\"248\" width=\"56\"/>\\n      <vstem pos=\"503\" width=\"47\"/>\\n      <vstem pos=\"512\" width=\"46\"/>\\n    </hintset>\\n  </hintSetList>\\n  </data>'
Ntp3
s."
EndChar

StartChar: uni0C0E
Encoding: 130 3086 130
GlifName: uni0C0E_
Width: 612
VWidth: 0
Flags: W
LayerCount: 2
Back
Fore
SplineSet
223 115 m 256
NamedP: "hr00"
 223 67 185 32 137 32 c 256
 90 32 52 66 52 113 c 256
 52 166 87 206 134 206 c 256
 195 206 223 166 223 115 c 256
NamedP: "hr00"
559 243 m 256
 559 295 549 348 530 402 c 256
 511 456 485 499 450 530 c 256
 403 573 343 594 269 594 c 256
 238 594 222 584 222 564 c 256
 222 549 231 541 250 541 c 257
 269 544 285 546 304 546 c 256
 324 546 347 540 375 526 c 256
 414 507 447 472 473 419 c 256
 499 366 512 304 512 233 c 256
 512 162 497 108 467 72 c 256
 445 45 416 32 379 32 c 256
 348 32 310 55 297 83 c 257
 291 100 284 116 277 133 c 256
 267 159 258 179 249 192 c 256
 224 227 190 253 145 253 c 256
 103 253 69 239 43 212 c 256
 18 185 5 154 5 117 c 256
 5 41 63 -13 144 -13 c 256
 167 -13 190 -6 212 9 c 256
 235 24 249 41 254 59 c 257
 278 8 318 -17 374 -17 c 256
 494 -17 559 80 559 243 c 256
EndSplineSet
PickledDataWithLists: "(dp1
S'com.adobe.type.autohint'
p2
(S'data'
S'<data>\\n  <hintSetList>\\n    <hintset pointTag=\"hr00\">\\n      <hstem pos=\"-17\" width=\"49\"/>\\n      <hstem pos=\"-13\" width=\"45\"/>\\n      <hstem pos=\"206\" width=\"47\"/>\\n      <hstem pos=\"546\" width=\"48\"/>\\n      <vstem pos=\"5\" width=\"47\"/>\\n      <vstem pos=\"223\" width=\"31\"/>\\n      <vstem pos=\"512\" width=\"47\"/>\\n    </hintset>\\n  </hintSetList>\\n  </data>'
Ntp3
s."
EndChar

StartChar: uni0C0F
Encoding: 131 3087 131
GlifName: uni0C0F_
Width: 612
VWidth: 0
Flags: W
LayerCount: 2
Back
Fore
SplineSet
223 115 m 256
NamedP: "hr00"
 223 67 185 32 137 32 c 256
 90 32 52 66 52 113 c 256
 52 166 87 206 134 206 c 256
 195 206 223 166 223 115 c 256
NamedP: "hr00"
559 243 m 256
 559 295 549 348 530 402 c 256
 511 456 485 499 450 530 c 256
 403 573 343 594 269 594 c 256
 238 594 222 584 222 564 c 256
 222 549 231 541 250 541 c 257
 269 544 285 546 304 546 c 256
 324 546 347 540 375 526 c 256
 414 507 447 472 473 419 c 256
 499 366 512 304 512 233 c 256
 512 162 497 108 467 72 c 256
 445 45 416 32 379 32 c 256
 348 32 310 55 297 83 c 257
 291 100 284 116 277 133 c 256
 267 159 258 179 249 192 c 256
 224 227 190 253 145 253 c 256
 103 253 69 239 43 212 c 256
 18 185 5 154 5 117 c 256
 5 41 63 -13 144 -13 c 256
 167 -13 190 -6 212 9 c 256
 235 24 249 41 254 59 c 257
 278 8 318 -17 374 -17 c 256
 494 -17 559 80 559 243 c 256
267 684 m 256
 267 701 255 709 231 709 c 256
 194 709 161 693 133 661 c 256
 105 629 91 594 91 557 c 256
 91 496 111 459 130 459 c 256
 149 459 158 467 158 484 c 256
 158 488 142 521 142 552 c 256
 142 586 151 615 173 636 c 256
 189 652 210 659 233 659 c 256
 256 659 267 667 267 684 c 256
EndSplineSet
PickledDataWithLists: "(dp1
S'com.adobe.type.autohint'
p2
(S'data'
S'<data>\\n  <hintSetList>\\n    <hintset pointTag=\"hr00\">\\n      <hstem pos=\"-17\" width=\"49\"/>\\n      <hstem pos=\"-13\" width=\"45\"/>\\n      <hstem pos=\"206\" width=\"47\"/>\\n      <hstem pos=\"546\" width=\"48\"/>\\n      <hstem pos=\"659\" width=\"50\"/>\\n      <vstem pos=\"5\" width=\"47\"/>\\n      <vstem pos=\"91\" width=\"51\"/>\\n      <vstem pos=\"223\" width=\"31\"/>\\n      <vstem pos=\"512\" width=\"47\"/>\\n    </hintset>\\n  </hintSetList>\\n  </data>'
Ntp3
s."
EndChar

StartChar: uni0C10
Encoding: 132 3088 132
GlifName: uni0C10_
Width: 600
VWidth: 0
Flags: W
LayerCount: 2
Back
Fore
SplineSet
220 117 m 256
NamedP: "hr00"
 220 66 184 37 137 37 c 256
 92 37 54 76 54 117 c 256
 54 165 90 203 137 203 c 256
 184 203 220 165 220 117 c 256
NamedP: "hr00"
546 220 m 256
 546 356 481 443 381 443 c 256
 310 443 269 409 252 360 c 257
 232 415 194 440 137 440 c 256
 64 440 6 390 6 305 c 256
 6 271 16 254 37 254 c 256
 56 254 66 262 65 278 c 256
 65 293 59 299 59 314 c 256
 59 353 90 391 137 391 c 256
 170 391 196 370 211 339 c 257
 214 326 218 313 223 298 c 256
 228 283 237 276 252 276 c 256
 265 276 274 284 279 301 c 256
 288 329 298 349 310 362 c 256
 326 381 350 391 381 391 c 256
 454 391 500 318 500 221 c 256
 500 108 443 40 374 40 c 256
 350 40 329 48 312 64 c 256
 292 83 279 122 267 151 c 256
 259 170 254 183 249 192 c 256
 225 231 188 251 139 251 c 256
 102 251 70 238 44 213 c 256
 18 188 5 158 5 122 c 256
 5 83 17 51 43 25 c 256
 69 -1 100 -13 137 -13 c 256
 198 -13 225 11 258 56 c 257
 273 19 322 -13 367 -13 c 256
 420 -13 463 8 496 50 c 256
 529 92 546 149 546 220 c 256
EndSplineSet
PickledDataWithLists: "(dp1
S'com.adobe.type.autohint'
p2
(S'data'
S'<data>\\n  <hintSetList>\\n    <hintset pointTag=\"hr00\">\\n      <hstem pos=\"-13\" width=\"50\"/>\\n      <hstem pos=\"-13\" width=\"53\"/>\\n      <hstem pos=\"203\" width=\"48\"/>\\n      <hstem pos=\"391\" width=\"52\"/>\\n      <hstem pos=\"391\" width=\"49\"/>\\n      <vstem pos=\"5\" width=\"49\"/>\\n      <vstem pos=\"6\" width=\"53\"/>\\n      <vstem pos=\"500\" width=\"46\"/>\\n    </hintset>\\n  </hintSetList>\\n  </data>'
Ntp3
s."
EndChar

StartChar: uni0C12
Encoding: 133 3090 133
GlifName: uni0C12_
Width: 603
VWidth: 0
Flags: W
LayerCount: 2
Back
Fore
SplineSet
550 115 m 256
NamedP: "hr00"
 550 156 542 177 525 177 c 256
 516 177 496 170 496 154 c 256
 496 150 503 129 503 113 c 256
 503 58 471 30 408 30 c 256
 349 30 310 62 310 125 c 256
 310 151 300 164 281 164 c 256
 262 164 252 153 252 132 c 256
 252 75 213 36 149 36 c 256
 93 36 53 64 53 115 c 256
 53 140 58 160 67 174 c 257
 76 194 104 206 164 219 c 258
 216 230 l 257
 237 239 253 250 262 261 c 257
 277 276 285 297 285 325 c 256
 285 394 232 443 151 443 c 256
 66 443 11 385 11 302 c 256
 11 282 21 274 37 274 c 256
 53 274 61 286 61 309 c 256
 61 357 90 395 150 395 c 256
 195 395 237 374 237 321 c 256
 237 296 215 278 172 266 c 256
 110 249 75 237 67 233 c 257
 18 202 5 167 5 110 c 256
 5 73 20 41 50 17 c 256
 76 -4 107 -13 142 -13 c 256
 184 -13 216 -6 238 7 c 256
 248 13 263 28 282 51 c 257
 295 14 343 -17 402 -17 c 256
 446 -17 481 -7 506 13 c 256
 535 36 550 70 550 115 c 256
NamedP: "hr00"
EndSplineSet
PickledDataWithLists: "(dp1
S'com.adobe.type.autohint'
p2
(S'data'
S'<data>\\n  <hintSetList>\\n    <hintset pointTag=\"hr00\">\\n      <hstem pos=\"-17\" width=\"47\"/>\\n      <hstem pos=\"-13\" width=\"49\"/>\\n      <hstem pos=\"395\" width=\"48\"/>\\n      <vstem pos=\"5\" width=\"48\"/>\\n      <vstem pos=\"11\" width=\"50\"/>\\n      <vstem pos=\"237\" width=\"48\"/>\\n      <vstem pos=\"252\" width=\"58\"/>\\n      <vstem pos=\"503\" width=\"47\"/>\\n    </hintset>\\n  </hintSetList>\\n  </data>'
Ntp3
s."
EndChar

StartChar: uni0C13
Encoding: 134 3091 134
GlifName: uni0C13_
Width: 603
VWidth: 0
Flags: W
LayerCount: 2
Back
Fore
SplineSet
550 115 m 256
NamedP: "hr00"
 550 156 542 177 525 177 c 256
 516 177 496 170 496 154 c 256
 496 150 503 129 503 113 c 256
 503 58 471 30 408 30 c 256
 349 30 310 62 310 125 c 256
 310 151 300 164 281 164 c 256
 262 164 252 153 252 132 c 256
 252 75 213 36 149 36 c 256
 93 36 53 64 53 115 c 256
 53 140 58 160 67 174 c 257
 76 194 104 206 164 219 c 258
 216 230 l 257
 237 239 253 250 262 261 c 257
 277 276 285 297 285 325 c 256
 285 386 246 429 183 440 c 257
 168 467 159 479 159 498 c 256
 159 531 183 554 219 554 c 256
 236 554 249 550 257 541 c 258
 273 523 l 257
 273 522 276 521 283 521 c 256
 301 521 310 528 310 541 c 256
 310 578 271 605 219 605 c 256
 152 605 108 554 108 498 c 256
 108 474 114 451 123 443 c 257
 55 434 11 381 11 302 c 256
 11 282 21 274 37 274 c 256
 53 274 61 286 61 309 c 256
 61 357 90 395 150 395 c 256
 195 395 237 374 237 321 c 256
 237 296 215 278 172 266 c 256
 110 249 75 237 67 233 c 257
 18 202 5 167 5 110 c 256
 5 73 20 41 50 17 c 256
 76 -4 107 -13 142 -13 c 256
 184 -13 216 -6 238 7 c 256
 248 13 263 28 282 51 c 257
 295 14 343 -17 402 -17 c 256
 446 -17 481 -7 506 13 c 256
 535 36 550 70 550 115 c 256
NamedP: "hr00"
EndSplineSet
PickledDataWithLists: "(dp1
S'com.adobe.type.autohint'
p2
(S'data'
S'<data>\\n  <hintSetList>\\n    <hintset pointTag=\"hr00\">\\n      <hstem pos=\"-17\" width=\"47\"/>\\n      <hstem pos=\"-13\" width=\"49\"/>\\n      <hstem pos=\"395\" width=\"48\"/>\\n      <hstem pos=\"554\" width=\"51\"/>\\n      <vstem pos=\"5\" width=\"48\"/>\\n      <vstem pos=\"11\" width=\"50\"/>\\n      <vstem pos=\"108\" width=\"51\"/>\\n      <vstem pos=\"237\" width=\"48\"/>\\n      <vstem pos=\"252\" width=\"58\"/>\\n      <vstem pos=\"273\" width=\"37\"/>\\n      <vstem pos=\"503\" width=\"47\"/>\\n    </hintset>\\n  </hintSetList>\\n  </data>'
Ntp3
s."
EndChar

StartChar: uni0C14
Encoding: 135 3092 135
GlifName: uni0C14_
Width: 628
VWidth: 0
Flags: W
LayerCount: 2
Back
Fore
SplineSet
526 474 m 256
NamedP: "hr00"
 526 438 500 409 464 409 c 256
 424 409 398 440 398 477 c 256
 398 512 428 540 461 540 c 256
 506 540 526 513 526 474 c 256
NamedP: "hr00"
575 469 m 256
 575 537 523 585 458 585 c 258
 41 585 l 258
 25 585 12 585 12 561 c 256
 12 547 22 540 41 540 c 258
 196 540 l 258
 223 540 245 517 245 492 c 256
 245 461 221 440 185 440 c 256
 177 440 171 441 166 443 c 257
 152 443 l 258
 69 443 8 390 8 306 c 256
 8 285 18 274 37 274 c 256
 55 274 64 286 64 310 c 256
 64 366 93 395 148 395 c 256
 200 395 237 369 237 329 c 256
 237 298 225 285 205 276 c 256
 196 272 165 263 114 251 c 256
 93 246 77 241 64 232 c 256
 25 205 5 168 5 122 c 256
 5 35 63 -13 144 -13 c 256
 216 -13 256 11 281 51 c 257
 305 4 351 -17 416 -17 c 256
 451 -17 481 -6 508 17 c 256
 535 40 549 71 549 110 c 256
 549 153 539 174 519 174 c 256
 504 174 496 165 496 148 c 257
 499 133 503 129 503 113 c 256
 503 64 470 30 414 30 c 256
 342 30 306 62 306 126 c 256
 306 151 298 164 281 164 c 256
 264 164 256 153 256 132 c 256
 256 79 213 36 152 36 c 256
 88 36 50 66 50 117 c 256
 50 158 65 186 96 199 c 256
 107 203 128 208 160 215 c 256
 192 222 213 228 223 232 c 256
 264 251 283 275 283 334 c 256
 283 364 271 389 246 408 c 257
 278 421 294 448 294 487 c 256
 294 514 288 532 276 540 c 257
 371 540 l 257
 358 532 349 496 349 471 c 256
 349 438 361 411 385 390 c 256
 406 371 431 362 461 362 c 256
 494 362 521 372 542 393 c 256
 564 414 575 440 575 469 c 256
EndSplineSet
PickledDataWithLists: "(dp1
S'com.adobe.type.autohint'
p2
(S'data'
S'<data>\\n  <hintSetList>\\n    <hintset pointTag=\"hr00\">\\n      <hstem pos=\"-17\" width=\"47\"/>\\n      <hstem pos=\"-13\" width=\"49\"/>\\n      <hstem pos=\"362\" width=\"47\"/>\\n      <hstem pos=\"395\" width=\"48\"/>\\n      <hstem pos=\"540\" width=\"45\"/>\\n      <vstem pos=\"5\" width=\"45\"/>\\n      <vstem pos=\"8\" width=\"56\"/>\\n      <vstem pos=\"237\" width=\"46\"/>\\n      <vstem pos=\"245\" width=\"49\"/>\\n      <vstem pos=\"256\" width=\"50\"/>\\n      <vstem pos=\"349\" width=\"49\"/>\\n      <vstem pos=\"503\" width=\"46\"/>\\n      <vstem pos=\"526\" width=\"49\"/>\\n    </hintset>\\n  </hintSetList>\\n  </data>'
Ntp3
s."
EndChar

StartChar: uni0C15
Encoding: 136 3093 136
GlifName: uni0C15_
Width: 497
VWidth: 0
Flags: W
LayerCount: 2
Back
Fore
SplineSet
271 436 m 256
NamedP: "hr00"
 296 454 327 480 365 515 c 256
 378 526 394 542 415 562 c 256
 420 567 423 573 423 580 c 256
 423 595 414 605 402 605 c 256
 392 605 384 601 379 594 c 257
 203 436 l 257
 187 436 l 257
 103 518 l 257
 98 521 93 523 88 523 c 256
 73 523 64 511 64 502 c 256
 64 495 67 490 72 486 c 257
 127 430 l 257
 131 426 l 257
 63 410 23 373 23 316 c 256
 23 267 69 231 122 224 c 256
 176 217 225 215 269 210 c 256
 314 205 345 197 364 185 c 256
 383 174 392 155 392 129 c 256
 392 72 333 37 228 37 c 256
 157 37 108 49 84 75 c 256
 72 87 67 107 67 134 c 256
 67 159 58 171 41 171 c 256
 17 171 5 160 5 137 c 256
 5 88 31 47 83 16 c 257
 126 -3 156 -13 219 -13 c 256
 367 -13 444 40 444 132 c 256
 444 179 413 225 373 240 c 256
 353 247 325 253 289 256 c 258
 179 266 l 258
 142 269 116 276 101 286 c 256
 87 296 80 308 80 322 c 256
 80 341 89 356 106 366 c 256
 130 379 169 386 223 386 c 256
 261 386 287 384 300 380 c 256
 314 376 328 369 342 360 c 256
 362 348 365 334 365 321 c 256
 365 306 374 298 391 298 c 256
 410 298 420 307 420 325 c 256
 420 388 357 434 269 434 c 257
 271 436 l 256
NamedP: "hr00"
EndSplineSet
PickledDataWithLists: "(dp1
S'com.adobe.type.autohint'
p2
(S'data'
S'<data>\\n  <hintSetList>\\n    <hintset pointTag=\"hr00\">\\n      <hstem pos=\"-13\" width=\"50\"/>\\n      <hstem pos=\"386\" width=\"48\"/>\\n      <vstem pos=\"5\" width=\"62\"/>\\n      <vstem pos=\"23\" width=\"57\"/>\\n      <vstem pos=\"365\" width=\"55\"/>\\n      <vstem pos=\"392\" width=\"52\"/>\\n    </hintset>\\n  </hintSetList>\\n  </data>'
Ntp3
s."
EndChar

StartChar: uni0C16
Encoding: 137 3094 137
GlifName: uni0C16_
Width: 603
VWidth: 0
Flags: W
LayerCount: 2
Back
Fore
SplineSet
294 -48 m 256
NamedP: "hr00"
 294 -45 290 -32 281 -9 c 256
 270 18 264 35 261 40 c 257
 258 33 249 15 234 -13 c 256
 224 -30 219 -42 219 -49 c 256
 219 -74 231 -94 258 -94 c 256
 279 -94 294 -72 294 -48 c 256
NamedP: "hr00"
550 195 m 256
 550 272 533 332 496 377 c 256
 464 416 426 436 387 436 c 256
 354 436 348 430 348 407 c 256
 348 394 353 386 364 385 c 257
 384 385 l 258
 415 385 443 369 468 336 c 256
 493 303 505 260 505 205 c 256
 505 157 494 117 473 84 c 256
 452 52 423 36 388 36 c 256
 345 36 310 59 297 98 c 257
 302 114 307 134 312 157 c 256
 317 181 320 199 320 211 c 256
 320 364 277 437 162 437 c 256
 113 437 75 422 50 391 c 256
 31 368 22 339 22 302 c 256
 22 277 31 271 51 271 c 256
 66 271 74 281 74 302 c 256
 74 359 102 391 166 391 c 256
 202 391 228 376 245 347 c 256
 260 321 268 285 268 240 c 256
 268 209 267 186 264 177 c 257
 245 204 228 223 212 234 c 256
 196 245 173 251 142 251 c 256
 55 251 5 194 5 115 c 256
 5 80 18 49 43 25 c 256
 69 0 101 -11 139 -11 c 256
 192 -11 233 8 260 45 c 257
 283 5 323 -15 379 -15 c 256
 487 -15 550 66 550 195 c 256
237 110 m 256
 237 91 226 74 205 59 c 256
 184 44 163 36 142 36 c 256
 95 36 56 69 56 122 c 256
 56 167 85 202 142 202 c 256
 173 202 197 191 215 170 c 256
 230 152 237 132 237 110 c 256
EndSplineSet
PickledDataWithLists: "(dp1
S'com.adobe.type.autohint'
p2
(S'data'
S'<data>\\n  <hintSetList>\\n    <hintset pointTag=\"hr00\">\\n      <hstem pos=\"-15\" width=\"51\"/>\\n      <hstem pos=\"-11\" width=\"47\"/>\\n      <hstem pos=\"202\" width=\"49\"/>\\n      <hstem pos=\"385\" width=\"51\"/>\\n      <hstem pos=\"391\" width=\"46\"/>\\n      <vstem pos=\"5\" width=\"51\"/>\\n      <vstem pos=\"22\" width=\"52\"/>\\n      <vstem pos=\"219\" width=\"75\"/>\\n      <vstem pos=\"268\" width=\"52\"/>\\n      <vstem pos=\"505\" width=\"45\"/>\\n    </hintset>\\n  </hintSetList>\\n  </data>'
Ntp3
s."
EndChar

StartChar: uni0C17
Encoding: 138 3095 138
GlifName: uni0C17_
Width: 534
VWidth: 0
Flags: W
LayerCount: 2
Back
Fore
SplineSet
303 436 m 258
NamedP: "hr00"
 326 456 360 480 399 515 c 256
 412 526 429 542 450 562 c 256
 456 567 459 572 459 579 c 256
 459 595 447 605 436 605 c 256
 427 605 419 601 412 594 c 258
 238 436 l 257
 220 436 l 257
 135 518 l 258
 131 521 126 523 120 523 c 256
 108 523 96 510 96 502 c 256
 96 496 99 491 105 486 c 257
 114 475 121 468 126 464 c 257
 138 451 149 439 160 430 c 258
 166 425 l 257
 111 410 67 378 38 328 c 256
 15 289 5 244 5 194 c 256
 5 140 18 90 45 44 c 256
 68 6 88 -13 103 -13 c 256
 127 -13 139 -3 139 17 c 257
 82 89 l 257
 65 119 56 155 56 198 c 256
 56 249 72 293 103 328 c 256
 136 367 183 386 246 386 c 256
 297 386 340 368 376 331 c 256
 412 294 430 251 430 200 c 256
 430 116 384 56 336 16 c 257
 336 -3 346 -13 366 -13 c 256
 387 -13 409 8 435 47 c 256
 465 93 481 140 481 191 c 256
 481 254 463 307 428 350 c 256
 393 394 349 421 296 430 c 257
 303 436 l 258
NamedP: "hr00"
EndSplineSet
PickledDataWithLists: "(dp1
S'com.adobe.type.autohint'
p2
(S'data'
S'<data>\\n  <hintSetList>\\n    <hintset pointTag=\"hr00\">\\n      <hstem pos=\"386\" width=\"50\"/>\\n      <vstem pos=\"5\" width=\"51\"/>\\n      <vstem pos=\"430\" width=\"51\"/>\\n    </hintset>\\n  </hintSetList>\\n  </data>'
Ntp3
s."
EndChar

StartChar: uni0C18
Encoding: 139 3096 139
GlifName: uni0C18_
Width: 895
VWidth: 0
Flags: W
LayerCount: 2
Back
Fore
SplineSet
289 -47 m 256
NamedP: "hr00"
 289 -43 285 -30 276 -8 c 256
 265 19 260 36 260 44 c 257
 254 35 244 16 229 -11 c 256
 219 -29 214 -41 214 -48 c 256
 214 -73 229 -93 253 -93 c 256
 274 -93 289 -70 289 -47 c 256
NamedP: "hr00"
357 593 m 256
 350 600 343 603 338 603 c 256
 327 603 318 599 311 591 c 257
 227 522 l 258
 170 476 135 451 122 447 c 257
 111 454 97 465 80 482 c 257
 68 489 49 510 33 510 c 256
 22 510 5 495 5 484 c 256
 5 476 12 467 25 456 c 258
 80 409 l 258
 88 402 101 399 119 399 c 257
 139 402 167 417 189 431 c 256
 215 447 248 474 292 509 c 256
 306 520 326 536 351 557 c 256
 360 564 364 570 364 577 c 256
 364 582 362 587 357 593 c 256
549 197 m 258
 549 275 527 335 485 379 c 256
 448 416 406 436 357 436 c 256
 341 436 333 427 333 409 c 256
 333 394 341 386 356 386 c 256
 395 386 428 369 455 334 c 256
 482 300 496 258 496 209 c 256
 496 158 484 117 459 85 c 256
 435 53 407 37 376 37 c 256
 344 37 314 52 297 83 c 256
 291 94 284 112 276 136 c 256
 268 160 259 180 250 196 c 256
 233 229 195 251 142 251 c 256
 102 251 69 239 43 214 c 256
 18 189 5 159 5 124 c 256
 5 39 62 -13 142 -13 c 256
 167 -13 190 -6 213 8 c 256
 236 23 251 38 258 53 c 257
 283 8 321 -15 372 -15 c 256
 435 -15 490 24 519 76 c 257
 544 13 597 -20 652 -20 c 256
 765 -20 842 58 842 201 c 256
 842 276 819 335 776 379 c 256
 740 415 701 434 656 434 c 256
 623 434 606 426 606 409 c 256
 606 393 613 384 649 384 c 256
 687 384 719 372 745 347 c 256
 778 315 794 268 794 207 c 256
 794 151 780 107 752 75 c 256
 728 47 699 33 664 33 c 256
 599 33 549 89 549 166 c 258
 549 197 l 258
219 122 m 256
 219 74 182 37 137 37 c 256
 92 37 54 78 54 122 c 256
 54 169 92 206 137 206 c 256
 182 206 219 166 219 122 c 256
EndSplineSet
PickledDataWithLists: "(dp1
S'com.adobe.type.autohint'
p2
(S'data'
S'<data>\\n  <hintSetList>\\n    <hintset pointTag=\"hr00\">\\n      <hstem pos=\"-20\" width=\"53\"/>\\n      <hstem pos=\"-13\" width=\"50\"/>\\n      <hstem pos=\"206\" width=\"45\"/>\\n      <hstem pos=\"384\" width=\"50\"/>\\n      <vstem pos=\"5\" width=\"49\"/>\\n      <vstem pos=\"214\" width=\"75\"/>\\n      <vstem pos=\"496\" width=\"53\"/>\\n      <vstem pos=\"794\" width=\"48\"/>\\n    </hintset>\\n  </hintSetList>\\n  </data>'
Ntp3
s."
EndChar

StartChar: uni0C19
Encoding: 140 3097 140
GlifName: uni0C19_
Width: 603
VWidth: 0
Flags: W
LayerCount: 2
Back
Fore
SplineSet
550 122 m 256
NamedP: "hr00"
 550 159 540 177 519 177 c 256
 504 177 496 169 496 153 c 257
 497 144 503 133 503 117 c 256
 503 59 472 30 410 30 c 256
 350 30 310 64 310 124 c 256
 310 153 300 167 281 167 c 256
 264 167 256 155 256 132 c 256
 256 75 212 36 144 36 c 256
 91 36 59 77 59 125 c 256
 59 161 74 186 104 199 c 256
 119 206 140 212 165 217 c 256
 191 223 208 228 216 231 c 256
 239 240 258 255 271 276 c 257
 382 276 l 257
 382 176 l 258
 382 167 389 162 402 162 c 256
 420 162 429 169 429 183 c 258
 429 276 l 257
 526 276 l 258
 537 276 543 282 543 295 c 256
 543 310 537 318 526 318 c 258
 429 318 l 257
 429 410 l 258
 429 425 422 432 408 432 c 256
 391 432 382 424 382 409 c 258
 382 318 l 257
 283 318 l 257
 283 325 l 258
 283 402 225 443 145 443 c 256
 104 443 70 430 45 403 c 256
 20 376 8 344 8 307 c 256
 8 286 19 276 41 276 c 256
 54 276 61 289 61 314 c 256
 61 365 91 395 151 395 c 256
 204 395 235 362 235 322 c 256
 235 296 218 277 184 268 c 256
 147 258 91 252 58 229 c 256
 26 208 5 170 5 115 c 256
 5 35 69 -13 145 -13 c 256
 206 -13 253 11 281 51 c 257
 308 7 350 -15 406 -15 c 256
 445 -15 478 -6 504 13 c 256
 535 36 550 73 550 122 c 256
NamedP: "hr00"
EndSplineSet
PickledDataWithLists: "(dp1
S'com.adobe.type.autohint'
p2
(S'data'
S'<data>\\n  <hintSetList>\\n    <hintset pointTag=\"hr00\">\\n      <hstem pos=\"-15\" width=\"45\"/>\\n      <hstem pos=\"-13\" width=\"49\"/>\\n      <hstem pos=\"276\" width=\"42\"/>\\n      <hstem pos=\"395\" width=\"48\"/>\\n      <vstem pos=\"5\" width=\"54\"/>\\n      <vstem pos=\"8\" width=\"53\"/>\\n      <vstem pos=\"235\" width=\"48\"/>\\n      <vstem pos=\"256\" width=\"54\"/>\\n      <vstem pos=\"382\" width=\"47\"/>\\n      <vstem pos=\"503\" width=\"47\"/>\\n    </hintset>\\n  </hintSetList>\\n  </data>'
Ntp3
s."
EndChar

StartChar: uni0C1A
Encoding: 141 3098 141
GlifName: uni0C1A_
Width: 640
VWidth: 0
Flags: W
LayerCount: 2
Back
Fore
SplineSet
225 398 m 258
NamedP: "hr00"
 234 390 247 386 265 386 c 258
 361 386 l 258
 398 386 433 373 466 348 c 256
 513 311 537 254 537 176 c 256
 537 95 500 37 437 37 c 256
 382 37 354 65 354 122 c 256
 354 155 349 171 338 171 c 256
 311 171 305 164 305 129 c 256
 305 66 268 32 219 32 c 256
 159 32 128 66 128 113 c 256
 128 172 168 206 213 206 c 256
 239 206 252 214 252 231 c 256
 252 254 240 266 215 266 c 258
 30 266 l 258
 13 266 5 256 5 237 c 256
 5 224 13 217 29 217 c 258
 123 217 l 257
 100 198 77 159 77 115 c 256
 77 72 92 39 123 15 c 256
 148 -4 177 -13 210 -13 c 256
 239 -13 261 -10 276 -5 c 257
 295 5 312 23 327 48 c 257
 342 13 380 -13 436 -13 c 256
 528 -13 587 67 587 186 c 256
 587 255 566 314 523 363 c 256
 480 412 426 436 359 436 c 257
 358 436 l 257
 381 452 412 472 448 503 c 258
 497 545 l 258
 505 551 508 558 508 564 c 256
 508 573 498 591 483 591 c 256
 473 591 464 587 457 580 c 257
 376 514 l 258
 321 469 286 443 271 436 c 257
 266 436 l 257
 256 443 242 456 223 470 c 256
 211 479 194 499 179 499 c 256
 166 499 150 483 150 471 c 256
 150 464 156 455 169 444 c 258
 225 398 l 258
NamedP: "hr00"
EndSplineSet
PickledDataWithLists: "(dp1
S'com.adobe.type.autohint'
p2
(S'data'
S'<data>\\n  <hintSetList>\\n    <hintset pointTag=\"hr00\">\\n      <hstem pos=\"-13\" width=\"50\"/>\\n      <hstem pos=\"-13\" width=\"45\"/>\\n      <hstem pos=\"217\" width=\"49\"/>\\n      <hstem pos=\"386\" width=\"50\"/>\\n      <vstem pos=\"77\" width=\"51\"/>\\n      <vstem pos=\"305\" width=\"49\"/>\\n      <vstem pos=\"537\" width=\"50\"/>\\n    </hintset>\\n  </hintSetList>\\n  </data>'
Ntp3
s."
EndChar

StartChar: uni0C1B
Encoding: 142 3099 142
GlifName: uni0C1B_
Width: 640
VWidth: 0
Flags: W
LayerCount: 2
Back
Fore
SplineSet
360 -46 m 256
NamedP: "hr00"
 360 -42 357 -29 348 -7 c 258
 328 43 l 257
 324 35 315 17 300 -10 c 256
 290 -29 285 -41 285 -47 c 256
 285 -72 300 -92 325 -92 c 256
 346 -92 360 -69 360 -46 c 256
NamedP: "hr00"
225 398 m 258
 234 390 247 386 265 386 c 258
 361 386 l 258
 398 386 433 373 466 348 c 256
 513 311 537 254 537 176 c 256
 537 95 500 37 437 37 c 256
 382 37 354 65 354 122 c 256
 354 155 349 171 338 171 c 256
 311 171 305 164 305 129 c 256
 305 66 268 32 219 32 c 256
 159 32 128 66 128 113 c 256
 128 172 168 206 213 206 c 256
 239 206 252 214 252 231 c 256
 252 254 240 266 215 266 c 258
 30 266 l 258
 13 266 5 256 5 237 c 256
 5 224 13 217 29 217 c 258
 123 217 l 257
 100 198 77 159 77 115 c 256
 77 72 92 39 123 15 c 256
 148 -4 177 -13 210 -13 c 256
 239 -13 261 -10 276 -5 c 257
 295 5 312 23 327 48 c 257
 342 13 380 -13 436 -13 c 256
 528 -13 587 67 587 186 c 256
 587 255 566 314 523 363 c 256
 480 412 426 436 359 436 c 257
 358 436 l 257
 381 452 412 472 448 503 c 258
 497 545 l 258
 505 551 508 558 508 564 c 256
 508 573 498 591 483 591 c 256
 473 591 464 587 457 580 c 257
 376 514 l 258
 321 469 286 443 271 436 c 257
 266 436 l 257
 256 443 242 456 223 470 c 256
 211 479 194 499 179 499 c 256
 166 499 150 483 150 471 c 256
 150 464 156 455 169 444 c 258
 225 398 l 258
EndSplineSet
PickledDataWithLists: "(dp1
S'com.adobe.type.autohint'
p2
(S'data'
S'<data>\\n  <hintSetList>\\n    <hintset pointTag=\"hr00\">\\n      <hstem pos=\"-13\" width=\"50\"/>\\n      <hstem pos=\"-13\" width=\"45\"/>\\n      <hstem pos=\"217\" width=\"49\"/>\\n      <hstem pos=\"386\" width=\"50\"/>\\n      <vstem pos=\"77\" width=\"51\"/>\\n      <vstem pos=\"285\" width=\"75\"/>\\n      <vstem pos=\"305\" width=\"49\"/>\\n      <vstem pos=\"537\" width=\"50\"/>\\n    </hintset>\\n  </hintSetList>\\n  </data>'
Ntp3
s."
EndChar

StartChar: uni0C1C
Encoding: 143 3100 143
GlifName: uni0C1C_
Width: 608
VWidth: 0
Flags: W
LayerCount: 2
Back
Fore
SplineSet
554 124 m 256
NamedP: "hr00"
 554 165 544 185 525 185 c 256
 508 185 499 177 500 161 c 258
 503 124 l 258
 508 65 471 36 408 36 c 256
 347 36 311 60 311 124 c 256
 311 149 302 161 283 161 c 256
 265 161 256 150 256 129 c 256
 256 72 219 32 152 32 c 256
 100 32 59 62 59 113 c 256
 59 139 64 158 74 170 c 256
 81 177 93 184 110 192 c 257
 214 221 l 257
 235 230 259 247 268 263 c 257
 289 227 344 195 405 195 c 256
 497 195 550 243 550 314 c 256
 550 387 503 443 410 443 c 256
 366 443 349 430 349 410 c 256
 349 397 353 391 384 391 c 258
 433 391 l 258
 474 391 503 364 503 321 c 256
 503 270 474 243 406 243 c 256
 339 243 312 265 281 345 c 256
 258 406 222 432 150 432 c 256
 59 432 6 378 6 294 c 256
 6 277 16 268 37 268 c 256
 52 268 59 280 59 305 c 256
 59 356 82 390 149 390 c 256
 197 390 237 365 237 314 c 256
 237 288 215 268 171 256 c 256
 106 238 71 229 65 225 c 256
 25 200 5 161 5 110 c 256
 5 73 20 41 50 17 c 256
 76 -4 107 -13 142 -13 c 256
 184 -13 216 -7 238 6 c 257
 253 17 268 32 283 51 c 257
 295 16 345 -13 406 -13 c 256
 497 -13 554 35 554 124 c 256
NamedP: "hr00"
EndSplineSet
PickledDataWithLists: "(dp1
S'com.adobe.type.autohint'
p2
(S'data'
S'<data>\\n  <hintSetList>\\n    <hintset pointTag=\"hr00\">\\n      <hstem pos=\"-13\" width=\"49\"/>\\n      <hstem pos=\"-13\" width=\"45\"/>\\n      <hstem pos=\"195\" width=\"48\"/>\\n      <hstem pos=\"390\" width=\"42\"/>\\n      <hstem pos=\"391\" width=\"52\"/>\\n      <vstem pos=\"6\" width=\"53\"/>\\n      <vstem pos=\"256\" width=\"55\"/>\\n      <vstem pos=\"503\" width=\"47\"/>\\n      <vstem pos=\"503\" width=\"51\"/>\\n    </hintset>\\n  </hintSetList>\\n  </data>'
Ntp3
s."
EndChar

StartChar: uni0C1D
Encoding: 144 3101 144
GlifName: uni0C1D_
Width: 1106
VWidth: 0
Flags: W
LayerCount: 2
Back
Fore
SplineSet
773 -36 m 256
NamedP: "hr00"
 773 -32 768 -19 760 3 c 258
 741 53 l 257
 737 45 728 27 713 0 c 256
 703 -19 698 -31 698 -37 c 256
 698 -61 712 -82 737 -82 c 256
 758 -82 773 -59 773 -36 c 256
NamedP: "hr00"
471 202 m 258
 483 341 408 418 283 432 c 257
 287 437 l 257
 311 454 342 480 381 515 c 256
 394 526 410 542 431 562 c 257
 438 567 441 573 441 580 c 256
 441 595 431 605 418 605 c 256
 409 605 401 601 395 594 c 257
 221 437 l 257
 210 436 l 257
 204 436 l 257
 119 518 l 258
 115 521 110 523 104 523 c 256
 88 523 81 511 81 502 c 256
 81 495 83 490 88 486 c 258
 144 430 l 257
 154 423 l 257
 111 408 75 380 47 341 c 256
 19 302 5 259 5 211 c 256
 5 148 28 94 74 51 c 256
 121 8 176 -13 239 -13 c 256
 331 -13 402 29 439 90 c 257
 466 18 513 -20 574 -20 c 256
 654 -20 709 12 739 76 c 257
 763 15 812 -20 865 -20 c 256
 981 -20 1053 56 1053 201 c 256
 1053 277 1032 336 990 379 c 256
 955 416 914 434 868 434 c 256
 836 434 820 426 820 409 c 256
 820 393 825 384 861 384 c 256
 900 384 932 372 958 347 c 256
 990 315 1006 268 1006 207 c 256
 1006 95 948 33 876 33 c 256
 800 33 767 98 767 197 c 257
 764 209 l 257
 764 283 742 341 699 383 c 256
 664 417 624 434 579 434 c 256
 546 434 530 426 530 409 c 256
 530 393 536 384 573 384 c 256
 610 384 643 373 669 347 c 256
 701 316 715 268 715 207 c 256
 715 151 701 107 674 75 c 256
 650 47 621 33 587 33 c 256
 516 33 462 95 469 178 c 258
 471 202 l 258
422 208 m 256
 422 158 405 117 371 85 c 256
 338 53 294 37 239 37 c 256
 191 37 149 54 113 90 c 256
 77 126 60 167 60 213 c 256
 60 262 78 303 113 336 c 256
 149 369 192 386 242 386 c 256
 293 386 336 369 370 336 c 256
 405 303 422 261 422 208 c 256
EndSplineSet
PickledDataWithLists: "(dp1
S'com.adobe.type.autohint'
p2
(S'data'
S'<data>\\n  <hintSetList>\\n    <hintset pointTag=\"hr00\">\\n      <hstem pos=\"-20\" width=\"53\"/>\\n      <hstem pos=\"-13\" width=\"50\"/>\\n      <hstem pos=\"384\" width=\"50\"/>\\n      <hstem pos=\"423\" width=\"-20\"/>\\n      <vstem pos=\"5\" width=\"55\"/>\\n      <vstem pos=\"422\" width=\"49\"/>\\n      <vstem pos=\"698\" width=\"75\"/>\\n      <vstem pos=\"715\" width=\"49\"/>\\n      <vstem pos=\"1006\" width=\"47\"/>\\n    </hintset>\\n  </hintSetList>\\n  </data>'
Ntp3
s."
EndChar

StartChar: uni0C1E
Encoding: 145 3102 145
GlifName: uni0C1E_
Width: 793
VWidth: 0
Flags: W
LayerCount: 2
Back
Fore
SplineSet
429 123 m 257
NamedP: "hr00"
 412 93 383 71 342 54 c 256
 309 41 274 33 239 33 c 256
 143 33 82 68 82 107 c 256
 82 155 137 174 244 174 c 256
 309 174 371 157 429 123 c 257
NamedP: "hr00"
739 294 m 256
 739 310 730 318 712 318 c 258
 636 318 l 257
 636 398 l 258
 636 415 631 428 608 428 c 256
 593 428 585 418 585 398 c 258
 585 318 l 257
 508 318 l 257
 491 359 476 386 462 400 c 256
 439 425 408 437 369 437 c 256
 334 437 306 426 284 406 c 256
 270 392 257 376 250 356 c 257
 237 379 223 396 211 408 c 256
 191 426 167 436 137 436 c 256
 64 436 5 385 5 309 c 256
 5 276 15 248 36 248 c 256
 55 248 65 255 65 270 c 256
 65 275 59 299 59 310 c 256
 59 351 90 386 137 386 c 256
 156 386 171 380 184 369 c 256
 193 360 202 345 211 325 c 256
 214 317 217 304 221 287 c 257
 226 276 236 271 250 271 c 256
 262 271 272 279 279 294 c 257
 286 324 295 346 306 360 c 256
 321 377 342 386 369 386 c 256
 432 386 461 329 461 248 c 256
 461 245 461 234 460 214 c 256
 459 194 457 179 453 169 c 257
 381 201 322 220 250 220 c 256
 99 220 29 185 29 113 c 256
 29 32 107 -13 236 -13 c 256
 294 -13 343 -4 382 15 c 256
 411 30 440 53 469 86 c 257
 497 63 512 16 512 -21 c 256
 512 -34 522 -41 541 -41 c 256
 557 -41 565 -30 565 -9 c 256
 565 6 559 27 546 56 c 256
 532 89 514 115 492 134 c 257
 512 159 516 194 516 255 c 258
 516 271 l 257
 585 271 l 257
 585 197 l 258
 585 179 595 170 614 170 c 256
 629 170 636 180 636 201 c 258
 636 271 l 257
 706 271 l 258
 728 271 739 279 739 294 c 256
EndSplineSet
PickledDataWithLists: "(dp1
S'com.adobe.type.autohint'
p2
(S'data'
S'<data>\\n  <hintSetList>\\n    <hintset pointTag=\"hr00\">\\n      <hstem pos=\"-13\" width=\"46\"/>\\n      <hstem pos=\"174\" width=\"46\"/>\\n      <hstem pos=\"271\" width=\"47\"/>\\n      <hstem pos=\"386\" width=\"50\"/>\\n      <vstem pos=\"5\" width=\"54\"/>\\n      <vstem pos=\"29\" width=\"53\"/>\\n      <vstem pos=\"461\" width=\"55\"/>\\n      <vstem pos=\"512\" width=\"53\"/>\\n      <vstem pos=\"585\" width=\"51\"/>\\n    </hintset>\\n  </hintSetList>\\n  </data>'
Ntp3
s."
EndChar

StartChar: uni0C1F
Encoding: 146 3103 146
GlifName: uni0C1F_
Width: 647
VWidth: 0
Flags: W
LayerCount: 2
Back
Fore
SplineSet
248 340 m 256
NamedP: "hr00"
 248 313 231 291 196 291 c 256
 167 291 144 316 144 343 c 256
 144 375 167 397 198 397 c 256
 226 397 248 372 248 340 c 256
NamedP: "hr00"
594 213 m 256
 594 292 571 352 527 394 c 256
 495 424 460 440 420 440 c 256
 395 440 382 430 382 411 c 256
 382 399 393 384 408 384 c 256
 495 384 542 327 542 224 c 256
 542 99 500 37 416 37 c 256
 361 37 325 80 325 128 c 258
 325 148 l 258
 325 166 317 175 302 175 c 256
 274 175 269 165 269 144 c 258
 269 122 l 258
 269 79 234 40 182 40 c 256
 101 40 56 119 56 223 c 256
 56 276 80 324 100 353 c 257
 99 343 98 335 98 328 c 256
 98 273 131 243 191 243 c 256
 258 243 297 277 297 340 c 256
 297 409 260 443 187 443 c 256
 131 443 87 421 54 377 c 256
 21 333 5 277 5 208 c 256
 5 143 20 90 51 49 c 256
 82 9 124 -11 179 -11 c 256
 234 -11 264 3 300 47 c 257
 317 8 364 -13 416 -13 c 256
 528 -13 594 66 594 213 c 256
235 549 m 256
 235 573 214 599 189 599 c 256
 157 599 137 577 137 552 c 256
 137 543 142 527 151 504 c 256
 160 481 170 462 181 446 c 257
 190 446 l 257
 220 501 l 257
 230 526 235 542 235 549 c 256
EndSplineSet
PickledDataWithLists: "(dp1
S'com.adobe.type.autohint'
p2
(S'data'
S'<data>\\n  <hintSetList>\\n    <hintset pointTag=\"hr00\">\\n      <hstem pos=\"-13\" width=\"50\"/>\\n      <hstem pos=\"-11\" width=\"51\"/>\\n      <hstem pos=\"243\" width=\"48\"/>\\n      <hstem pos=\"384\" width=\"56\"/>\\n      <hstem pos=\"397\" width=\"46\"/>\\n      <hstem pos=\"446\" width=\"153\"/>\\n      <vstem pos=\"5\" width=\"51\"/>\\n      <vstem pos=\"98\" width=\"46\"/>\\n      <vstem pos=\"248\" width=\"49\"/>\\n      <vstem pos=\"269\" width=\"56\"/>\\n      <vstem pos=\"542\" width=\"52\"/>\\n    </hintset>\\n  </hintSetList>\\n  </data>'
Ntp3
s."
EndChar

StartChar: uni0C20
Encoding: 147 3104 147
GlifName: uni0C20_
Width: 524
VWidth: 0
Flags: W
LayerCount: 2
Back
Fore
SplineSet
154 423 m 257
NamedP: "hr00"
 111 408 75 380 47 341 c 256
 19 302 5 259 5 211 c 256
 5 148 28 94 74 51 c 256
 121 8 176 -13 239 -13 c 256
 308 -13 363 7 406 47 c 256
 449 88 471 139 471 202 c 256
 471 341 408 418 283 432 c 257
 287 437 l 257
 311 454 342 480 381 515 c 256
 394 526 410 542 431 562 c 257
 438 567 441 573 441 580 c 256
 441 595 431 605 418 605 c 256
 409 605 401 601 395 594 c 257
 221 437 l 257
 210 436 l 257
 204 436 l 257
 119 518 l 258
 115 521 110 523 104 523 c 256
 88 523 81 511 81 502 c 256
 81 495 83 490 88 486 c 258
 144 430 l 257
 154 423 l 257
NamedP: "hr00"
422 208 m 256
 422 158 405 117 371 85 c 256
 338 53 294 37 239 37 c 256
 191 37 149 54 113 90 c 256
 77 126 60 167 60 213 c 256
 60 262 78 303 113 336 c 256
 149 369 192 386 242 386 c 256
 293 386 336 369 370 336 c 256
 405 303 422 261 422 208 c 256
288 208 m 256
 288 239 273 255 242 255 c 256
 215 255 196 235 196 208 c 256
 196 183 215 162 242 162 c 256
 273 162 288 177 288 208 c 256
EndSplineSet
PickledDataWithLists: "(dp1
S'com.adobe.type.autohint'
p2
(S'data'
S'<data>\\n  <hintSetList>\\n    <hintset pointTag=\"hr00\">\\n      <hstem pos=\"-13\" width=\"50\"/>\\n      <hstem pos=\"162\" width=\"93\"/>\\n      <hstem pos=\"386\" width=\"50\"/>\\n      <hstem pos=\"423\" width=\"-20\"/>\\n      <vstem pos=\"5\" width=\"55\"/>\\n      <vstem pos=\"196\" width=\"92\"/>\\n      <vstem pos=\"422\" width=\"49\"/>\\n    </hintset>\\n  </hintSetList>\\n  </data>'
Ntp3
s."
EndChar

StartChar: uni0C21
Encoding: 148 3105 148
GlifName: uni0C21_
Width: 612
VWidth: 0
Flags: W
LayerCount: 2
Back
Fore
SplineSet
177 421 m 257
NamedP: "hr00"
 124 404 82 373 51 329 c 256
 20 286 5 238 5 185 c 256
 5 61 66 -10 169 -10 c 256
 220 -10 259 19 283 56 c 257
 299 16 347 -13 402 -13 c 256
 444 -13 479 -1 508 24 c 256
 542 52 559 92 559 143 c 256
 559 215 513 270 446 270 c 256
 394 270 350 228 350 179 c 256
 350 150 360 127 380 109 c 256
 397 94 415 87 436 87 c 256
 468 87 486 94 502 106 c 257
 495 66 459 36 406 36 c 256
 347 36 310 81 310 133 c 256
 310 156 301 167 283 167 c 256
 262 167 252 153 252 124 c 256
 252 80 215 44 162 44 c 256
 134 44 111 54 94 75 c 256
 74 99 64 134 64 179 c 256
 64 234 83 283 122 324 c 256
 161 365 212 386 275 386 c 256
 324 386 364 378 395 364 c 256
 421 352 441 339 456 323 c 257
 475 323 484 330 484 343 c 256
 484 358 473 374 450 391 c 256
 421 414 383 427 335 432 c 257
 362 451 394 476 431 506 c 258
 485 551 l 258
 495 559 500 567 500 576 c 256
 500 587 486 605 475 605 c 256
 469 605 460 600 449 591 c 256
 410 558 381 531 361 515 c 256
 301 466 261 441 246 437 c 257
 237 443 218 458 187 482 c 256
 178 489 164 499 146 514 c 256
 139 519 134 521 129 521 c 256
 122 521 115 515 106 503 c 257
 104 497 103 493 103 491 c 256
 103 484 106 477 112 472 c 258
 137 452 l 258
 156 436 170 426 177 421 c 257
NamedP: "hr00"
498 176 m 256
 498 143 481 129 446 129 c 256
 419 129 394 149 394 180 c 256
 394 207 421 226 448 226 c 256
 475 226 498 201 498 176 c 256
EndSplineSet
PickledDataWithLists: "(dp1
S'com.adobe.type.autohint'
p2
(S'data'
S'<data>\\n  <hintSetList>\\n    <hintset pointTag=\"hr00\">\\n      <hstem pos=\"-13\" width=\"49\"/>\\n      <hstem pos=\"-10\" width=\"54\"/>\\n      <hstem pos=\"87\" width=\"42\"/>\\n      <hstem pos=\"226\" width=\"44\"/>\\n      <hstem pos=\"386\" width=\"46\"/>\\n      <hstem pos=\"421\" width=\"-20\"/>\\n      <vstem pos=\"5\" width=\"59\"/>\\n      <vstem pos=\"252\" width=\"58\"/>\\n      <vstem pos=\"350\" width=\"44\"/>\\n      <vstem pos=\"498\" width=\"61\"/>\\n    </hintset>\\n  </hintSetList>\\n  </data>'
Ntp3
s."
EndChar

StartChar: uni0C22
Encoding: 149 3106 149
GlifName: uni0C22_
Width: 612
VWidth: 0
Flags: W
LayerCount: 2
Back
Fore
SplineSet
314 -41 m 256
NamedP: "hr00"
 314 -38 311 -25 302 -2 c 258
 282 47 l 257
 254 -6 l 258
 245 -23 239 -36 239 -43 c 256
 239 -67 252 -87 279 -87 c 256
 300 -87 314 -65 314 -41 c 256
NamedP: "hr00"
177 421 m 257
 124 404 82 373 51 329 c 256
 20 286 5 238 5 185 c 256
 5 61 66 -10 169 -10 c 256
 220 -10 259 19 283 56 c 257
 299 16 347 -13 402 -13 c 256
 444 -13 479 -1 508 24 c 256
 542 52 559 92 559 143 c 256
 559 215 513 270 446 270 c 256
 394 270 350 228 350 179 c 256
 350 150 360 127 380 109 c 256
 397 94 415 87 436 87 c 256
 468 87 486 94 502 106 c 257
 495 66 459 36 406 36 c 256
 347 36 310 81 310 133 c 256
 310 156 301 167 283 167 c 256
 262 167 252 153 252 124 c 256
 252 80 215 44 162 44 c 256
 134 44 111 54 94 75 c 256
 74 99 64 134 64 179 c 256
 64 234 83 283 122 324 c 256
 161 365 212 386 275 386 c 256
 324 386 364 378 395 364 c 256
 421 352 441 339 456 323 c 257
 475 323 484 330 484 343 c 256
 484 358 473 374 450 391 c 256
 421 414 383 427 335 432 c 257
 362 451 394 476 431 506 c 258
 485 551 l 258
 495 559 500 567 500 576 c 256
 500 587 486 605 475 605 c 256
 469 605 460 600 449 591 c 256
 410 558 381 531 361 515 c 256
 301 466 261 441 246 437 c 257
 237 443 218 458 187 482 c 256
 178 489 164 499 146 514 c 256
 139 519 134 521 129 521 c 256
 122 521 115 515 106 503 c 257
 104 497 103 493 103 491 c 256
 103 484 106 477 112 472 c 258
 137 452 l 258
 156 436 170 426 177 421 c 257
498 176 m 256
 498 143 481 129 446 129 c 256
 419 129 394 149 394 180 c 256
 394 207 421 226 448 226 c 256
 475 226 498 201 498 176 c 256
EndSplineSet
PickledDataWithLists: "(dp1
S'com.adobe.type.autohint'
p2
(S'data'
S'<data>\\n  <hintSetList>\\n    <hintset pointTag=\"hr00\">\\n      <hstem pos=\"-13\" width=\"49\"/>\\n      <hstem pos=\"-10\" width=\"54\"/>\\n      <hstem pos=\"87\" width=\"42\"/>\\n      <hstem pos=\"226\" width=\"44\"/>\\n      <hstem pos=\"386\" width=\"46\"/>\\n      <hstem pos=\"421\" width=\"-20\"/>\\n      <vstem pos=\"5\" width=\"59\"/>\\n      <vstem pos=\"239\" width=\"75\"/>\\n      <vstem pos=\"252\" width=\"58\"/>\\n      <vstem pos=\"350\" width=\"44\"/>\\n      <vstem pos=\"498\" width=\"61\"/>\\n    </hintset>\\n  </hintSetList>\\n  </data>'
Ntp3
s."
EndChar

StartChar: uni0C23
Encoding: 150 3107 150
GlifName: uni0C23_
Width: 664
VWidth: 0
Flags: W
LayerCount: 2
Back
Fore
SplineSet
480 105 m 256
NamedP: "hr00"
 480 60 447 36 410 36 c 256
 371 36 343 60 343 107 c 256
 343 146 371 174 410 174 c 256
 451 174 480 150 480 105 c 256
NamedP: "hr00"
611 206 m 256
 611 354 537 436 430 436 c 256
 367 436 320 406 297 359 c 257
 280 404 230 436 157 436 c 256
 68 436 6 385 6 309 c 256
 6 267 25 236 64 216 c 257
 24 184 5 161 5 110 c 256
 5 35 56 -10 137 -10 c 256
 168 -10 196 -2 221 14 c 256
 247 30 260 44 260 55 c 256
 260 76 250 87 231 87 c 257
 190 52 l 257
 174 42 158 37 142 37 c 256
 99 37 64 62 64 113 c 256
 64 164 95 189 156 189 c 256
 178 189 189 198 189 215 c 256
 189 238 182 245 149 245 c 256
 108 245 61 271 61 316 c 256
 61 357 101 391 157 391 c 256
 192 391 219 383 236 366 c 256
 247 354 254 337 258 315 c 257
 263 299 275 279 291 279 c 256
 308 279 319 283 325 291 c 257
 328 300 331 310 335 320 c 256
 342 339 351 354 364 366 c 256
 381 383 403 391 430 391 c 256
 503 391 560 326 560 213 c 256
 560 190 557 166 551 140 c 256
 545 115 538 98 529 89 c 257
 530 97 531 104 531 109 c 256
 531 176 488 224 425 224 c 256
 338 224 292 172 292 103 c 256
 292 34 341 -15 425 -15 c 256
 480 -15 524 5 559 45 c 256
 594 86 611 139 611 206 c 256
EndSplineSet
PickledDataWithLists: "(dp1
S'com.adobe.type.autohint'
p2
(S'data'
S'<data>\\n  <hintSetList>\\n    <hintset pointTag=\"hr00\">\\n      <hstem pos=\"-15\" width=\"51\"/>\\n      <hstem pos=\"-10\" width=\"47\"/>\\n      <hstem pos=\"174\" width=\"50\"/>\\n      <hstem pos=\"189\" width=\"56\"/>\\n      <hstem pos=\"391\" width=\"45\"/>\\n      <vstem pos=\"5\" width=\"59\"/>\\n      <vstem pos=\"6\" width=\"55\"/>\\n      <vstem pos=\"292\" width=\"51\"/>\\n      <vstem pos=\"480\" width=\"51\"/>\\n      <vstem pos=\"560\" width=\"51\"/>\\n    </hintset>\\n  </hintSetList>\\n  </data>'
Ntp3
s."
EndChar

StartChar: uni0C24
Encoding: 151 3108 151
GlifName: uni0C24_
Width: 612
VWidth: 0
Flags: W
LayerCount: 2
Back
Fore
SplineSet
338 386 m 258
NamedP: "hr00"
 356 386 374 381 392 374 c 256
 411 366 422 361 426 357 c 257
 439 349 425 359 410 359 c 256
 387 359 365 350 344 333 c 256
 323 316 313 294 313 268 c 256
 313 211 350 174 411 174 c 256
 467 174 505 214 506 249 c 257
 511 238 513 224 513 195 c 256
 513 152 492 114 450 83 c 256
 408 52 351 37 279 37 c 256
 212 37 158 52 117 81 c 256
 76 111 56 146 56 187 c 256
 56 220 61 243 71 256 c 257
 71 247 l 258
 71 198 110 167 159 167 c 256
 219 167 257 207 257 259 c 256
 257 307 219 351 159 351 c 256
 120 351 86 337 57 310 c 256
 22 279 5 238 5 187 c 256
 5 133 26 88 67 51 c 256
 115 8 186 -13 281 -13 c 256
 364 -13 431 7 482 46 c 256
 533 86 559 134 559 190 c 256
 559 249 541 293 505 322 c 257
 505 349 488 374 453 399 c 256
 419 424 379 436 333 436 c 257
 334 436 l 257
 357 452 386 474 422 503 c 256
 435 513 451 527 472 544 c 256
 480 551 484 558 484 564 c 256
 484 573 471 591 459 591 c 256
 449 591 440 587 431 580 c 256
 396 551 370 529 351 514 c 256
 296 469 260 443 245 436 c 257
 241 436 l 257
 231 443 217 455 199 470 c 257
 187 478 171 499 154 499 c 256
 141 499 126 483 126 471 c 256
 126 464 131 454 144 444 c 258
 202 399 l 257
 205 394 215 389 231 386 c 257
 338 386 l 258
NamedP: "hr00"
465 268 m 256
 465 229 446 209 408 209 c 256
 372 209 353 237 353 266 c 256
 353 294 375 314 416 314 c 256
 449 314 465 299 465 268 c 256
216 260 m 256
 216 225 192 209 160 209 c 256
 131 209 107 232 107 256 c 256
 107 288 125 311 162 311 c 256
 198 311 216 294 216 260 c 256
EndSplineSet
PickledDataWithLists: "(dp1
S'com.adobe.type.autohint'
p2
(S'data'
S'<data>\\n  <hintSetList>\\n    <hintset pointTag=\"hr00\">\\n      <hstem pos=\"-13\" width=\"50\"/>\\n      <hstem pos=\"167\" width=\"42\"/>\\n      <hstem pos=\"174\" width=\"35\"/>\\n      <hstem pos=\"311\" width=\"40\"/>\\n      <hstem pos=\"314\" width=\"40\"/>\\n      <hstem pos=\"386\" width=\"50\"/>\\n      <vstem pos=\"5\" width=\"51\"/>\\n      <vstem pos=\"71\" width=\"36\"/>\\n      <vstem pos=\"216\" width=\"41\"/>\\n      <vstem pos=\"313\" width=\"40\"/>\\n      <vstem pos=\"465\" width=\"41\"/>\\n      <vstem pos=\"513\" width=\"46\"/>\\n    </hintset>\\n  </hintSetList>\\n  </data>'
Ntp3
s."
EndChar

StartChar: uni0C25
Encoding: 152 3109 152
GlifName: uni0C25_
Width: 608
VWidth: 0
Flags: W
LayerCount: 2
Back
Fore
SplineSet
308 -41 m 256
NamedP: "hr00"
 308 -38 305 -25 296 -2 c 256
 286 25 279 42 276 47 c 257
 273 40 264 22 249 -6 c 256
 239 -23 234 -36 234 -43 c 256
 234 -67 246 -87 273 -87 c 256
 294 -87 308 -65 308 -41 c 256
NamedP: "hr00"
181 423 m 257
 128 404 86 373 53 328 c 256
 21 283 5 236 5 185 c 256
 5 64 65 -9 160 -9 c 256
 220 -9 260 22 275 61 c 257
 295 18 336 -15 384 -15 c 256
 487 -15 554 58 554 185 c 256
 554 244 537 296 502 340 c 256
 463 391 410 421 344 431 c 257
 371 452 402 477 437 506 c 256
 451 517 469 532 490 551 c 257
 501 559 506 567 506 576 c 256
 506 587 490 605 481 605 c 256
 475 605 467 600 456 591 c 256
 418 558 389 535 368 520 c 257
 308 472 270 444 250 437 c 257
 237 444 217 459 190 482 c 256
 181 489 168 499 151 514 c 256
 145 519 140 521 135 521 c 256
 128 521 120 515 111 503 c 256
 108 498 106 493 106 490 c 256
 106 482 109 476 115 471 c 256
 120 468 125 464 128 460 c 257
 143 449 161 436 181 423 c 257
504 169 m 256
 504 133 493 102 470 76 c 256
 448 50 423 37 395 37 c 256
 344 37 314 78 314 113 c 258
 314 125 l 258
 314 146 304 164 280 164 c 256
 259 164 245 150 245 125 c 258
 245 113 l 258
 245 81 215 44 164 44 c 256
 99 44 57 95 57 175 c 256
 57 232 78 282 119 323 c 256
 161 365 215 386 282 386 c 256
 344 386 396 368 437 331 c 256
 482 291 504 237 504 169 c 256
328 245 m 256
 328 270 309 291 282 291 c 256
 255 291 235 270 235 245 c 256
 235 218 255 198 282 198 c 256
 313 198 328 214 328 245 c 256
EndSplineSet
PickledDataWithLists: "(dp1
S'com.adobe.type.autohint'
p2
(S'data'
S'<data>\\n  <hintSetList>\\n    <hintset pointTag=\"hr00\">\\n      <hstem pos=\"-15\" width=\"52\"/>\\n      <hstem pos=\"-9\" width=\"53\"/>\\n      <hstem pos=\"198\" width=\"93\"/>\\n      <hstem pos=\"423\" width=\"-20\"/>\\n      <vstem pos=\"5\" width=\"52\"/>\\n      <vstem pos=\"234\" width=\"74\"/>\\n      <vstem pos=\"235\" width=\"93\"/>\\n      <vstem pos=\"245\" width=\"69\"/>\\n      <vstem pos=\"504\" width=\"50\"/>\\n    </hintset>\\n  </hintSetList>\\n  </data>'
Ntp3
s."
EndChar

StartChar: uni0C26
Encoding: 153 3110 153
GlifName: uni0C26_
Width: 608
VWidth: 0
Flags: W
LayerCount: 2
Back
Fore
SplineSet
181 423 m 257
NamedP: "hr00"
 128 404 86 373 53 328 c 256
 21 283 5 236 5 185 c 256
 5 64 65 -9 160 -9 c 256
 220 -9 260 22 275 61 c 257
 295 18 336 -15 384 -15 c 256
 487 -15 554 58 554 185 c 256
 554 244 537 296 502 340 c 256
 463 391 410 421 344 431 c 257
 371 452 402 477 437 506 c 256
 451 517 469 532 490 551 c 257
 501 559 506 567 506 576 c 256
 506 587 490 605 481 605 c 256
 475 605 467 600 456 591 c 256
 418 558 389 535 368 520 c 257
 308 472 270 444 250 437 c 257
 237 444 217 459 190 482 c 256
 181 489 168 499 151 514 c 256
 145 519 140 521 135 521 c 256
 128 521 120 515 111 503 c 256
 108 498 106 493 106 490 c 256
 106 482 109 476 115 471 c 256
 120 468 125 464 128 460 c 257
 143 449 161 436 181 423 c 257
NamedP: "hr00"
504 169 m 256
 504 133 493 102 470 76 c 256
 448 50 423 37 395 37 c 256
 344 37 314 78 314 113 c 258
 314 125 l 258
 314 146 304 164 280 164 c 256
 259 164 245 150 245 125 c 258
 245 113 l 258
 245 81 215 44 164 44 c 256
 99 44 57 95 57 175 c 256
 57 232 78 282 119 323 c 256
 161 365 215 386 282 386 c 256
 344 386 396 368 437 331 c 256
 482 291 504 237 504 169 c 256
EndSplineSet
PickledDataWithLists: "(dp1
S'com.adobe.type.autohint'
p2
(S'data'
S'<data>\\n  <hintSetList>\\n    <hintset pointTag=\"hr00\">\\n      <hstem pos=\"-15\" width=\"52\"/>\\n      <hstem pos=\"-9\" width=\"53\"/>\\n      <hstem pos=\"423\" width=\"-20\"/>\\n      <vstem pos=\"5\" width=\"52\"/>\\n      <vstem pos=\"245\" width=\"69\"/>\\n      <vstem pos=\"504\" width=\"50\"/>\\n    </hintset>\\n  </hintSetList>\\n  </data>'
Ntp3
s."
EndChar

StartChar: uni0C27
Encoding: 154 3111 154
GlifName: uni0C27_
Width: 608
VWidth: 0
Flags: W
LayerCount: 2
Back
Fore
SplineSet
310 -36 m 256
NamedP: "hr00"
 310 -32 306 -19 297 3 c 256
 286 31 280 48 277 53 c 257
 274 45 265 27 250 0 c 256
 240 -19 235 -31 235 -37 c 256
 235 -61 247 -82 274 -82 c 256
 295 -82 310 -59 310 -36 c 256
NamedP: "hr00"
181 423 m 257
 128 404 86 373 53 328 c 256
 21 283 5 236 5 185 c 256
 5 64 65 -9 160 -9 c 256
 220 -9 260 22 275 61 c 257
 295 18 336 -15 384 -15 c 256
 487 -15 554 58 554 185 c 256
 554 244 537 296 502 340 c 256
 463 391 410 421 344 431 c 257
 371 452 402 477 437 506 c 256
 451 517 469 532 490 551 c 257
 501 559 506 567 506 576 c 256
 506 587 490 605 481 605 c 256
 475 605 467 600 456 591 c 256
 418 558 389 535 368 520 c 257
 308 472 270 444 250 437 c 257
 237 444 217 459 190 482 c 256
 181 489 168 499 151 514 c 256
 145 519 140 521 135 521 c 256
 128 521 120 515 111 503 c 256
 108 498 106 493 106 490 c 256
 106 482 109 476 115 471 c 256
 120 468 125 464 128 460 c 257
 143 449 161 436 181 423 c 257
504 169 m 256
 504 133 493 102 470 76 c 256
 448 50 423 37 395 37 c 256
 344 37 314 78 314 113 c 258
 314 125 l 258
 314 146 304 164 280 164 c 256
 259 164 245 150 245 125 c 258
 245 113 l 258
 245 81 215 44 164 44 c 256
 99 44 57 95 57 175 c 256
 57 232 78 282 119 323 c 256
 161 365 215 386 282 386 c 256
 344 386 396 368 437 331 c 256
 482 291 504 237 504 169 c 256
EndSplineSet
PickledDataWithLists: "(dp1
S'com.adobe.type.autohint'
p2
(S'data'
S'<data>\\n  <hintSetList>\\n    <hintset pointTag=\"hr00\">\\n      <hstem pos=\"-15\" width=\"52\"/>\\n      <hstem pos=\"-9\" width=\"53\"/>\\n      <hstem pos=\"423\" width=\"-20\"/>\\n      <vstem pos=\"5\" width=\"52\"/>\\n      <vstem pos=\"235\" width=\"75\"/>\\n      <vstem pos=\"245\" width=\"69\"/>\\n      <vstem pos=\"504\" width=\"50\"/>\\n    </hintset>\\n  </hintSetList>\\n  </data>'
Ntp3
s."
EndChar

StartChar: uni0C28
Encoding: 155 3112 155
GlifName: uni0C28_
Width: 583
VWidth: 0
Flags: W
LayerCount: 2
Back
Fore
SplineSet
530 194 m 256
NamedP: "hr00"
 530 268 509 327 467 370 c 256
 425 414 372 436 307 436 c 258
 244 436 l 257
 399 553 l 258
 409 561 415 569 415 578 c 256
 415 589 403 605 390 605 c 256
 383 605 373 600 360 590 c 258
 171 440 l 257
 167 440 l 257
 91 500 l 258
 84 506 78 509 73 509 c 256
 67 509 59 504 50 495 c 257
 46 489 44 484 44 480 c 256
 44 473 47 466 52 461 c 257
 69 448 89 433 113 416 c 256
 138 399 157 389 171 386 c 257
 308 386 l 258
 358 386 399 368 432 331 c 256
 465 295 482 249 482 194 c 256
 482 154 470 118 447 87 c 256
 424 56 395 40 359 40 c 256
 334 40 315 45 303 56 c 257
 297 63 288 76 279 97 c 256
 266 129 256 161 245 192 c 256
 230 232 183 262 134 262 c 256
 99 262 69 250 43 225 c 256
 18 201 5 170 5 132 c 256
 5 100 17 68 43 35 c 256
 68 3 93 -13 116 -13 c 256
 135 -13 144 -4 144 13 c 256
 144 18 129 31 100 52 c 256
 71 73 56 98 56 128 c 256
 56 181 85 210 128 210 c 256
 153 210 172 204 185 193 c 256
 195 183 205 165 211 140 c 256
 224 89 238 53 256 32 c 256
 279 3 312 -11 356 -11 c 256
 456 -11 530 66 530 194 c 256
NamedP: "hr00"
EndSplineSet
PickledDataWithLists: "(dp1
S'com.adobe.type.autohint'
p2
(S'data'
S'<data>\\n  <hintSetList>\\n    <hintset pointTag=\"hr00\">\\n      <hstem pos=\"-11\" width=\"51\"/>\\n      <hstem pos=\"210\" width=\"52\"/>\\n      <hstem pos=\"386\" width=\"50\"/>\\n      <vstem pos=\"5\" width=\"51\"/>\\n      <vstem pos=\"482\" width=\"48\"/>\\n    </hintset>\\n  </hintSetList>\\n  </data>'
Ntp3
s."
EndChar

StartChar: uni0C2A
Encoding: 156 3114 156
GlifName: uni0C2A_
Width: 602
VWidth: 0
Flags: W
LayerCount: 2
Back
Fore
SplineSet
357 593 m 256
NamedP: "hr00"
 350 600 343 603 338 603 c 256
 327 603 318 599 311 591 c 257
 227 522 l 258
 170 476 135 451 122 447 c 257
 111 454 97 465 80 482 c 257
 68 489 49 510 33 510 c 256
 22 510 5 495 5 484 c 256
 5 476 12 467 25 456 c 258
 80 409 l 258
 88 402 101 399 119 399 c 257
 139 402 167 417 189 431 c 256
 215 447 248 474 292 509 c 256
 306 520 326 536 351 557 c 256
 360 564 364 570 364 577 c 256
 364 582 362 587 357 593 c 256
NamedP: "hr00"
219 122 m 256
 219 74 182 37 137 37 c 256
 92 37 54 78 54 122 c 256
 54 169 92 206 137 206 c 256
 182 206 219 166 219 122 c 256
549 197 m 256
 549 275 527 335 485 379 c 256
 448 416 406 436 357 436 c 256
 341 436 333 427 333 409 c 256
 333 394 341 386 356 386 c 256
 395 386 428 369 455 334 c 256
 482 300 496 258 496 209 c 256
 496 158 484 117 459 85 c 256
 435 53 407 37 376 37 c 256
 344 37 314 52 297 83 c 256
 291 94 284 112 276 136 c 256
 268 160 259 180 250 196 c 256
 233 229 195 251 142 251 c 256
 102 251 69 239 43 214 c 256
 18 189 5 159 5 124 c 256
 5 39 62 -13 142 -13 c 256
 167 -13 190 -6 213 8 c 256
 236 23 251 38 258 53 c 257
 283 8 321 -15 372 -15 c 256
 420 -15 461 5 496 45 c 256
 531 86 549 136 549 197 c 256
EndSplineSet
PickledDataWithLists: "(dp1
S'com.adobe.type.autohint'
p2
(S'data'
S'<data>\\n  <hintSetList>\\n    <hintset pointTag=\"hr00\">\\n      <hstem pos=\"-13\" width=\"50\"/>\\n      <hstem pos=\"206\" width=\"45\"/>\\n      <hstem pos=\"386\" width=\"50\"/>\\n      <vstem pos=\"5\" width=\"49\"/>\\n      <vstem pos=\"496\" width=\"53\"/>\\n    </hintset>\\n  </hintSetList>\\n  </data>'
Ntp3
s."
EndChar

StartChar: uni0C2B
Encoding: 157 3115 157
GlifName: uni0C2B_
Width: 602
VWidth: 0
Flags: W
LayerCount: 2
Back
Fore
SplineSet
290 -41 m 256
NamedP: "hr00"
 290 -38 286 -25 277 -2 c 256
 267 25 261 42 260 47 c 257
 255 40 246 22 231 -6 c 256
 222 -23 216 -36 216 -43 c 256
 216 -67 230 -87 254 -87 c 256
 278 -87 290 -65 290 -41 c 256
NamedP: "hr00"
357 593 m 256
 350 600 343 603 338 603 c 256
 327 603 318 599 311 591 c 257
 227 522 l 258
 170 476 135 451 122 447 c 257
 111 454 97 465 80 482 c 257
 68 489 49 510 33 510 c 256
 22 510 5 495 5 484 c 256
 5 476 12 467 25 456 c 258
 80 409 l 258
 88 402 101 399 119 399 c 257
 139 402 167 417 189 431 c 256
 215 447 248 474 292 509 c 256
 306 520 326 536 351 557 c 256
 360 564 364 570 364 577 c 256
 364 582 362 587 357 593 c 256
219 122 m 256
 219 74 182 37 137 37 c 256
 92 37 54 78 54 122 c 256
 54 169 92 206 137 206 c 256
 182 206 219 166 219 122 c 256
549 197 m 256
 549 275 527 335 485 379 c 256
 448 416 406 436 357 436 c 256
 341 436 333 427 333 409 c 256
 333 394 341 386 356 386 c 256
 395 386 428 369 455 334 c 256
 482 300 496 258 496 209 c 256
 496 158 484 117 459 85 c 256
 435 53 407 37 376 37 c 256
 344 37 314 52 297 83 c 256
 291 94 284 112 276 136 c 256
 268 160 259 180 250 196 c 256
 233 229 195 251 142 251 c 256
 102 251 69 239 43 214 c 256
 18 189 5 159 5 124 c 256
 5 39 62 -13 142 -13 c 256
 167 -13 190 -6 213 8 c 256
 236 23 251 38 258 53 c 257
 283 8 321 -15 372 -15 c 256
 420 -15 461 5 496 45 c 256
 531 86 549 136 549 197 c 256
EndSplineSet
PickledDataWithLists: "(dp1
S'com.adobe.type.autohint'
p2
(S'data'
S'<data>\\n  <hintSetList>\\n    <hintset pointTag=\"hr00\">\\n      <hstem pos=\"-13\" width=\"50\"/>\\n      <hstem pos=\"206\" width=\"45\"/>\\n      <hstem pos=\"386\" width=\"50\"/>\\n      <vstem pos=\"5\" width=\"49\"/>\\n      <vstem pos=\"216\" width=\"74\"/>\\n      <vstem pos=\"496\" width=\"53\"/>\\n    </hintset>\\n  </hintSetList>\\n  </data>'
Ntp3
s."
EndChar

StartChar: uni0C2C
Encoding: 158 3116 158
GlifName: uni0C2C_
Width: 606
VWidth: 0
Flags: W
LayerCount: 2
Back
Fore
SplineSet
553 200 m 256
NamedP: "hr00"
 553 274 531 332 487 374 c 256
 448 411 400 429 343 429 c 256
 323 429 313 420 313 403 c 256
 313 388 323 380 343 380 c 256
 384 380 420 363 453 329 c 256
 486 296 503 255 503 206 c 256
 503 155 491 114 468 83 c 256
 445 52 417 37 384 37 c 256
 329 37 306 72 306 132 c 256
 306 160 297 174 279 174 c 256
 258 174 248 163 248 140 c 256
 248 84 212 40 151 40 c 256
 102 40 64 70 64 117 c 256
 64 156 69 166 110 189 c 257
 205 218 l 258
 229 225 246 235 256 246 c 257
 274 261 283 282 283 309 c 256
 283 388 229 434 156 434 c 256
 67 434 15 386 15 305 c 256
 15 288 24 279 41 279 c 256
 54 279 62 284 67 294 c 257
 71 330 74 384 152 384 c 256
 193 384 233 359 233 310 c 256
 233 284 212 266 171 257 c 256
 110 244 73 234 61 226 c 256
 24 202 5 164 5 113 c 256
 5 77 18 47 45 23 c 256
 72 -1 102 -13 137 -13 c 256
 177 -13 208 -5 231 10 c 256
 250 23 265 39 275 60 c 257
 286 23 326 -15 379 -15 c 256
 428 -15 470 5 503 45 c 256
 536 86 553 137 553 200 c 256
NamedP: "hr00"
EndSplineSet
PickledDataWithLists: "(dp1
S'com.adobe.type.autohint'
p2
(S'data'
S'<data>\\n  <hintSetList>\\n    <hintset pointTag=\"hr00\">\\n      <hstem pos=\"-15\" width=\"52\"/>\\n      <hstem pos=\"-13\" width=\"53\"/>\\n      <hstem pos=\"380\" width=\"49\"/>\\n      <hstem pos=\"384\" width=\"50\"/>\\n      <vstem pos=\"5\" width=\"59\"/>\\n      <vstem pos=\"233\" width=\"50\"/>\\n      <vstem pos=\"248\" width=\"58\"/>\\n      <vstem pos=\"503\" width=\"50\"/>\\n    </hintset>\\n  </hintSetList>\\n  </data>'
Ntp3
s."
EndChar

StartChar: uni0C2D
Encoding: 159 3117 159
GlifName: uni0C2D_
Width: 642
VWidth: 0
Flags: W
LayerCount: 2
Back
Fore
SplineSet
307 -36 m 256
NamedP: "hr00"
 307 -32 303 -19 295 3 c 256
 284 31 278 48 275 53 c 257
 248 0 l 258
 238 -19 233 -31 233 -37 c 256
 233 -61 245 -82 272 -82 c 256
 293 -82 307 -59 307 -36 c 256
NamedP: "hr00"
434 434 m 258
 457 452 488 477 527 510 c 256
 541 522 559 538 580 559 c 256
 586 564 589 571 589 578 c 256
 589 593 578 603 565 603 c 256
 556 603 548 599 542 592 c 257
 368 434 l 257
 349 434 l 257
 266 514 l 257
 262 519 257 522 250 522 c 256
 238 522 227 510 227 502 c 256
 227 494 230 487 236 482 c 258
 257 461 l 258
 276 442 286 430 289 428 c 257
 301 415 316 406 333 399 c 257
 376 387 l 257
 381 386 l 257
 465 386 503 314 503 206 c 256
 503 155 491 114 468 83 c 256
 445 52 417 37 384 37 c 256
 329 37 306 72 306 132 c 256
 306 160 297 174 279 174 c 256
 258 174 248 163 248 140 c 256
 248 84 212 40 151 40 c 256
 102 40 64 70 64 117 c 256
 64 156 69 166 110 189 c 257
 205 218 l 258
 229 225 246 235 256 246 c 257
 274 261 283 282 283 309 c 256
 283 388 229 434 156 434 c 256
 67 434 15 386 15 305 c 256
 15 288 24 279 41 279 c 256
 54 279 62 284 67 294 c 257
 71 330 74 384 152 384 c 256
 193 384 233 359 233 310 c 256
 233 284 212 266 171 257 c 256
 110 244 73 234 61 226 c 256
 24 202 5 164 5 113 c 256
 5 77 18 47 45 23 c 256
 72 -1 102 -13 137 -13 c 256
 177 -13 208 -5 231 10 c 256
 250 23 265 39 275 60 c 257
 286 23 326 -15 379 -15 c 256
 482 -15 553 71 553 220 c 256
 553 327 511 404 426 428 c 257
 434 434 l 258
EndSplineSet
PickledDataWithLists: "(dp1
S'com.adobe.type.autohint'
p2
(S'data'
S'<data>\\n  <hintSetList>\\n    <hintset pointTag=\"hr00\">\\n      <hstem pos=\"-15\" width=\"52\"/>\\n      <hstem pos=\"-13\" width=\"53\"/>\\n      <hstem pos=\"384\" width=\"50\"/>\\n      <vstem pos=\"5\" width=\"59\"/>\\n      <vstem pos=\"233\" width=\"50\"/>\\n      <vstem pos=\"233\" width=\"74\"/>\\n      <vstem pos=\"248\" width=\"58\"/>\\n      <vstem pos=\"503\" width=\"50\"/>\\n    </hintset>\\n  </hintSetList>\\n  </data>'
Ntp3
s."
EndChar

StartChar: uni0C2E
Encoding: 160 3118 160
GlifName: uni0C2E_
Width: 879
VWidth: 0
Flags: W
LayerCount: 2
Back
Fore
SplineSet
533 197 m 257
NamedP: "hr00"
 533 259 517 314 483 361 c 256
 447 411 400 436 344 436 c 258
 249 436 l 257
 392 547 l 258
 406 558 413 567 413 574 c 256
 413 586 400 602 384 602 c 256
 377 602 368 598 358 589 c 258
 183 446 l 257
 160 446 l 257
 91 502 l 257
 90 504 86 505 80 505 c 256
 67 505 58 500 51 491 c 257
 50 486 49 482 49 479 c 256
 49 467 53 459 61 455 c 257
 165 386 l 257
 338 386 l 258
 377 386 411 369 440 334 c 256
 469 300 484 253 484 194 c 256
 484 153 472 117 449 85 c 256
 426 53 398 37 364 37 c 256
 330 37 303 57 283 98 c 256
 272 119 260 149 246 186 c 257
 232 207 220 221 210 229 c 256
 192 242 168 249 139 249 c 256
 100 249 67 236 42 210 c 256
 17 185 5 154 5 117 c 256
 5 76 19 43 46 18 c 256
 71 -4 101 -15 137 -15 c 256
 162 -15 187 -7 210 10 c 256
 227 23 241 38 252 54 c 257
 265 21 312 -15 369 -15 c 256
 424 -15 478 26 506 82 c 257
 529 15 580 -20 637 -20 c 256
 750 -20 826 58 826 201 c 256
 826 276 803 335 761 379 c 256
 725 415 686 434 641 434 c 256
 608 434 592 426 592 409 c 256
 592 393 598 384 635 384 c 256
 672 384 705 373 731 347 c 256
 764 316 779 268 779 207 c 256
 779 151 765 107 737 75 c 256
 714 47 684 33 649 33 c 256
 577 33 531 92 531 175 c 257
 533 197 l 257
NamedP: "hr00"
216 117 m 256
 216 66 179 36 134 36 c 256
 87 36 53 73 53 117 c 256
 53 164 87 200 134 200 c 256
 177 200 216 164 216 117 c 256
EndSplineSet
PickledDataWithLists: "(dp1
S'com.adobe.type.autohint'
p2
(S'data'
S'<data>\\n  <hintSetList>\\n    <hintset pointTag=\"hr00\">\\n      <hstem pos=\"-20\" width=\"53\"/>\\n      <hstem pos=\"-15\" width=\"52\"/>\\n      <hstem pos=\"200\" width=\"49\"/>\\n      <hstem pos=\"386\" width=\"50\"/>\\n      <vstem pos=\"5\" width=\"48\"/>\\n      <vstem pos=\"484\" width=\"47\"/>\\n      <vstem pos=\"779\" width=\"47\"/>\\n    </hintset>\\n  </hintSetList>\\n  </data>'
Ntp3
s."
EndChar

StartChar: uni0C2F
Encoding: 161 3119 161
GlifName: uni0C2F_
Width: 1133
VWidth: 0
Flags: W
LayerCount: 2
Back
Fore
SplineSet
788 211 m 257
NamedP: "hr00"
 788 338 723 412 606 431 c 257
 632 448 663 471 699 500 c 256
 712 511 729 525 749 544 c 256
 757 551 761 557 761 563 c 256
 761 574 748 590 736 590 c 256
 726 590 717 586 710 579 c 256
 676 550 650 529 633 515 c 256
 578 471 542 443 523 436 c 258
 518 434 l 257
 507 442 493 454 476 469 c 257
 465 477 447 497 431 497 c 256
 419 497 404 481 404 470 c 256
 404 463 410 453 422 443 c 258
 477 397 l 258
 487 389 501 385 518 385 c 257
 525 386 l 257
 591 386 l 258
 624 386 655 373 683 347 c 256
 716 315 733 270 733 213 c 256
 733 97 677 36 584 36 c 256
 553 36 527 47 506 70 c 256
 485 93 475 120 475 149 c 258
 475 213 l 258
 475 276 453 329 408 372 c 256
 364 415 309 436 242 436 c 256
 172 436 115 415 71 373 c 256
 27 332 5 274 5 201 c 256
 5 140 30 89 80 46 c 256
 126 5 179 -15 239 -15 c 256
 288 -15 329 -5 362 15 c 256
 385 30 410 52 435 83 c 257
 458 26 515 -15 596 -15 c 256
 661 -15 722 23 754 79 c 257
 781 14 834 -20 890 -20 c 256
 1003 -20 1080 58 1080 201 c 256
 1080 276 1058 336 1015 379 c 256
 979 416 939 434 895 434 c 256
 862 434 846 426 846 409 c 256
 846 393 851 384 888 384 c 256
 925 384 957 372 983 347 c 256
 1015 315 1031 268 1031 207 c 256
 1031 151 1017 107 990 75 c 256
 965 47 936 33 902 33 c 256
 867 33 839 46 817 73 c 256
 795 100 784 133 784 172 c 257
 788 211 l 257
NamedP: "hr00"
422 208 m 256
 422 161 405 120 371 87 c 256
 338 54 293 37 237 37 c 256
 190 37 148 54 111 87 c 256
 74 120 56 162 56 213 c 256
 56 262 74 303 109 336 c 256
 144 369 186 386 235 386 c 256
 347 386 422 323 422 208 c 256
EndSplineSet
PickledDataWithLists: "(dp1
S'com.adobe.type.autohint'
p2
(S'data'
S'<data>\\n  <hintSetList>\\n    <hintset pointTag=\"hr00\">\\n      <hstem pos=\"-20\" width=\"53\"/>\\n      <hstem pos=\"-15\" width=\"51\"/>\\n      <hstem pos=\"386\" width=\"50\"/>\\n      <vstem pos=\"5\" width=\"51\"/>\\n      <vstem pos=\"422\" width=\"53\"/>\\n      <vstem pos=\"733\" width=\"55\"/>\\n      <vstem pos=\"1031\" width=\"49\"/>\\n    </hintset>\\n  </hintSetList>\\n  </data>'
Ntp3
s."
EndChar

StartChar: uni0C30
Encoding: 162 3120 162
GlifName: uni0C30_
Width: 529
VWidth: 0
Flags: W
LayerCount: 2
Back
Fore
SplineSet
154 423 m 257
NamedP: "hr00"
 111 408 75 380 47 341 c 256
 19 302 5 259 5 211 c 256
 5 148 28 94 74 51 c 256
 121 8 176 -13 239 -13 c 256
 308 -13 363 7 406 47 c 256
 449 88 476 139 476 202 c 256
 476 341 408 418 283 432 c 257
 287 437 l 257
 311 454 342 480 381 515 c 256
 394 526 410 542 431 562 c 257
 438 567 441 573 441 580 c 256
 441 595 431 605 418 605 c 256
 409 605 401 601 395 594 c 257
 221 437 l 257
 210 436 l 257
 204 436 l 257
 119 518 l 258
 115 521 110 523 104 523 c 256
 88 523 81 511 81 502 c 256
 81 495 83 490 88 486 c 258
 144 430 l 257
 154 423 l 257
NamedP: "hr00"
422 208 m 256
 422 158 405 117 371 85 c 256
 338 53 294 37 239 37 c 256
 191 37 149 54 113 90 c 256
 77 126 60 167 60 213 c 256
 60 262 78 303 113 336 c 256
 149 369 192 386 242 386 c 256
 293 386 336 369 370 336 c 256
 405 303 422 261 422 208 c 256
EndSplineSet
PickledDataWithLists: "(dp1
S'com.adobe.type.autohint'
p2
(S'data'
S'<data>\\n  <hintSetList>\\n    <hintset pointTag=\"hr00\">\\n      <hstem pos=\"-13\" width=\"50\"/>\\n      <hstem pos=\"386\" width=\"50\"/>\\n      <hstem pos=\"423\" width=\"-20\"/>\\n      <vstem pos=\"5\" width=\"55\"/>\\n      <vstem pos=\"422\" width=\"54\"/>\\n    </hintset>\\n  </hintSetList>\\n  </data>'
Ntp3
s."
EndChar

StartChar: uni0C31
Encoding: 163 3121 163
GlifName: uni0C31_
Width: 656
VWidth: 0
Flags: W
LayerCount: 2
Back
Fore
SplineSet
603 211 m 256
NamedP: "hr00"
 603 363 539 440 446 440 c 256
 371 440 327 385 327 309 c 256
 327 284 334 262 349 243 c 256
 354 236 362 227 373 214 c 257
 182 214 l 258
 162 214 152 206 152 190 c 256
 152 172 163 163 184 163 c 258
 459 163 l 258
 476 163 489 173 489 198 c 256
 489 215 478 225 457 228 c 256
 436 231 418 241 403 258 c 256
 388 275 380 294 380 316 c 256
 380 355 410 386 443 386 c 256
 499 386 552 329 552 226 c 256
 552 106 504 40 428 40 c 256
 395 40 369 50 350 71 c 256
 336 86 329 105 329 128 c 256
 329 151 323 159 295 159 c 256
 278 159 269 147 269 122 c 256
 269 78 235 40 182 40 c 256
 145 40 115 57 91 92 c 256
 68 127 56 171 56 223 c 256
 56 271 73 321 80 333 c 257
 81 338 81 337 81 329 c 256
 81 301 91 279 112 262 c 256
 133 246 154 238 177 238 c 256
 241 238 283 279 283 334 c 256
 283 363 276 387 261 406 c 256
 242 431 214 443 177 443 c 256
 66 443 5 353 5 221 c 256
 5 74 72 -9 179 -9 c 256
 234 -9 277 12 298 49 c 257
 311 14 363 -15 420 -15 c 256
 470 -15 510 3 542 36 c 256
 582 76 603 133 603 211 c 256
NamedP: "hr00"
241 340 m 256
 241 307 215 286 182 286 c 256
 149 286 125 308 125 341 c 256
 125 372 153 398 182 398 c 256
 210 398 241 376 241 340 c 256
EndSplineSet
PickledDataWithLists: "(dp1
S'com.adobe.type.autohint'
p2
(S'data'
S'<data>\\n  <hintSetList>\\n    <hintset pointTag=\"hr00\">\\n      <hstem pos=\"-15\" width=\"55\"/>\\n      <hstem pos=\"-9\" width=\"49\"/>\\n      <hstem pos=\"163\" width=\"51\"/>\\n      <hstem pos=\"238\" width=\"48\"/>\\n      <hstem pos=\"386\" width=\"54\"/>\\n      <hstem pos=\"398\" width=\"45\"/>\\n      <vstem pos=\"5\" width=\"51\"/>\\n      <vstem pos=\"81\" width=\"44\"/>\\n      <vstem pos=\"241\" width=\"42\"/>\\n      <vstem pos=\"269\" width=\"60\"/>\\n      <vstem pos=\"327\" width=\"53\"/>\\n      <vstem pos=\"552\" width=\"51\"/>\\n    </hintset>\\n  </hintSetList>\\n  </data>'
Ntp3
s."
EndChar

StartChar: uni0C32
Encoding: 164 3122 164
GlifName: uni0C32_
Width: 577
VWidth: 0
Flags: W
LayerCount: 2
Back
Fore
SplineSet
248 321 m 256
NamedP: "hr00"
 248 280 216 253 179 253 c 256
 143 253 113 282 113 321 c 256
 113 356 143 386 179 386 c 256
 216 386 248 357 248 321 c 256
NamedP: "hr00"
523 217 m 256
 523 294 501 353 458 394 c 256
 426 425 390 440 350 440 c 256
 325 440 313 430 313 411 c 256
 313 393 322 384 341 384 c 256
 426 384 473 327 473 224 c 256
 473 178 457 137 426 102 c 256
 389 59 335 37 264 37 c 256
 197 37 145 57 106 98 c 256
 73 134 56 179 56 233 c 256
 56 258 60 281 65 292 c 257
 70 241 123 203 182 203 c 256
 250 203 299 245 299 322 c 256
 299 389 252 439 189 439 c 256
 137 439 93 420 58 382 c 256
 23 344 5 294 5 232 c 256
 5 158 29 99 77 54 c 256
 126 9 187 -13 260 -13 c 256
 339 -13 403 8 451 50 c 256
 499 92 523 148 523 217 c 256
EndSplineSet
PickledDataWithLists: "(dp1
S'com.adobe.type.autohint'
p2
(S'data'
S'<data>\\n  <hintSetList>\\n    <hintset pointTag=\"hr00\">\\n      <hstem pos=\"-13\" width=\"50\"/>\\n      <hstem pos=\"203\" width=\"50\"/>\\n      <hstem pos=\"386\" width=\"53\"/>\\n      <vstem pos=\"5\" width=\"51\"/>\\n      <vstem pos=\"65\" width=\"48\"/>\\n      <vstem pos=\"248\" width=\"51\"/>\\n      <vstem pos=\"473\" width=\"50\"/>\\n    </hintset>\\n  </hintSetList>\\n  </data>'
Ntp3
s."
EndChar

StartChar: uni0C33
Encoding: 165 3123 165
GlifName: uni0C33_
Width: 610
VWidth: 0
Flags: W
LayerCount: 2
Back
Fore
SplineSet
338 386 m 258
NamedP: "hr00"
 418 386 444 372 444 321 c 256
 444 260 371 225 243 225 c 256
 199 225 159 231 123 244 c 256
 87 257 68 271 65 286 c 257
 84 266 102 263 125 263 c 256
 198 263 234 292 234 349 c 256
 234 374 227 393 212 408 c 256
 195 427 168 437 130 437 c 256
 55 437 5 397 5 326 c 256
 5 288 18 258 43 236 c 256
 62 218 90 204 126 194 c 257
 115 193 102 183 87 164 c 256
 72 145 64 127 64 110 c 256
 64 78 78 52 104 28 c 256
 136 0 179 -15 237 -15 c 256
 290 -15 334 -8 366 10 c 256
 405 32 423 64 423 103 c 256
 423 147 406 172 366 191 c 257
 403 200 432 213 454 230 c 256
 485 254 500 284 500 321 c 256
 500 388 465 426 394 433 c 257
 494 507 l 257
 545 548 l 258
 553 555 557 563 557 570 c 256
 557 583 545 599 529 599 c 256
 525 599 517 596 506 589 c 257
 316 434 l 257
 303 434 l 257
 227 494 l 257
 223 499 217 501 208 501 c 256
 199 501 192 497 187 489 c 257
 182 485 180 479 180 472 c 256
 180 464 184 457 191 452 c 258
 269 398 l 258
 282 389 299 384 311 385 c 258
 315 386 l 257
 338 386 l 258
NamedP: "hr00"
185 349 m 256
 185 321 166 302 134 302 c 256
 98 302 80 318 80 349 c 256
 80 377 102 398 134 398 c 256
 168 398 185 382 185 349 c 256
367 103 m 256
 367 56 323 33 248 33 c 256
 164 33 122 58 122 107 c 256
 122 150 158 174 243 174 c 256
 318 174 367 144 367 103 c 256
EndSplineSet
PickledDataWithLists: "(dp1
S'com.adobe.type.autohint'
p2
(S'data'
S'<data>\\n  <hintSetList>\\n    <hintset pointTag=\"hr00\">\\n      <hstem pos=\"-15\" width=\"48\"/>\\n      <hstem pos=\"174\" width=\"51\"/>\\n      <hstem pos=\"263\" width=\"39\"/>\\n      <hstem pos=\"386\" width=\"48\"/>\\n      <hstem pos=\"398\" width=\"39\"/>\\n      <vstem pos=\"5\" width=\"75\"/>\\n      <vstem pos=\"64\" width=\"58\"/>\\n      <vstem pos=\"185\" width=\"49\"/>\\n      <vstem pos=\"367\" width=\"56\"/>\\n      <vstem pos=\"444\" width=\"56\"/>\\n    </hintset>\\n  </hintSetList>\\n  </data>'
Ntp3
s."
EndChar

StartChar: uni0C34
Encoding: 166 3124 166
GlifName: uni0C34_
Width: 645
VWidth: 0
Flags: W
LayerCount: 2
Back
Fore
SplineSet
299 51 m 257
NamedP: "hr00"
 312 30 328 16 348 6 c 256
 367 -3 391 -9 419 -9 c 256
 524 -9 592 74 592 221 c 256
 592 353 532 443 420 443 c 256
 383 443 355 431 336 406 c 256
 322 387 315 363 315 334 c 256
 315 279 357 238 420 238 c 256
 443 238 464 246 485 262 c 256
 506 279 516 301 516 329 c 256
 516 337 517 339 518 336 c 256
 525 320 542 271 542 223 c 256
 542 171 530 127 506 92 c 256
 483 57 453 40 416 40 c 256
 389 40 367 48 351 64 c 256
 337 79 329 97 328 116 c 257
 329 120 329 124 329 128 c 256
 329 151 323 159 295 159 c 256
 278 159 269 147 269 122 c 256
 269 78 235 40 182 40 c 256
 145 40 115 57 91 92 c 256
 68 127 56 171 56 223 c 256
 56 271 73 321 80 333 c 257
 81 338 81 337 81 329 c 256
 81 301 91 279 112 262 c 256
 133 246 154 238 177 238 c 256
 241 238 283 279 283 334 c 256
 283 363 276 387 261 406 c 256
 242 431 214 443 177 443 c 256
 66 443 5 353 5 221 c 256
 5 74 72 -9 179 -9 c 256
 206 -9 230 -4 251 6 c 256
 271 15 287 30 299 51 c 257
NamedP: "hr00"
416 286 m 256
 381 286 357 307 357 340 c 256
 357 376 388 398 416 398 c 256
 444 398 473 372 473 341 c 256
 473 308 449 286 416 286 c 256
241 340 m 256
 241 307 215 286 182 286 c 256
 149 286 125 308 125 341 c 256
 125 372 153 398 182 398 c 256
 210 398 241 376 241 340 c 256
297 51 m 257
 297 54 l 257
 298 53 298 53 298 52 c 257
 297 51 l 257
EndSplineSet
PickledDataWithLists: "(dp1
S'com.adobe.type.autohint'
p2
(S'data'
S'<data>\\n  <hintSetList>\\n    <hintset pointTag=\"hr00\">\\n      <hstem pos=\"-9\" width=\"49\"/>\\n      <hstem pos=\"238\" width=\"48\"/>\\n      <hstem pos=\"398\" width=\"45\"/>\\n      <vstem pos=\"5\" width=\"51\"/>\\n      <vstem pos=\"81\" width=\"44\"/>\\n      <vstem pos=\"241\" width=\"42\"/>\\n      <vstem pos=\"269\" width=\"60\"/>\\n      <vstem pos=\"315\" width=\"42\"/>\\n      <vstem pos=\"473\" width=\"43\"/>\\n      <vstem pos=\"542\" width=\"50\"/>\\n    </hintset>\\n  </hintSetList>\\n  </data>'
Ntp3
s."
EndChar

StartChar: uni0C35
Encoding: 167 3125 167
GlifName: uni0C35_
Width: 586
VWidth: 0
Flags: W
LayerCount: 2
Back
Fore
SplineSet
216 117 m 256
NamedP: "hr00"
 216 66 179 36 134 36 c 256
 87 36 53 73 53 117 c 256
 53 164 87 200 134 200 c 256
 177 200 216 164 216 117 c 256
NamedP: "hr00"
533 197 m 256
 533 259 517 314 483 361 c 256
 447 411 400 436 344 436 c 258
 249 436 l 257
 392 547 l 258
 406 558 413 567 413 574 c 256
 413 586 400 602 384 602 c 256
 377 602 368 598 358 589 c 258
 183 446 l 257
 160 446 l 257
 91 502 l 257
 91 503 91 504 90 505 c 257
 80 505 l 258
 67 505 58 500 51 491 c 257
 50 486 49 482 49 479 c 256
 49 467 53 459 61 455 c 257
 165 386 l 257
 338 386 l 258
 377 386 411 369 440 334 c 256
 469 300 484 253 484 194 c 256
 484 153 472 117 449 85 c 256
 426 53 398 37 364 37 c 256
 330 37 303 57 283 98 c 256
 272 119 260 149 246 186 c 257
 232 207 220 221 210 229 c 256
 192 242 168 249 139 249 c 256
 100 249 67 236 42 210 c 256
 17 185 5 154 5 117 c 256
 5 76 19 43 46 18 c 256
 71 -4 101 -15 137 -15 c 256
 162 -15 187 -7 210 10 c 256
 227 23 241 38 252 54 c 257
 265 21 312 -15 369 -15 c 256
 409 -15 446 5 481 45 c 256
 516 86 533 136 533 197 c 256
EndSplineSet
PickledDataWithLists: "(dp1
S'com.adobe.type.autohint'
p2
(S'data'
S'<data>\\n  <hintSetList>\\n    <hintset pointTag=\"hr00\">\\n      <hstem pos=\"-15\" width=\"52\"/>\\n      <hstem pos=\"200\" width=\"49\"/>\\n      <hstem pos=\"386\" width=\"50\"/>\\n      <vstem pos=\"5\" width=\"48\"/>\\n      <vstem pos=\"484\" width=\"49\"/>\\n    </hintset>\\n  </hintSetList>\\n  </data>'
Ntp3
s."
EndChar

StartChar: uni0C36
Encoding: 168 3126 168
GlifName: uni0C36_
Width: 563
VWidth: 0
Flags: W
LayerCount: 2
Back
Fore
SplineSet
333 386 m 258
NamedP: "hr00"
 371 385 397 381 412 372 c 256
 421 367 425 356 425 341 c 256
 425 321 405 309 380 293 c 257
 332 313 266 324 213 324 c 256
 78 324 5 268 5 183 c 256
 5 163 19 146 35 146 c 256
 55 146 65 157 65 180 c 256
 65 212 73 235 90 248 c 256
 112 265 151 274 208 274 c 256
 256 274 283 269 310 264 c 257
 264 253 226 238 196 218 c 256
 160 194 142 165 142 131 c 256
 142 36 211 -15 308 -15 c 256
 440 -15 505 50 505 151 c 256
 505 175 498 197 483 218 c 256
 471 235 455 252 434 268 c 257
 463 288 475 316 475 348 c 256
 475 373 465 394 446 409 c 256
 425 427 391 436 345 436 c 257
 499 549 l 257
 506 556 510 563 510 570 c 256
 510 586 499 601 483 601 c 256
 479 601 471 597 460 590 c 257
 266 436 l 257
 253 436 l 257
 177 495 l 257
 173 500 167 503 159 503 c 256
 149 503 142 499 137 491 c 257
 132 486 130 481 130 474 c 256
 130 465 134 458 143 453 c 257
 220 399 l 258
 231 391 249 385 260 386 c 258
 265 387 l 257
 333 386 l 258
NamedP: "hr00"
452 134 m 256
 452 77 399 33 318 33 c 256
 242 33 195 71 195 115 c 256
 195 150 216 177 258 195 c 256
 300 213 342 228 384 243 c 257
 429 220 452 183 452 134 c 256
EndSplineSet
PickledDataWithLists: "(dp1
S'com.adobe.type.autohint'
p2
(S'data'
S'<data>\\n  <hintSetList>\\n    <hintset pointTag=\"hr00\">\\n      <hstem pos=\"-15\" width=\"48\"/>\\n      <hstem pos=\"274\" width=\"50\"/>\\n      <hstem pos=\"386\" width=\"50\"/>\\n      <vstem pos=\"5\" width=\"60\"/>\\n      <vstem pos=\"142\" width=\"53\"/>\\n      <vstem pos=\"425\" width=\"50\"/>\\n      <vstem pos=\"452\" width=\"53\"/>\\n    </hintset>\\n  </hintSetList>\\n  </data>'
Ntp3
s."
EndChar

